<?xml version="1.0" encoding="utf-8" standalone="no"?>
<!DOCTYPE svg PUBLIC "-//W3C//DTD SVG 1.1//EN"
  "http://www.w3.org/Graphics/SVG/1.1/DTD/svg11.dtd">
<svg xmlns:xlink="http://www.w3.org/1999/xlink" width="720pt" height="432pt" viewBox="0 0 720 432" xmlns="http://www.w3.org/2000/svg" version="1.1">
 <metadata>
  <rdf:RDF xmlns:dc="http://purl.org/dc/elements/1.1/" xmlns:cc="http://creativecommons.org/ns#" xmlns:rdf="http://www.w3.org/1999/02/22-rdf-syntax-ns#">
   <cc:Work>
    <dc:type rdf:resource="http://purl.org/dc/dcmitype/StillImage"/>
    <dc:date>2025-09-23T18:16:45.027828</dc:date>
    <dc:format>image/svg+xml</dc:format>
    <dc:creator>
     <cc:Agent>
      <dc:title>Matplotlib v3.10.3, https://matplotlib.org/</dc:title>
     </cc:Agent>
    </dc:creator>
   </cc:Work>
  </rdf:RDF>
 </metadata>
 <defs>
  <style type="text/css">*{stroke-linejoin: round; stroke-linecap: butt}</style>
 </defs>
 <g id="figure_1">
  <g id="patch_1">
   <path d="M 0 432 
L 720 432 
L 720 0 
L 0 0 
z
" style="fill: #ffffff"/>
  </g>
  <g id="axes_1">
   <g id="patch_2">
    <path d="M 56.09 187.48 
L 354.6 187.48 
L 354.6 26.88 
L 56.09 26.88 
z
" style="fill: #ffffff"/>
   </g>
   <g id="matplotlib.axis_1">
    <g id="xtick_1">
     <g id="line2d_1">
      <defs>
       <path id="me5db9a5ecb" d="M 0 0 
L 0 3.5 
" style="stroke: #000000; stroke-width: 0.8"/>
      </defs>
      <g>
       <use xlink:href="#me5db9a5ecb" x="69.658636" y="187.48" style="stroke: #000000; stroke-width: 0.8"/>
      </g>
     </g>
     <g id="text_1">
      <!-- 12 -->
      <g transform="translate(63.296136 202.078437) scale(0.1 -0.1)">
       <defs>
        <path id="DejaVuSans-31" d="M 794 531 
L 1825 531 
L 1825 4091 
L 703 3866 
L 703 4441 
L 1819 4666 
L 2450 4666 
L 2450 531 
L 3481 531 
L 3481 0 
L 794 0 
L 794 531 
z
" transform="scale(0.015625)"/>
        <path id="DejaVuSans-32" d="M 1228 531 
L 3431 531 
L 3431 0 
L 469 0 
L 469 531 
Q 828 903 1448 1529 
Q 2069 2156 2228 2338 
Q 2531 2678 2651 2914 
Q 2772 3150 2772 3378 
Q 2772 3750 2511 3984 
Q 2250 4219 1831 4219 
Q 1534 4219 1204 4116 
Q 875 4013 500 3803 
L 500 4441 
Q 881 4594 1212 4672 
Q 1544 4750 1819 4750 
Q 2544 4750 2975 4387 
Q 3406 4025 3406 3419 
Q 3406 3131 3298 2873 
Q 3191 2616 2906 2266 
Q 2828 2175 2409 1742 
Q 1991 1309 1228 531 
z
" transform="scale(0.015625)"/>
       </defs>
       <use xlink:href="#DejaVuSans-31"/>
       <use xlink:href="#DejaVuSans-32" transform="translate(63.623047 0)"/>
      </g>
     </g>
    </g>
    <g id="xtick_2">
     <g id="line2d_2">
      <g>
       <use xlink:href="#me5db9a5ecb" x="114.887424" y="187.48" style="stroke: #000000; stroke-width: 0.8"/>
      </g>
     </g>
     <g id="text_2">
      <!-- 13 -->
      <g transform="translate(108.524924 202.078437) scale(0.1 -0.1)">
       <defs>
        <path id="DejaVuSans-33" d="M 2597 2516 
Q 3050 2419 3304 2112 
Q 3559 1806 3559 1356 
Q 3559 666 3084 287 
Q 2609 -91 1734 -91 
Q 1441 -91 1130 -33 
Q 819 25 488 141 
L 488 750 
Q 750 597 1062 519 
Q 1375 441 1716 441 
Q 2309 441 2620 675 
Q 2931 909 2931 1356 
Q 2931 1769 2642 2001 
Q 2353 2234 1838 2234 
L 1294 2234 
L 1294 2753 
L 1863 2753 
Q 2328 2753 2575 2939 
Q 2822 3125 2822 3475 
Q 2822 3834 2567 4026 
Q 2313 4219 1838 4219 
Q 1578 4219 1281 4162 
Q 984 4106 628 3988 
L 628 4550 
Q 988 4650 1302 4700 
Q 1616 4750 1894 4750 
Q 2613 4750 3031 4423 
Q 3450 4097 3450 3541 
Q 3450 3153 3228 2886 
Q 3006 2619 2597 2516 
z
" transform="scale(0.015625)"/>
       </defs>
       <use xlink:href="#DejaVuSans-31"/>
       <use xlink:href="#DejaVuSans-33" transform="translate(63.623047 0)"/>
      </g>
     </g>
    </g>
    <g id="xtick_3">
     <g id="line2d_3">
      <g>
       <use xlink:href="#me5db9a5ecb" x="160.116212" y="187.48" style="stroke: #000000; stroke-width: 0.8"/>
      </g>
     </g>
     <g id="text_3">
      <!-- 14 -->
      <g transform="translate(153.753712 202.078437) scale(0.1 -0.1)">
       <defs>
        <path id="DejaVuSans-34" d="M 2419 4116 
L 825 1625 
L 2419 1625 
L 2419 4116 
z
M 2253 4666 
L 3047 4666 
L 3047 1625 
L 3713 1625 
L 3713 1100 
L 3047 1100 
L 3047 0 
L 2419 0 
L 2419 1100 
L 313 1100 
L 313 1709 
L 2253 4666 
z
" transform="scale(0.015625)"/>
       </defs>
       <use xlink:href="#DejaVuSans-31"/>
       <use xlink:href="#DejaVuSans-34" transform="translate(63.623047 0)"/>
      </g>
     </g>
    </g>
    <g id="xtick_4">
     <g id="line2d_4">
      <g>
       <use xlink:href="#me5db9a5ecb" x="205.345" y="187.48" style="stroke: #000000; stroke-width: 0.8"/>
      </g>
     </g>
     <g id="text_4">
      <!-- 15 -->
      <g transform="translate(198.9825 202.078437) scale(0.1 -0.1)">
       <defs>
        <path id="DejaVuSans-35" d="M 691 4666 
L 3169 4666 
L 3169 4134 
L 1269 4134 
L 1269 2991 
Q 1406 3038 1543 3061 
Q 1681 3084 1819 3084 
Q 2600 3084 3056 2656 
Q 3513 2228 3513 1497 
Q 3513 744 3044 326 
Q 2575 -91 1722 -91 
Q 1428 -91 1123 -41 
Q 819 9 494 109 
L 494 744 
Q 775 591 1075 516 
Q 1375 441 1709 441 
Q 2250 441 2565 725 
Q 2881 1009 2881 1497 
Q 2881 1984 2565 2268 
Q 2250 2553 1709 2553 
Q 1456 2553 1204 2497 
Q 953 2441 691 2322 
L 691 4666 
z
" transform="scale(0.015625)"/>
       </defs>
       <use xlink:href="#DejaVuSans-31"/>
       <use xlink:href="#DejaVuSans-35" transform="translate(63.623047 0)"/>
      </g>
     </g>
    </g>
    <g id="xtick_5">
     <g id="line2d_5">
      <g>
       <use xlink:href="#me5db9a5ecb" x="250.573788" y="187.48" style="stroke: #000000; stroke-width: 0.8"/>
      </g>
     </g>
     <g id="text_5">
      <!-- 16 -->
      <g transform="translate(244.211288 202.078437) scale(0.1 -0.1)">
       <defs>
        <path id="DejaVuSans-36" d="M 2113 2584 
Q 1688 2584 1439 2293 
Q 1191 2003 1191 1497 
Q 1191 994 1439 701 
Q 1688 409 2113 409 
Q 2538 409 2786 701 
Q 3034 994 3034 1497 
Q 3034 2003 2786 2293 
Q 2538 2584 2113 2584 
z
M 3366 4563 
L 3366 3988 
Q 3128 4100 2886 4159 
Q 2644 4219 2406 4219 
Q 1781 4219 1451 3797 
Q 1122 3375 1075 2522 
Q 1259 2794 1537 2939 
Q 1816 3084 2150 3084 
Q 2853 3084 3261 2657 
Q 3669 2231 3669 1497 
Q 3669 778 3244 343 
Q 2819 -91 2113 -91 
Q 1303 -91 875 529 
Q 447 1150 447 2328 
Q 447 3434 972 4092 
Q 1497 4750 2381 4750 
Q 2619 4750 2861 4703 
Q 3103 4656 3366 4563 
z
" transform="scale(0.015625)"/>
       </defs>
       <use xlink:href="#DejaVuSans-31"/>
       <use xlink:href="#DejaVuSans-36" transform="translate(63.623047 0)"/>
      </g>
     </g>
    </g>
    <g id="xtick_6">
     <g id="line2d_6">
      <g>
       <use xlink:href="#me5db9a5ecb" x="295.802576" y="187.48" style="stroke: #000000; stroke-width: 0.8"/>
      </g>
     </g>
     <g id="text_6">
      <!-- 17 -->
      <g transform="translate(289.440076 202.078437) scale(0.1 -0.1)">
       <defs>
        <path id="DejaVuSans-37" d="M 525 4666 
L 3525 4666 
L 3525 4397 
L 1831 0 
L 1172 0 
L 2766 4134 
L 525 4134 
L 525 4666 
z
" transform="scale(0.015625)"/>
       </defs>
       <use xlink:href="#DejaVuSans-31"/>
       <use xlink:href="#DejaVuSans-37" transform="translate(63.623047 0)"/>
      </g>
     </g>
    </g>
    <g id="xtick_7">
     <g id="line2d_7">
      <g>
       <use xlink:href="#me5db9a5ecb" x="341.031364" y="187.48" style="stroke: #000000; stroke-width: 0.8"/>
      </g>
     </g>
     <g id="text_7">
      <!-- 18 -->
      <g transform="translate(334.668864 202.078437) scale(0.1 -0.1)">
       <defs>
        <path id="DejaVuSans-38" d="M 2034 2216 
Q 1584 2216 1326 1975 
Q 1069 1734 1069 1313 
Q 1069 891 1326 650 
Q 1584 409 2034 409 
Q 2484 409 2743 651 
Q 3003 894 3003 1313 
Q 3003 1734 2745 1975 
Q 2488 2216 2034 2216 
z
M 1403 2484 
Q 997 2584 770 2862 
Q 544 3141 544 3541 
Q 544 4100 942 4425 
Q 1341 4750 2034 4750 
Q 2731 4750 3128 4425 
Q 3525 4100 3525 3541 
Q 3525 3141 3298 2862 
Q 3072 2584 2669 2484 
Q 3125 2378 3379 2068 
Q 3634 1759 3634 1313 
Q 3634 634 3220 271 
Q 2806 -91 2034 -91 
Q 1263 -91 848 271 
Q 434 634 434 1313 
Q 434 1759 690 2068 
Q 947 2378 1403 2484 
z
M 1172 3481 
Q 1172 3119 1398 2916 
Q 1625 2713 2034 2713 
Q 2441 2713 2670 2916 
Q 2900 3119 2900 3481 
Q 2900 3844 2670 4047 
Q 2441 4250 2034 4250 
Q 1625 4250 1398 4047 
Q 1172 3844 1172 3481 
z
" transform="scale(0.015625)"/>
       </defs>
       <use xlink:href="#DejaVuSans-31"/>
       <use xlink:href="#DejaVuSans-38" transform="translate(63.623047 0)"/>
      </g>
     </g>
    </g>
    <g id="text_8">
     <!-- time t -->
     <g transform="translate(190.499687 215.756562) scale(0.1 -0.1)">
      <defs>
       <path id="DejaVuSans-74" d="M 1172 4494 
L 1172 3500 
L 2356 3500 
L 2356 3053 
L 1172 3053 
L 1172 1153 
Q 1172 725 1289 603 
Q 1406 481 1766 481 
L 2356 481 
L 2356 0 
L 1766 0 
Q 1100 0 847 248 
Q 594 497 594 1153 
L 594 3053 
L 172 3053 
L 172 3500 
L 594 3500 
L 594 4494 
L 1172 4494 
z
" transform="scale(0.015625)"/>
       <path id="DejaVuSans-69" d="M 603 3500 
L 1178 3500 
L 1178 0 
L 603 0 
L 603 3500 
z
M 603 4863 
L 1178 4863 
L 1178 4134 
L 603 4134 
L 603 4863 
z
" transform="scale(0.015625)"/>
       <path id="DejaVuSans-6d" d="M 3328 2828 
Q 3544 3216 3844 3400 
Q 4144 3584 4550 3584 
Q 5097 3584 5394 3201 
Q 5691 2819 5691 2113 
L 5691 0 
L 5113 0 
L 5113 2094 
Q 5113 2597 4934 2840 
Q 4756 3084 4391 3084 
Q 3944 3084 3684 2787 
Q 3425 2491 3425 1978 
L 3425 0 
L 2847 0 
L 2847 2094 
Q 2847 2600 2669 2842 
Q 2491 3084 2119 3084 
Q 1678 3084 1418 2786 
Q 1159 2488 1159 1978 
L 1159 0 
L 581 0 
L 581 3500 
L 1159 3500 
L 1159 2956 
Q 1356 3278 1631 3431 
Q 1906 3584 2284 3584 
Q 2666 3584 2933 3390 
Q 3200 3197 3328 2828 
z
" transform="scale(0.015625)"/>
       <path id="DejaVuSans-65" d="M 3597 1894 
L 3597 1613 
L 953 1613 
Q 991 1019 1311 708 
Q 1631 397 2203 397 
Q 2534 397 2845 478 
Q 3156 559 3463 722 
L 3463 178 
Q 3153 47 2828 -22 
Q 2503 -91 2169 -91 
Q 1331 -91 842 396 
Q 353 884 353 1716 
Q 353 2575 817 3079 
Q 1281 3584 2069 3584 
Q 2775 3584 3186 3129 
Q 3597 2675 3597 1894 
z
M 3022 2063 
Q 3016 2534 2758 2815 
Q 2500 3097 2075 3097 
Q 1594 3097 1305 2825 
Q 1016 2553 972 2059 
L 3022 2063 
z
" transform="scale(0.015625)"/>
       <path id="DejaVuSans-20" transform="scale(0.015625)"/>
      </defs>
      <use xlink:href="#DejaVuSans-74"/>
      <use xlink:href="#DejaVuSans-69" transform="translate(39.208984 0)"/>
      <use xlink:href="#DejaVuSans-6d" transform="translate(66.992188 0)"/>
      <use xlink:href="#DejaVuSans-65" transform="translate(164.404297 0)"/>
      <use xlink:href="#DejaVuSans-20" transform="translate(225.927734 0)"/>
      <use xlink:href="#DejaVuSans-74" transform="translate(257.714844 0)"/>
     </g>
    </g>
   </g>
   <g id="matplotlib.axis_2">
    <g id="ytick_1">
     <g id="line2d_8">
      <defs>
       <path id="m6df8ecbe0a" d="M 0 0 
L -3.5 0 
" style="stroke: #000000; stroke-width: 0.8"/>
      </defs>
      <g>
       <use xlink:href="#m6df8ecbe0a" x="56.09" y="182.146617" style="stroke: #000000; stroke-width: 0.8"/>
      </g>
     </g>
     <g id="text_9">
      <!-- −1.0 -->
      <g transform="translate(24.807188 185.945836) scale(0.1 -0.1)">
       <defs>
        <path id="DejaVuSans-2212" d="M 678 2272 
L 4684 2272 
L 4684 1741 
L 678 1741 
L 678 2272 
z
" transform="scale(0.015625)"/>
        <path id="DejaVuSans-2e" d="M 684 794 
L 1344 794 
L 1344 0 
L 684 0 
L 684 794 
z
" transform="scale(0.015625)"/>
        <path id="DejaVuSans-30" d="M 2034 4250 
Q 1547 4250 1301 3770 
Q 1056 3291 1056 2328 
Q 1056 1369 1301 889 
Q 1547 409 2034 409 
Q 2525 409 2770 889 
Q 3016 1369 3016 2328 
Q 3016 3291 2770 3770 
Q 2525 4250 2034 4250 
z
M 2034 4750 
Q 2819 4750 3233 4129 
Q 3647 3509 3647 2328 
Q 3647 1150 3233 529 
Q 2819 -91 2034 -91 
Q 1250 -91 836 529 
Q 422 1150 422 2328 
Q 422 3509 836 4129 
Q 1250 4750 2034 4750 
z
" transform="scale(0.015625)"/>
       </defs>
       <use xlink:href="#DejaVuSans-2212"/>
       <use xlink:href="#DejaVuSans-31" transform="translate(83.789062 0)"/>
       <use xlink:href="#DejaVuSans-2e" transform="translate(147.412109 0)"/>
       <use xlink:href="#DejaVuSans-30" transform="translate(179.199219 0)"/>
      </g>
     </g>
    </g>
    <g id="ytick_2">
     <g id="line2d_9">
      <g>
       <use xlink:href="#m6df8ecbe0a" x="56.09" y="146.537467" style="stroke: #000000; stroke-width: 0.8"/>
      </g>
     </g>
     <g id="text_10">
      <!-- −0.5 -->
      <g transform="translate(24.807188 150.336685) scale(0.1 -0.1)">
       <use xlink:href="#DejaVuSans-2212"/>
       <use xlink:href="#DejaVuSans-30" transform="translate(83.789062 0)"/>
       <use xlink:href="#DejaVuSans-2e" transform="translate(147.412109 0)"/>
       <use xlink:href="#DejaVuSans-35" transform="translate(179.199219 0)"/>
      </g>
     </g>
    </g>
    <g id="ytick_3">
     <g id="line2d_10">
      <g>
       <use xlink:href="#m6df8ecbe0a" x="56.09" y="110.928316" style="stroke: #000000; stroke-width: 0.8"/>
      </g>
     </g>
     <g id="text_11">
      <!-- 0.0 -->
      <g transform="translate(33.186875 114.727535) scale(0.1 -0.1)">
       <use xlink:href="#DejaVuSans-30"/>
       <use xlink:href="#DejaVuSans-2e" transform="translate(63.623047 0)"/>
       <use xlink:href="#DejaVuSans-30" transform="translate(95.410156 0)"/>
      </g>
     </g>
    </g>
    <g id="ytick_4">
     <g id="line2d_11">
      <g>
       <use xlink:href="#m6df8ecbe0a" x="56.09" y="75.319166" style="stroke: #000000; stroke-width: 0.8"/>
      </g>
     </g>
     <g id="text_12">
      <!-- 0.5 -->
      <g transform="translate(33.186875 79.118384) scale(0.1 -0.1)">
       <use xlink:href="#DejaVuSans-30"/>
       <use xlink:href="#DejaVuSans-2e" transform="translate(63.623047 0)"/>
       <use xlink:href="#DejaVuSans-35" transform="translate(95.410156 0)"/>
      </g>
     </g>
    </g>
    <g id="ytick_5">
     <g id="line2d_12">
      <g>
       <use xlink:href="#m6df8ecbe0a" x="56.09" y="39.710015" style="stroke: #000000; stroke-width: 0.8"/>
      </g>
     </g>
     <g id="text_13">
      <!-- 1.0 -->
      <g transform="translate(33.186875 43.509234) scale(0.1 -0.1)">
       <use xlink:href="#DejaVuSans-31"/>
       <use xlink:href="#DejaVuSans-2e" transform="translate(63.623047 0)"/>
       <use xlink:href="#DejaVuSans-30" transform="translate(95.410156 0)"/>
      </g>
     </g>
    </g>
    <g id="text_14">
     <!-- x1 -->
     <g transform="translate(18.7275 113.320625) rotate(-90) scale(0.1 -0.1)">
      <defs>
       <path id="DejaVuSans-78" d="M 3513 3500 
L 2247 1797 
L 3578 0 
L 2900 0 
L 1881 1375 
L 863 0 
L 184 0 
L 1544 1831 
L 300 3500 
L 978 3500 
L 1906 2253 
L 2834 3500 
L 3513 3500 
z
" transform="scale(0.015625)"/>
      </defs>
      <use xlink:href="#DejaVuSans-78"/>
      <use xlink:href="#DejaVuSans-31" transform="translate(59.179688 0)"/>
     </g>
    </g>
   </g>
   <g id="line2d_13">
    <path d="M 69.658636 47.74978 
L 72.386 45.281782 
L 75.113365 43.066557 
L 77.840729 41.110596 
L 80.568093 39.419415 
L 83.295457 37.997566 
L 86.022821 36.848591 
L 88.750185 35.975006 
L 91.477549 35.378315 
L 94.204913 35.059024 
L 96.932277 35.016621 
L 99.659641 35.249594 
L 102.387005 35.755442 
L 105.11437 36.530695 
L 107.841734 37.570922 
L 110.569098 38.870757 
L 113.296462 40.42393 
L 116.023826 42.223293 
L 118.75119 44.260843 
L 121.478554 46.527756 
L 124.205918 49.014442 
L 128.296964 53.133764 
L 132.388011 57.686384 
L 136.479057 62.631349 
L 140.570103 67.924909 
L 146.024831 75.444978 
L 151.479559 83.387301 
L 158.297969 93.726223 
L 180.116882 127.189706 
L 185.57161 135.017337 
L 191.026339 142.403295 
L 195.117385 147.591586 
L 199.208431 152.434761 
L 203.299477 156.896508 
L 207.390523 160.943908 
L 210.117887 163.397427 
L 212.845251 165.646047 
L 215.572615 167.682826 
L 218.299979 169.501656 
L 221.027344 171.097273 
L 223.754708 172.465243 
L 226.482072 173.601961 
L 229.209436 174.504694 
L 231.9368 175.171589 
L 234.664164 175.601644 
L 237.391528 175.794721 
L 240.118892 175.751546 
L 242.846256 175.473697 
L 245.57362 174.963592 
L 248.300984 174.224473 
L 251.028349 173.260398 
L 253.755713 172.076215 
L 256.483077 170.677536 
L 259.210441 169.070718 
L 261.937805 167.26284 
L 264.665169 165.261666 
L 268.756215 161.916039 
L 272.847261 158.185531 
L 276.938307 154.103998 
L 281.029354 149.70779 
L 285.1204 145.035527 
L 290.575128 138.446722 
L 297.393538 129.775041 
L 306.939312 117.186038 
L 317.848769 102.81666 
L 324.667179 94.195369 
L 330.121907 87.653814 
L 335.576635 81.526753 
L 339.667682 77.254028 
L 341.031364 75.897724 
L 341.031364 75.897724 
" clip-path="url(#pc392737a8e)" style="fill: none; stroke: #1f77b4; stroke-width: 1.5; stroke-linecap: square"/>
   </g>
   <g id="line2d_14">
    <path d="M 69.658636 47.74978 
L 72.386 45.030814 
L 75.113365 42.592297 
L 77.840729 40.44552 
L 80.568093 38.60072 
L 83.295457 37.067043 
L 86.022821 35.852405 
L 88.750185 34.963314 
L 91.477549 34.404727 
L 94.204913 34.18 
L 96.932277 34.290775 
L 99.659641 34.736897 
L 102.387005 35.516399 
L 105.11437 36.625492 
L 107.841734 38.058606 
L 110.569098 39.808428 
L 113.296462 41.865977 
L 116.023826 44.220737 
L 118.75119 46.860762 
L 121.478554 49.772766 
L 124.205918 52.942243 
L 128.296964 58.14495 
L 132.388011 63.835283 
L 136.479057 69.952488 
L 140.570103 76.432339 
L 146.024831 85.51978 
L 152.843241 97.364503 
L 169.207426 126.084977 
L 174.662154 135.161237 
L 178.7532 141.640757 
L 182.844246 147.77222 
L 186.935292 153.499832 
L 191.026339 158.772593 
L 195.117385 163.544329 
L 197.844749 166.426713 
L 200.572113 169.057323 
L 203.299477 171.42638 
L 206.026841 173.525238 
L 208.754205 175.346433 
L 211.481569 176.883672 
L 214.208933 178.131835 
L 216.936297 179.087069 
L 219.663661 179.746819 
L 222.391026 180.109818 
L 225.11839 180.17612 
L 227.845754 179.947132 
L 230.573118 179.425601 
L 233.300482 178.615609 
L 236.027846 177.522573 
L 238.75521 176.153208 
L 241.482574 174.515488 
L 244.209938 172.618596 
L 246.937302 170.472867 
L 249.664667 168.089727 
L 252.392031 165.481558 
L 256.483077 161.176685 
L 260.574123 156.4438 
L 264.665169 151.334321 
L 268.756215 145.90221 
L 274.210943 138.254204 
L 281.029354 128.233316 
L 302.848266 95.679511 
L 308.302995 88.102011 
L 312.394041 82.719528 
L 316.485087 77.64749 
L 320.576133 72.931155 
L 324.667179 68.613403 
L 328.758225 64.734439 
L 331.485589 62.4108 
L 334.212953 60.308982 
L 336.940317 58.438367 
L 339.667682 56.80751 
L 341.031364 56.084418 
L 341.031364 56.084418 
" clip-path="url(#pc392737a8e)" style="fill: none; stroke-dasharray: 5.55,2.4; stroke-dashoffset: 0; stroke: #ff7f0e; stroke-width: 1.5"/>
   </g>
   <g id="patch_3">
    <path d="M 56.09 187.48 
L 56.09 26.88 
" style="fill: none; stroke: #000000; stroke-width: 0.8; stroke-linejoin: miter; stroke-linecap: square"/>
   </g>
   <g id="patch_4">
    <path d="M 354.6 187.48 
L 354.6 26.88 
" style="fill: none; stroke: #000000; stroke-width: 0.8; stroke-linejoin: miter; stroke-linecap: square"/>
   </g>
   <g id="patch_5">
    <path d="M 56.09 187.48 
L 354.6 187.48 
" style="fill: none; stroke: #000000; stroke-width: 0.8; stroke-linejoin: miter; stroke-linecap: square"/>
   </g>
   <g id="patch_6">
    <path d="M 56.09 26.88 
L 354.6 26.88 
" style="fill: none; stroke: #000000; stroke-width: 0.8; stroke-linejoin: miter; stroke-linecap: square"/>
   </g>
  </g>
  <g id="axes_2">
   <g id="patch_7">
    <path d="M 410.69 187.48 
L 709.2 187.48 
L 709.2 26.88 
L 410.69 26.88 
z
" style="fill: #ffffff"/>
   </g>
   <g id="matplotlib.axis_3">
    <g id="xtick_8">
     <g id="line2d_15">
      <g>
       <use xlink:href="#me5db9a5ecb" x="420.603251" y="187.48" style="stroke: #000000; stroke-width: 0.8"/>
      </g>
     </g>
     <g id="text_15">
      <!-- −1.0 -->
      <g transform="translate(408.461845 202.078437) scale(0.1 -0.1)">
       <use xlink:href="#DejaVuSans-2212"/>
       <use xlink:href="#DejaVuSans-31" transform="translate(83.789062 0)"/>
       <use xlink:href="#DejaVuSans-2e" transform="translate(147.412109 0)"/>
       <use xlink:href="#DejaVuSans-30" transform="translate(179.199219 0)"/>
      </g>
     </g>
    </g>
    <g id="xtick_9">
     <g id="line2d_16">
      <g>
       <use xlink:href="#me5db9a5ecb" x="486.790595" y="187.48" style="stroke: #000000; stroke-width: 0.8"/>
      </g>
     </g>
     <g id="text_16">
      <!-- −0.5 -->
      <g transform="translate(474.649189 202.078437) scale(0.1 -0.1)">
       <use xlink:href="#DejaVuSans-2212"/>
       <use xlink:href="#DejaVuSans-30" transform="translate(83.789062 0)"/>
       <use xlink:href="#DejaVuSans-2e" transform="translate(147.412109 0)"/>
       <use xlink:href="#DejaVuSans-35" transform="translate(179.199219 0)"/>
      </g>
     </g>
    </g>
    <g id="xtick_10">
     <g id="line2d_17">
      <g>
       <use xlink:href="#me5db9a5ecb" x="552.97794" y="187.48" style="stroke: #000000; stroke-width: 0.8"/>
      </g>
     </g>
     <g id="text_17">
      <!-- 0.0 -->
      <g transform="translate(545.026377 202.078437) scale(0.1 -0.1)">
       <use xlink:href="#DejaVuSans-30"/>
       <use xlink:href="#DejaVuSans-2e" transform="translate(63.623047 0)"/>
       <use xlink:href="#DejaVuSans-30" transform="translate(95.410156 0)"/>
      </g>
     </g>
    </g>
    <g id="xtick_11">
     <g id="line2d_18">
      <g>
       <use xlink:href="#me5db9a5ecb" x="619.165284" y="187.48" style="stroke: #000000; stroke-width: 0.8"/>
      </g>
     </g>
     <g id="text_18">
      <!-- 0.5 -->
      <g transform="translate(611.213722 202.078437) scale(0.1 -0.1)">
       <use xlink:href="#DejaVuSans-30"/>
       <use xlink:href="#DejaVuSans-2e" transform="translate(63.623047 0)"/>
       <use xlink:href="#DejaVuSans-35" transform="translate(95.410156 0)"/>
      </g>
     </g>
    </g>
    <g id="xtick_12">
     <g id="line2d_19">
      <g>
       <use xlink:href="#me5db9a5ecb" x="685.352629" y="187.48" style="stroke: #000000; stroke-width: 0.8"/>
      </g>
     </g>
     <g id="text_19">
      <!-- 1.0 -->
      <g transform="translate(677.401066 202.078437) scale(0.1 -0.1)">
       <use xlink:href="#DejaVuSans-31"/>
       <use xlink:href="#DejaVuSans-2e" transform="translate(63.623047 0)"/>
       <use xlink:href="#DejaVuSans-30" transform="translate(95.410156 0)"/>
      </g>
     </g>
    </g>
    <g id="text_20">
     <!-- x1 -->
     <g transform="translate(553.804375 215.756562) scale(0.1 -0.1)">
      <use xlink:href="#DejaVuSans-78"/>
      <use xlink:href="#DejaVuSans-31" transform="translate(59.179688 0)"/>
     </g>
    </g>
   </g>
   <g id="matplotlib.axis_4">
    <g id="ytick_6">
     <g id="line2d_20">
      <g>
       <use xlink:href="#m6df8ecbe0a" x="410.69" y="178.154854" style="stroke: #000000; stroke-width: 0.8"/>
      </g>
     </g>
     <g id="text_21">
      <!-- −1.0 -->
      <g transform="translate(379.407188 181.954073) scale(0.1 -0.1)">
       <use xlink:href="#DejaVuSans-2212"/>
       <use xlink:href="#DejaVuSans-31" transform="translate(83.789062 0)"/>
       <use xlink:href="#DejaVuSans-2e" transform="translate(147.412109 0)"/>
       <use xlink:href="#DejaVuSans-30" transform="translate(179.199219 0)"/>
      </g>
     </g>
    </g>
    <g id="ytick_7">
     <g id="line2d_21">
      <g>
       <use xlink:href="#m6df8ecbe0a" x="410.69" y="139.439292" style="stroke: #000000; stroke-width: 0.8"/>
      </g>
     </g>
     <g id="text_22">
      <!-- −0.5 -->
      <g transform="translate(379.407188 143.238511) scale(0.1 -0.1)">
       <use xlink:href="#DejaVuSans-2212"/>
       <use xlink:href="#DejaVuSans-30" transform="translate(83.789062 0)"/>
       <use xlink:href="#DejaVuSans-2e" transform="translate(147.412109 0)"/>
       <use xlink:href="#DejaVuSans-35" transform="translate(179.199219 0)"/>
      </g>
     </g>
    </g>
    <g id="ytick_8">
     <g id="line2d_22">
      <g>
       <use xlink:href="#m6df8ecbe0a" x="410.69" y="100.723729" style="stroke: #000000; stroke-width: 0.8"/>
      </g>
     </g>
     <g id="text_23">
      <!-- 0.0 -->
      <g transform="translate(387.786875 104.522948) scale(0.1 -0.1)">
       <use xlink:href="#DejaVuSans-30"/>
       <use xlink:href="#DejaVuSans-2e" transform="translate(63.623047 0)"/>
       <use xlink:href="#DejaVuSans-30" transform="translate(95.410156 0)"/>
      </g>
     </g>
    </g>
    <g id="ytick_9">
     <g id="line2d_23">
      <g>
       <use xlink:href="#m6df8ecbe0a" x="410.69" y="62.008167" style="stroke: #000000; stroke-width: 0.8"/>
      </g>
     </g>
     <g id="text_24">
      <!-- 0.5 -->
      <g transform="translate(387.786875 65.807386) scale(0.1 -0.1)">
       <use xlink:href="#DejaVuSans-30"/>
       <use xlink:href="#DejaVuSans-2e" transform="translate(63.623047 0)"/>
       <use xlink:href="#DejaVuSans-35" transform="translate(95.410156 0)"/>
      </g>
     </g>
    </g>
    <g id="text_25">
     <!-- x2 -->
     <g transform="translate(373.3275 113.320625) rotate(-90) scale(0.1 -0.1)">
      <use xlink:href="#DejaVuSans-78"/>
      <use xlink:href="#DejaVuSans-32" transform="translate(59.179688 0)"/>
     </g>
    </g>
   </g>
   <g id="line2d_24">
    <path d="M 670.408978 53.990693 
L 674.99629 58.483399 
L 679.113767 63.102167 
L 682.749345 67.829526 
L 684.38315 70.22838 
L 685.892773 72.647695 
L 687.277213 75.085206 
L 688.535588 77.538644 
L 689.667134 80.005736 
L 690.671207 82.484204 
L 691.547283 84.971767 
L 692.294955 87.466141 
L 692.913931 89.965042 
L 693.404034 92.466185 
L 693.765206 94.96729 
L 693.997507 97.466087 
L 694.101114 99.960318 
L 694.076321 102.447735 
L 693.923539 104.926102 
L 693.643291 107.393195 
L 693.236215 109.846804 
L 692.703062 112.284744 
L 692.044694 114.70485 
L 691.262086 117.104981 
L 690.356324 119.483021 
L 689.328599 121.836879 
L 688.180213 124.164488 
L 686.912572 126.463809 
L 685.527185 128.732843 
L 684.025662 130.969624 
L 682.409715 133.17222 
L 678.84189 137.46732 
L 674.83936 141.60343 
L 670.419247 145.566498 
L 665.600066 149.343222 
L 660.401674 152.921053 
L 654.845217 156.288195 
L 648.952994 159.433694 
L 642.748349 162.347502 
L 636.255636 165.020475 
L 629.500137 167.444356 
L 622.507954 169.611836 
L 615.305818 171.516607 
L 607.921069 173.153369 
L 600.381574 174.517799 
L 592.715633 175.606573 
L 584.951769 176.417402 
L 577.118682 176.94903 
L 569.245191 177.201207 
L 561.360097 177.174694 
L 553.492025 176.871263 
L 545.669375 176.293681 
L 537.92026 175.44569 
L 530.27231 174.331985 
L 522.752613 172.958202 
L 515.387673 171.330886 
L 508.203261 169.457457 
L 501.224302 167.346181 
L 494.474852 165.00614 
L 487.978034 162.447202 
L 481.75586 159.679945 
L 475.829193 156.715648 
L 470.217749 153.566241 
L 464.940014 150.244269 
L 460.013093 146.762794 
L 455.452695 143.135384 
L 451.273146 139.376062 
L 447.48735 135.499275 
L 444.106659 131.519768 
L 441.140857 127.452564 
L 438.598188 123.312928 
L 436.485352 119.116324 
L 434.807425 114.878298 
L 433.567857 110.614443 
L 432.768506 106.340371 
L 432.40963 102.071648 
L 432.48988 97.823701 
L 433.006323 93.611797 
L 433.954464 89.450997 
L 435.328277 85.356068 
L 437.12022 81.341444 
L 439.321282 77.421208 
L 441.921031 73.609 
L 444.90765 69.917971 
L 448.267986 66.360775 
L 451.987602 62.94952 
L 456.050874 59.695678 
L 460.441015 56.610077 
L 465.140136 53.702902 
L 470.129331 50.983636 
L 475.388797 48.460995 
L 480.89786 46.142918 
L 486.635052 44.036579 
L 492.578162 42.148364 
L 498.704435 40.483805 
L 504.990591 39.04757 
L 511.412894 37.843487 
L 517.947207 36.874539 
L 524.569181 36.142827 
L 531.254317 35.649568 
L 537.978005 35.395115 
L 544.715617 35.378958 
L 551.442667 35.599724 
L 558.134853 36.055187 
L 564.768107 36.742284 
L 571.318743 37.657135 
L 577.763537 38.795054 
L 584.079759 40.150576 
L 590.245273 41.717478 
L 596.238659 43.488813 
L 602.039247 45.456936 
L 607.627134 47.61352 
L 612.98335 49.949621 
L 618.089907 52.4557 
L 618.089907 52.4557 
" clip-path="url(#p8a35a44ca0)" style="fill: none; stroke: #1f77b4; stroke-width: 1.5; stroke-linecap: square"/>
   </g>
   <g id="line2d_25">
    <path d="M 670.408978 53.990693 
L 672.99965 56.34729 
L 675.462768 58.747878 
L 677.795541 61.190086 
L 679.995281 63.671478 
L 682.059425 66.189556 
L 683.985532 68.741764 
L 685.771286 71.325485 
L 687.414495 73.938042 
L 688.913091 76.576698 
L 690.265167 79.238671 
L 691.46895 81.921113 
L 692.522836 84.621133 
L 693.425402 87.335807 
L 694.175405 90.062177 
L 694.771784 92.79725 
L 695.21366 95.538001 
L 695.500348 98.281384 
L 695.631364 101.024328 
L 695.606426 103.76375 
L 695.425465 106.496571 
L 695.088622 109.219711 
L 694.596249 111.930093 
L 693.948909 114.624646 
L 693.147376 117.300318 
L 692.192638 119.954069 
L 691.085885 122.582894 
L 689.828516 125.183825 
L 688.422131 127.75393 
L 686.868533 130.290315 
L 685.169707 132.790137 
L 683.327844 135.250587 
L 681.345304 137.668919 
L 679.224616 140.042447 
L 676.968471 142.368553 
L 674.579729 144.64468 
L 672.061413 146.868336 
L 669.416673 149.037103 
L 666.64882 151.148621 
L 663.761296 153.200605 
L 660.757657 155.190847 
L 657.641571 157.117224 
L 654.416819 158.97769 
L 647.657009 162.493115 
L 640.510576 165.722389 
L 633.011379 168.652043 
L 625.19452 171.270044 
L 617.096211 173.565848 
L 608.753715 175.530405 
L 600.205226 177.156178 
L 591.489631 178.437295 
L 582.646335 179.369612 
L 573.715178 179.950719 
L 564.736255 180.18 
L 555.749585 180.058681 
L 546.794992 179.589818 
L 537.911931 178.778268 
L 529.13915 177.630621 
L 520.514534 176.155138 
L 512.074978 174.361638 
L 503.856124 172.261331 
L 495.892194 169.86671 
L 488.215959 167.191414 
L 480.858597 164.250059 
L 473.849527 161.058089 
L 467.216383 157.63171 
L 460.985082 153.987785 
L 455.179645 150.143738 
L 449.82211 146.117487 
L 444.932548 141.927434 
L 440.529141 137.592456 
L 438.514852 135.376635 
L 436.627957 133.131846 
L 434.87012 130.860559 
L 433.242871 128.565268 
L 431.747602 126.248487 
L 430.385578 123.912755 
L 429.157919 121.560636 
L 428.065596 119.194704 
L 427.109429 116.817543 
L 426.290086 114.43175 
L 425.608086 112.039931 
L 425.063797 109.6447 
L 424.657442 107.248674 
L 424.389085 104.854477 
L 424.258636 102.464718 
L 424.265847 100.081998 
L 424.410313 97.708907 
L 424.691472 95.348017 
L 425.108609 93.001883 
L 425.660852 90.673038 
L 426.347175 88.363982 
L 427.166396 86.077174 
L 428.117181 83.815043 
L 429.198042 81.579972 
L 430.407345 79.374304 
L 431.743305 77.200338 
L 433.203999 75.060313 
L 434.787363 72.956413 
L 436.491193 70.890762 
L 438.313149 68.865425 
L 440.250769 66.882404 
L 444.462483 63.05102 
L 449.104183 59.411347 
L 454.151996 55.976997 
L 459.580427 52.760459 
L 465.362558 49.773138 
L 471.470304 47.025321 
L 477.874599 44.526157 
L 484.545491 42.283681 
L 491.452336 40.304894 
L 498.564001 38.595734 
L 505.849088 37.161063 
L 513.275947 36.004678 
L 520.812836 35.129377 
L 528.428043 34.536939 
L 536.090066 34.22811 
L 543.767641 34.202613 
L 551.429804 34.459189 
L 559.046015 34.995586 
L 566.586238 35.808569 
L 574.020937 36.893945 
L 581.321158 38.246582 
L 588.4586 39.860415 
L 595.405589 41.728474 
L 602.135118 43.84289 
L 608.620942 46.194914 
L 614.837587 48.774924 
L 620.760292 51.57242 
L 626.365194 54.576039 
L 631.629401 57.773559 
L 636.531029 61.151912 
L 641.049185 64.697147 
L 645.164292 68.394492 
L 648.858194 72.22838 
L 652.114205 76.182466 
L 654.917243 80.239639 
L 654.917243 80.239639 
" clip-path="url(#p8a35a44ca0)" style="fill: none; stroke-dasharray: 5.55,2.4; stroke-dashoffset: 0; stroke: #ff7f0e; stroke-width: 1.5"/>
   </g>
   <g id="patch_8">
    <path d="M 410.69 187.48 
L 410.69 26.88 
" style="fill: none; stroke: #000000; stroke-width: 0.8; stroke-linejoin: miter; stroke-linecap: square"/>
   </g>
   <g id="patch_9">
    <path d="M 709.2 187.48 
L 709.2 26.88 
" style="fill: none; stroke: #000000; stroke-width: 0.8; stroke-linejoin: miter; stroke-linecap: square"/>
   </g>
   <g id="patch_10">
    <path d="M 410.69 187.48 
L 709.2 187.48 
" style="fill: none; stroke: #000000; stroke-width: 0.8; stroke-linejoin: miter; stroke-linecap: square"/>
   </g>
   <g id="patch_11">
    <path d="M 410.69 26.88 
L 709.2 26.88 
" style="fill: none; stroke: #000000; stroke-width: 0.8; stroke-linejoin: miter; stroke-linecap: square"/>
   </g>
   <g id="text_26">
    <!-- Phase space -->
    <g transform="translate(522.520938 20.88) scale(0.12 -0.12)">
     <defs>
      <path id="DejaVuSans-50" d="M 1259 4147 
L 1259 2394 
L 2053 2394 
Q 2494 2394 2734 2622 
Q 2975 2850 2975 3272 
Q 2975 3691 2734 3919 
Q 2494 4147 2053 4147 
L 1259 4147 
z
M 628 4666 
L 2053 4666 
Q 2838 4666 3239 4311 
Q 3641 3956 3641 3272 
Q 3641 2581 3239 2228 
Q 2838 1875 2053 1875 
L 1259 1875 
L 1259 0 
L 628 0 
L 628 4666 
z
" transform="scale(0.015625)"/>
      <path id="DejaVuSans-68" d="M 3513 2113 
L 3513 0 
L 2938 0 
L 2938 2094 
Q 2938 2591 2744 2837 
Q 2550 3084 2163 3084 
Q 1697 3084 1428 2787 
Q 1159 2491 1159 1978 
L 1159 0 
L 581 0 
L 581 4863 
L 1159 4863 
L 1159 2956 
Q 1366 3272 1645 3428 
Q 1925 3584 2291 3584 
Q 2894 3584 3203 3211 
Q 3513 2838 3513 2113 
z
" transform="scale(0.015625)"/>
      <path id="DejaVuSans-61" d="M 2194 1759 
Q 1497 1759 1228 1600 
Q 959 1441 959 1056 
Q 959 750 1161 570 
Q 1363 391 1709 391 
Q 2188 391 2477 730 
Q 2766 1069 2766 1631 
L 2766 1759 
L 2194 1759 
z
M 3341 1997 
L 3341 0 
L 2766 0 
L 2766 531 
Q 2569 213 2275 61 
Q 1981 -91 1556 -91 
Q 1019 -91 701 211 
Q 384 513 384 1019 
Q 384 1609 779 1909 
Q 1175 2209 1959 2209 
L 2766 2209 
L 2766 2266 
Q 2766 2663 2505 2880 
Q 2244 3097 1772 3097 
Q 1472 3097 1187 3025 
Q 903 2953 641 2809 
L 641 3341 
Q 956 3463 1253 3523 
Q 1550 3584 1831 3584 
Q 2591 3584 2966 3190 
Q 3341 2797 3341 1997 
z
" transform="scale(0.015625)"/>
      <path id="DejaVuSans-73" d="M 2834 3397 
L 2834 2853 
Q 2591 2978 2328 3040 
Q 2066 3103 1784 3103 
Q 1356 3103 1142 2972 
Q 928 2841 928 2578 
Q 928 2378 1081 2264 
Q 1234 2150 1697 2047 
L 1894 2003 
Q 2506 1872 2764 1633 
Q 3022 1394 3022 966 
Q 3022 478 2636 193 
Q 2250 -91 1575 -91 
Q 1294 -91 989 -36 
Q 684 19 347 128 
L 347 722 
Q 666 556 975 473 
Q 1284 391 1588 391 
Q 1994 391 2212 530 
Q 2431 669 2431 922 
Q 2431 1156 2273 1281 
Q 2116 1406 1581 1522 
L 1381 1569 
Q 847 1681 609 1914 
Q 372 2147 372 2553 
Q 372 3047 722 3315 
Q 1072 3584 1716 3584 
Q 2034 3584 2315 3537 
Q 2597 3491 2834 3397 
z
" transform="scale(0.015625)"/>
      <path id="DejaVuSans-70" d="M 1159 525 
L 1159 -1331 
L 581 -1331 
L 581 3500 
L 1159 3500 
L 1159 2969 
Q 1341 3281 1617 3432 
Q 1894 3584 2278 3584 
Q 2916 3584 3314 3078 
Q 3713 2572 3713 1747 
Q 3713 922 3314 415 
Q 2916 -91 2278 -91 
Q 1894 -91 1617 61 
Q 1341 213 1159 525 
z
M 3116 1747 
Q 3116 2381 2855 2742 
Q 2594 3103 2138 3103 
Q 1681 3103 1420 2742 
Q 1159 2381 1159 1747 
Q 1159 1113 1420 752 
Q 1681 391 2138 391 
Q 2594 391 2855 752 
Q 3116 1113 3116 1747 
z
" transform="scale(0.015625)"/>
      <path id="DejaVuSans-63" d="M 3122 3366 
L 3122 2828 
Q 2878 2963 2633 3030 
Q 2388 3097 2138 3097 
Q 1578 3097 1268 2742 
Q 959 2388 959 1747 
Q 959 1106 1268 751 
Q 1578 397 2138 397 
Q 2388 397 2633 464 
Q 2878 531 3122 666 
L 3122 134 
Q 2881 22 2623 -34 
Q 2366 -91 2075 -91 
Q 1284 -91 818 406 
Q 353 903 353 1747 
Q 353 2603 823 3093 
Q 1294 3584 2113 3584 
Q 2378 3584 2631 3529 
Q 2884 3475 3122 3366 
z
" transform="scale(0.015625)"/>
     </defs>
     <use xlink:href="#DejaVuSans-50"/>
     <use xlink:href="#DejaVuSans-68" transform="translate(60.302734 0)"/>
     <use xlink:href="#DejaVuSans-61" transform="translate(123.681641 0)"/>
     <use xlink:href="#DejaVuSans-73" transform="translate(184.960938 0)"/>
     <use xlink:href="#DejaVuSans-65" transform="translate(237.060547 0)"/>
     <use xlink:href="#DejaVuSans-20" transform="translate(298.583984 0)"/>
     <use xlink:href="#DejaVuSans-73" transform="translate(330.371094 0)"/>
     <use xlink:href="#DejaVuSans-70" transform="translate(382.470703 0)"/>
     <use xlink:href="#DejaVuSans-61" transform="translate(445.947266 0)"/>
     <use xlink:href="#DejaVuSans-63" transform="translate(507.226562 0)"/>
     <use xlink:href="#DejaVuSans-65" transform="translate(562.207031 0)"/>
    </g>
   </g>
  </g>
  <g id="axes_3">
   <g id="patch_12">
    <path d="M 56.09 390.04 
L 354.6 390.04 
L 354.6 229.44 
L 56.09 229.44 
z
" style="fill: #ffffff"/>
   </g>
   <g id="matplotlib.axis_5">
    <g id="xtick_13">
     <g id="line2d_26">
      <g>
       <use xlink:href="#me5db9a5ecb" x="69.658636" y="390.04" style="stroke: #000000; stroke-width: 0.8"/>
      </g>
     </g>
     <g id="text_27">
      <!-- 12 -->
      <g transform="translate(63.296136 404.638437) scale(0.1 -0.1)">
       <use xlink:href="#DejaVuSans-31"/>
       <use xlink:href="#DejaVuSans-32" transform="translate(63.623047 0)"/>
      </g>
     </g>
    </g>
    <g id="xtick_14">
     <g id="line2d_27">
      <g>
       <use xlink:href="#me5db9a5ecb" x="114.887424" y="390.04" style="stroke: #000000; stroke-width: 0.8"/>
      </g>
     </g>
     <g id="text_28">
      <!-- 13 -->
      <g transform="translate(108.524924 404.638437) scale(0.1 -0.1)">
       <use xlink:href="#DejaVuSans-31"/>
       <use xlink:href="#DejaVuSans-33" transform="translate(63.623047 0)"/>
      </g>
     </g>
    </g>
    <g id="xtick_15">
     <g id="line2d_28">
      <g>
       <use xlink:href="#me5db9a5ecb" x="160.116212" y="390.04" style="stroke: #000000; stroke-width: 0.8"/>
      </g>
     </g>
     <g id="text_29">
      <!-- 14 -->
      <g transform="translate(153.753712 404.638437) scale(0.1 -0.1)">
       <use xlink:href="#DejaVuSans-31"/>
       <use xlink:href="#DejaVuSans-34" transform="translate(63.623047 0)"/>
      </g>
     </g>
    </g>
    <g id="xtick_16">
     <g id="line2d_29">
      <g>
       <use xlink:href="#me5db9a5ecb" x="205.345" y="390.04" style="stroke: #000000; stroke-width: 0.8"/>
      </g>
     </g>
     <g id="text_30">
      <!-- 15 -->
      <g transform="translate(198.9825 404.638437) scale(0.1 -0.1)">
       <use xlink:href="#DejaVuSans-31"/>
       <use xlink:href="#DejaVuSans-35" transform="translate(63.623047 0)"/>
      </g>
     </g>
    </g>
    <g id="xtick_17">
     <g id="line2d_30">
      <g>
       <use xlink:href="#me5db9a5ecb" x="250.573788" y="390.04" style="stroke: #000000; stroke-width: 0.8"/>
      </g>
     </g>
     <g id="text_31">
      <!-- 16 -->
      <g transform="translate(244.211288 404.638437) scale(0.1 -0.1)">
       <use xlink:href="#DejaVuSans-31"/>
       <use xlink:href="#DejaVuSans-36" transform="translate(63.623047 0)"/>
      </g>
     </g>
    </g>
    <g id="xtick_18">
     <g id="line2d_31">
      <g>
       <use xlink:href="#me5db9a5ecb" x="295.802576" y="390.04" style="stroke: #000000; stroke-width: 0.8"/>
      </g>
     </g>
     <g id="text_32">
      <!-- 17 -->
      <g transform="translate(289.440076 404.638437) scale(0.1 -0.1)">
       <use xlink:href="#DejaVuSans-31"/>
       <use xlink:href="#DejaVuSans-37" transform="translate(63.623047 0)"/>
      </g>
     </g>
    </g>
    <g id="xtick_19">
     <g id="line2d_32">
      <g>
       <use xlink:href="#me5db9a5ecb" x="341.031364" y="390.04" style="stroke: #000000; stroke-width: 0.8"/>
      </g>
     </g>
     <g id="text_33">
      <!-- 18 -->
      <g transform="translate(334.668864 404.638437) scale(0.1 -0.1)">
       <use xlink:href="#DejaVuSans-31"/>
       <use xlink:href="#DejaVuSans-38" transform="translate(63.623047 0)"/>
      </g>
     </g>
    </g>
    <g id="text_34">
     <!-- time t -->
     <g transform="translate(190.499687 418.316562) scale(0.1 -0.1)">
      <use xlink:href="#DejaVuSans-74"/>
      <use xlink:href="#DejaVuSans-69" transform="translate(39.208984 0)"/>
      <use xlink:href="#DejaVuSans-6d" transform="translate(66.992188 0)"/>
      <use xlink:href="#DejaVuSans-65" transform="translate(164.404297 0)"/>
      <use xlink:href="#DejaVuSans-20" transform="translate(225.927734 0)"/>
      <use xlink:href="#DejaVuSans-74" transform="translate(257.714844 0)"/>
     </g>
    </g>
   </g>
   <g id="matplotlib.axis_6">
    <g id="ytick_10">
     <g id="line2d_33">
      <g>
       <use xlink:href="#m6df8ecbe0a" x="56.09" y="380.714854" style="stroke: #000000; stroke-width: 0.8"/>
      </g>
     </g>
     <g id="text_35">
      <!-- −1.0 -->
      <g transform="translate(24.807188 384.514073) scale(0.1 -0.1)">
       <use xlink:href="#DejaVuSans-2212"/>
       <use xlink:href="#DejaVuSans-31" transform="translate(83.789062 0)"/>
       <use xlink:href="#DejaVuSans-2e" transform="translate(147.412109 0)"/>
       <use xlink:href="#DejaVuSans-30" transform="translate(179.199219 0)"/>
      </g>
     </g>
    </g>
    <g id="ytick_11">
     <g id="line2d_34">
      <g>
       <use xlink:href="#m6df8ecbe0a" x="56.09" y="341.999292" style="stroke: #000000; stroke-width: 0.8"/>
      </g>
     </g>
     <g id="text_36">
      <!-- −0.5 -->
      <g transform="translate(24.807188 345.798511) scale(0.1 -0.1)">
       <use xlink:href="#DejaVuSans-2212"/>
       <use xlink:href="#DejaVuSans-30" transform="translate(83.789062 0)"/>
       <use xlink:href="#DejaVuSans-2e" transform="translate(147.412109 0)"/>
       <use xlink:href="#DejaVuSans-35" transform="translate(179.199219 0)"/>
      </g>
     </g>
    </g>
    <g id="ytick_12">
     <g id="line2d_35">
      <g>
       <use xlink:href="#m6df8ecbe0a" x="56.09" y="303.283729" style="stroke: #000000; stroke-width: 0.8"/>
      </g>
     </g>
     <g id="text_37">
      <!-- 0.0 -->
      <g transform="translate(33.186875 307.082948) scale(0.1 -0.1)">
       <use xlink:href="#DejaVuSans-30"/>
       <use xlink:href="#DejaVuSans-2e" transform="translate(63.623047 0)"/>
       <use xlink:href="#DejaVuSans-30" transform="translate(95.410156 0)"/>
      </g>
     </g>
    </g>
    <g id="ytick_13">
     <g id="line2d_36">
      <g>
       <use xlink:href="#m6df8ecbe0a" x="56.09" y="264.568167" style="stroke: #000000; stroke-width: 0.8"/>
      </g>
     </g>
     <g id="text_38">
      <!-- 0.5 -->
      <g transform="translate(33.186875 268.367386) scale(0.1 -0.1)">
       <use xlink:href="#DejaVuSans-30"/>
       <use xlink:href="#DejaVuSans-2e" transform="translate(63.623047 0)"/>
       <use xlink:href="#DejaVuSans-35" transform="translate(95.410156 0)"/>
      </g>
     </g>
    </g>
    <g id="text_39">
     <!-- x2 -->
     <g transform="translate(18.7275 315.880625) rotate(-90) scale(0.1 -0.1)">
      <use xlink:href="#DejaVuSans-78"/>
      <use xlink:href="#DejaVuSans-32" transform="translate(59.179688 0)"/>
     </g>
    </g>
   </g>
   <g id="line2d_37">
    <path d="M 69.658636 256.550693 
L 75.113365 265.662167 
L 80.568093 275.207695 
L 88.750185 290.026141 
L 102.387005 314.844744 
L 109.205416 326.724488 
L 114.660144 335.73222 
L 118.75119 342.116145 
L 122.842236 348.126498 
L 126.933282 353.717754 
L 131.024328 358.848195 
L 135.115375 363.480153 
L 137.842739 366.274629 
L 140.570103 368.824032 
L 143.297467 371.120564 
L 146.024831 373.157415 
L 148.752195 374.928782 
L 151.479559 376.429858 
L 154.206923 377.656811 
L 156.934287 378.606834 
L 159.661651 379.278155 
L 162.389016 379.670026 
L 165.11638 379.7827 
L 167.843744 379.617443 
L 170.571108 379.176529 
L 173.298472 378.463215 
L 176.025836 377.481721 
L 178.7532 376.237216 
L 181.480564 374.735792 
L 184.207928 372.984438 
L 186.935292 370.991001 
L 189.662656 368.764157 
L 192.390021 366.313388 
L 195.117385 363.648924 
L 199.208431 359.275648 
L 203.299477 354.486021 
L 207.390523 349.322794 
L 211.481569 343.831317 
L 216.936297 336.081429 
L 222.391026 327.950837 
L 230.573118 315.308623 
L 245.57362 292.010997 
L 252.392031 281.928663 
L 257.846759 274.307537 
L 261.937805 268.920775 
L 266.028851 263.86223 
L 270.119897 259.170077 
L 274.210943 254.879217 
L 278.301989 251.020995 
L 281.029354 248.702918 
L 283.756718 246.596579 
L 286.484082 244.708364 
L 289.211446 243.043805 
L 291.93881 241.60757 
L 294.666174 240.403487 
L 297.393538 239.434539 
L 300.120902 238.702827 
L 302.848266 238.209568 
L 305.57563 237.955115 
L 308.302995 237.938958 
L 311.030359 238.159724 
L 313.757723 238.615187 
L 316.485087 239.302284 
L 319.212451 240.217135 
L 321.939815 241.355054 
L 324.667179 242.710576 
L 327.394543 244.277478 
L 330.121907 246.048813 
L 332.849271 248.016936 
L 336.940317 251.319713 
L 341.031364 255.0157 
L 341.031364 255.0157 
" clip-path="url(#pbf775f3d9d)" style="fill: none; stroke: #1f77b4; stroke-width: 1.5; stroke-linecap: square"/>
   </g>
   <g id="line2d_38">
    <path d="M 69.658636 256.550693 
L 73.749683 263.750086 
L 79.204411 273.885485 
L 86.022821 287.181133 
L 106.478052 327.743825 
L 111.93278 337.810587 
L 116.023826 344.928553 
L 120.114872 351.597103 
L 124.205918 357.750847 
L 126.933282 361.53769 
L 129.660646 365.053115 
L 132.388011 368.282389 
L 135.115375 371.212043 
L 137.842739 373.830044 
L 140.570103 376.125848 
L 143.297467 378.090405 
L 146.024831 379.716178 
L 148.752195 380.997295 
L 151.479559 381.929612 
L 154.206923 382.510719 
L 156.934287 382.74 
L 159.661651 382.618681 
L 162.389016 382.149818 
L 165.11638 381.338268 
L 167.843744 380.190621 
L 170.571108 378.715138 
L 173.298472 376.921638 
L 176.025836 374.821331 
L 178.7532 372.42671 
L 181.480564 369.751414 
L 184.207928 366.810059 
L 186.935292 363.618089 
L 191.026339 358.395864 
L 195.117385 352.703738 
L 199.208431 346.601768 
L 203.299477 340.152456 
L 208.754205 331.125268 
L 215.572615 319.377543 
L 231.9368 290.923982 
L 237.391528 281.934304 
L 241.482574 275.516413 
L 245.57362 269.442404 
L 249.664667 263.766343 
L 253.755713 258.536997 
L 257.846759 253.797477 
L 260.574123 250.928693 
L 263.301487 248.304129 
L 266.028851 245.932371 
L 268.756215 243.82093 
L 271.483579 241.976281 
L 274.210943 240.403825 
L 276.938307 239.107887 
L 279.665672 238.091756 
L 282.393036 237.35773 
L 285.1204 236.907067 
L 287.847764 236.74 
L 290.575128 236.85576 
L 293.302492 237.252589 
L 296.029856 237.927744 
L 298.75722 238.877507 
L 301.484584 240.097213 
L 304.211948 241.581263 
L 306.939312 243.323138 
L 309.666677 245.315414 
L 312.394041 247.549783 
L 315.121405 250.017057 
L 317.848769 252.707177 
L 321.939815 257.136039 
L 326.030861 262.000983 
L 330.121907 267.257147 
L 334.212953 272.855372 
L 339.667682 280.759263 
L 341.031364 282.799639 
L 341.031364 282.799639 
" clip-path="url(#pbf775f3d9d)" style="fill: none; stroke-dasharray: 5.55,2.4; stroke-dashoffset: 0; stroke: #ff7f0e; stroke-width: 1.5"/>
   </g>
   <g id="patch_13">
    <path d="M 56.09 390.04 
L 56.09 229.44 
" style="fill: none; stroke: #000000; stroke-width: 0.8; stroke-linejoin: miter; stroke-linecap: square"/>
   </g>
   <g id="patch_14">
    <path d="M 354.6 390.04 
L 354.6 229.44 
" style="fill: none; stroke: #000000; stroke-width: 0.8; stroke-linejoin: miter; stroke-linecap: square"/>
   </g>
   <g id="patch_15">
    <path d="M 56.09 390.04 
L 354.6 390.04 
" style="fill: none; stroke: #000000; stroke-width: 0.8; stroke-linejoin: miter; stroke-linecap: square"/>
   </g>
   <g id="patch_16">
    <path d="M 56.09 229.44 
L 354.6 229.44 
" style="fill: none; stroke: #000000; stroke-width: 0.8; stroke-linejoin: miter; stroke-linecap: square"/>
   </g>
  </g>
  <g id="legend_1">
   <g id="line2d_39">
    <path d="M 627.623438 402.742188 
L 637.623438 402.742188 
L 647.623438 402.742188 
" style="fill: none; stroke: #1f77b4; stroke-width: 1.5; stroke-linecap: square"/>
   </g>
   <g id="text_40">
    <!-- true -->
    <g transform="translate(655.623438 406.242188) scale(0.1 -0.1)">
     <defs>
      <path id="DejaVuSans-72" d="M 2631 2963 
Q 2534 3019 2420 3045 
Q 2306 3072 2169 3072 
Q 1681 3072 1420 2755 
Q 1159 2438 1159 1844 
L 1159 0 
L 581 0 
L 581 3500 
L 1159 3500 
L 1159 2956 
Q 1341 3275 1631 3429 
Q 1922 3584 2338 3584 
Q 2397 3584 2469 3576 
Q 2541 3569 2628 3553 
L 2631 2963 
z
" transform="scale(0.015625)"/>
      <path id="DejaVuSans-75" d="M 544 1381 
L 544 3500 
L 1119 3500 
L 1119 1403 
Q 1119 906 1312 657 
Q 1506 409 1894 409 
Q 2359 409 2629 706 
Q 2900 1003 2900 1516 
L 2900 3500 
L 3475 3500 
L 3475 0 
L 2900 0 
L 2900 538 
Q 2691 219 2414 64 
Q 2138 -91 1772 -91 
Q 1169 -91 856 284 
Q 544 659 544 1381 
z
M 1991 3584 
L 1991 3584 
z
" transform="scale(0.015625)"/>
     </defs>
     <use xlink:href="#DejaVuSans-74"/>
     <use xlink:href="#DejaVuSans-72" transform="translate(39.208984 0)"/>
     <use xlink:href="#DejaVuSans-75" transform="translate(80.322266 0)"/>
     <use xlink:href="#DejaVuSans-65" transform="translate(143.701172 0)"/>
    </g>
   </g>
   <g id="line2d_40">
    <path d="M 627.623438 417.420313 
L 637.623438 417.420313 
L 647.623438 417.420313 
" style="fill: none; stroke-dasharray: 5.55,2.4; stroke-dashoffset: 0; stroke: #ff7f0e; stroke-width: 1.5"/>
   </g>
   <g id="text_41">
    <!-- predictions -->
    <g transform="translate(655.623438 420.920313) scale(0.1 -0.1)">
     <defs>
      <path id="DejaVuSans-64" d="M 2906 2969 
L 2906 4863 
L 3481 4863 
L 3481 0 
L 2906 0 
L 2906 525 
Q 2725 213 2448 61 
Q 2172 -91 1784 -91 
Q 1150 -91 751 415 
Q 353 922 353 1747 
Q 353 2572 751 3078 
Q 1150 3584 1784 3584 
Q 2172 3584 2448 3432 
Q 2725 3281 2906 2969 
z
M 947 1747 
Q 947 1113 1208 752 
Q 1469 391 1925 391 
Q 2381 391 2643 752 
Q 2906 1113 2906 1747 
Q 2906 2381 2643 2742 
Q 2381 3103 1925 3103 
Q 1469 3103 1208 2742 
Q 947 2381 947 1747 
z
" transform="scale(0.015625)"/>
      <path id="DejaVuSans-6f" d="M 1959 3097 
Q 1497 3097 1228 2736 
Q 959 2375 959 1747 
Q 959 1119 1226 758 
Q 1494 397 1959 397 
Q 2419 397 2687 759 
Q 2956 1122 2956 1747 
Q 2956 2369 2687 2733 
Q 2419 3097 1959 3097 
z
M 1959 3584 
Q 2709 3584 3137 3096 
Q 3566 2609 3566 1747 
Q 3566 888 3137 398 
Q 2709 -91 1959 -91 
Q 1206 -91 779 398 
Q 353 888 353 1747 
Q 353 2609 779 3096 
Q 1206 3584 1959 3584 
z
" transform="scale(0.015625)"/>
      <path id="DejaVuSans-6e" d="M 3513 2113 
L 3513 0 
L 2938 0 
L 2938 2094 
Q 2938 2591 2744 2837 
Q 2550 3084 2163 3084 
Q 1697 3084 1428 2787 
Q 1159 2491 1159 1978 
L 1159 0 
L 581 0 
L 581 3500 
L 1159 3500 
L 1159 2956 
Q 1366 3272 1645 3428 
Q 1925 3584 2291 3584 
Q 2894 3584 3203 3211 
Q 3513 2838 3513 2113 
z
" transform="scale(0.015625)"/>
     </defs>
     <use xlink:href="#DejaVuSans-70"/>
     <use xlink:href="#DejaVuSans-72" transform="translate(63.476562 0)"/>
     <use xlink:href="#DejaVuSans-65" transform="translate(102.339844 0)"/>
     <use xlink:href="#DejaVuSans-64" transform="translate(163.863281 0)"/>
     <use xlink:href="#DejaVuSans-69" transform="translate(227.339844 0)"/>
     <use xlink:href="#DejaVuSans-63" transform="translate(255.123047 0)"/>
     <use xlink:href="#DejaVuSans-74" transform="translate(310.103516 0)"/>
     <use xlink:href="#DejaVuSans-69" transform="translate(349.3125 0)"/>
     <use xlink:href="#DejaVuSans-6f" transform="translate(377.095703 0)"/>
     <use xlink:href="#DejaVuSans-6e" transform="translate(438.277344 0)"/>
     <use xlink:href="#DejaVuSans-73" transform="translate(501.65625 0)"/>
    </g>
   </g>
  </g>
 </g>
 <defs>
  <clipPath id="pc392737a8e">
   <rect x="56.09" y="26.88" width="298.51" height="160.6"/>
  </clipPath>
  <clipPath id="p8a35a44ca0">
   <rect x="410.69" y="26.88" width="298.51" height="160.6"/>
  </clipPath>
  <clipPath id="pbf775f3d9d">
   <rect x="56.09" y="229.44" width="298.51" height="160.6"/>
  </clipPath>
 </defs>
</svg>
