<?xml version="1.0" encoding="utf-8" standalone="no"?>
<!DOCTYPE svg PUBLIC "-//W3C//DTD SVG 1.1//EN"
  "http://www.w3.org/Graphics/SVG/1.1/DTD/svg11.dtd">
<svg xmlns:xlink="http://www.w3.org/1999/xlink" width="720pt" height="432pt" viewBox="0 0 720 432" xmlns="http://www.w3.org/2000/svg" version="1.1">
 <metadata>
  <rdf:RDF xmlns:dc="http://purl.org/dc/elements/1.1/" xmlns:cc="http://creativecommons.org/ns#" xmlns:rdf="http://www.w3.org/1999/02/22-rdf-syntax-ns#">
   <cc:Work>
    <dc:type rdf:resource="http://purl.org/dc/dcmitype/StillImage"/>
    <dc:date>2025-09-23T17:59:04.501264</dc:date>
    <dc:format>image/svg+xml</dc:format>
    <dc:creator>
     <cc:Agent>
      <dc:title>Matplotlib v3.10.3, https://matplotlib.org/</dc:title>
     </cc:Agent>
    </dc:creator>
   </cc:Work>
  </rdf:RDF>
 </metadata>
 <defs>
  <style type="text/css">*{stroke-linejoin: round; stroke-linecap: butt}</style>
 </defs>
 <g id="figure_1">
  <g id="patch_1">
   <path d="M 0 432 
L 720 432 
L 720 0 
L 0 0 
z
" style="fill: #ffffff"/>
  </g>
  <g id="axes_1">
   <g id="patch_2">
    <path d="M 47.72 187.48 
L 350.219857 187.48 
L 350.219857 26.88 
L 47.72 26.88 
z
" style="fill: #ffffff"/>
   </g>
   <g id="matplotlib.axis_1">
    <g id="xtick_1">
     <g id="line2d_1">
      <defs>
       <path id="m6e4a45ed55" d="M 0 0 
L 0 3.5 
" style="stroke: #000000; stroke-width: 0.8"/>
      </defs>
      <g>
       <use xlink:href="#m6e4a45ed55" x="61.469994" y="187.48" style="stroke: #000000; stroke-width: 0.8"/>
      </g>
     </g>
     <g id="text_1">
      <!-- 12 -->
      <g transform="translate(55.107494 202.078437) scale(0.1 -0.1)">
       <defs>
        <path id="DejaVuSans-31" d="M 794 531 
L 1825 531 
L 1825 4091 
L 703 3866 
L 703 4441 
L 1819 4666 
L 2450 4666 
L 2450 531 
L 3481 531 
L 3481 0 
L 794 0 
L 794 531 
z
" transform="scale(0.015625)"/>
        <path id="DejaVuSans-32" d="M 1228 531 
L 3431 531 
L 3431 0 
L 469 0 
L 469 531 
Q 828 903 1448 1529 
Q 2069 2156 2228 2338 
Q 2531 2678 2651 2914 
Q 2772 3150 2772 3378 
Q 2772 3750 2511 3984 
Q 2250 4219 1831 4219 
Q 1534 4219 1204 4116 
Q 875 4013 500 3803 
L 500 4441 
Q 881 4594 1212 4672 
Q 1544 4750 1819 4750 
Q 2544 4750 2975 4387 
Q 3406 4025 3406 3419 
Q 3406 3131 3298 2873 
Q 3191 2616 2906 2266 
Q 2828 2175 2409 1742 
Q 1991 1309 1228 531 
z
" transform="scale(0.015625)"/>
       </defs>
       <use xlink:href="#DejaVuSans-31"/>
       <use xlink:href="#DejaVuSans-32" transform="translate(63.623047 0)"/>
      </g>
     </g>
    </g>
    <g id="xtick_2">
     <g id="line2d_2">
      <g>
       <use xlink:href="#m6e4a45ed55" x="107.303305" y="187.48" style="stroke: #000000; stroke-width: 0.8"/>
      </g>
     </g>
     <g id="text_2">
      <!-- 13 -->
      <g transform="translate(100.940805 202.078437) scale(0.1 -0.1)">
       <defs>
        <path id="DejaVuSans-33" d="M 2597 2516 
Q 3050 2419 3304 2112 
Q 3559 1806 3559 1356 
Q 3559 666 3084 287 
Q 2609 -91 1734 -91 
Q 1441 -91 1130 -33 
Q 819 25 488 141 
L 488 750 
Q 750 597 1062 519 
Q 1375 441 1716 441 
Q 2309 441 2620 675 
Q 2931 909 2931 1356 
Q 2931 1769 2642 2001 
Q 2353 2234 1838 2234 
L 1294 2234 
L 1294 2753 
L 1863 2753 
Q 2328 2753 2575 2939 
Q 2822 3125 2822 3475 
Q 2822 3834 2567 4026 
Q 2313 4219 1838 4219 
Q 1578 4219 1281 4162 
Q 984 4106 628 3988 
L 628 4550 
Q 988 4650 1302 4700 
Q 1616 4750 1894 4750 
Q 2613 4750 3031 4423 
Q 3450 4097 3450 3541 
Q 3450 3153 3228 2886 
Q 3006 2619 2597 2516 
z
" transform="scale(0.015625)"/>
       </defs>
       <use xlink:href="#DejaVuSans-31"/>
       <use xlink:href="#DejaVuSans-33" transform="translate(63.623047 0)"/>
      </g>
     </g>
    </g>
    <g id="xtick_3">
     <g id="line2d_3">
      <g>
       <use xlink:href="#m6e4a45ed55" x="153.136617" y="187.48" style="stroke: #000000; stroke-width: 0.8"/>
      </g>
     </g>
     <g id="text_3">
      <!-- 14 -->
      <g transform="translate(146.774117 202.078437) scale(0.1 -0.1)">
       <defs>
        <path id="DejaVuSans-34" d="M 2419 4116 
L 825 1625 
L 2419 1625 
L 2419 4116 
z
M 2253 4666 
L 3047 4666 
L 3047 1625 
L 3713 1625 
L 3713 1100 
L 3047 1100 
L 3047 0 
L 2419 0 
L 2419 1100 
L 313 1100 
L 313 1709 
L 2253 4666 
z
" transform="scale(0.015625)"/>
       </defs>
       <use xlink:href="#DejaVuSans-31"/>
       <use xlink:href="#DejaVuSans-34" transform="translate(63.623047 0)"/>
      </g>
     </g>
    </g>
    <g id="xtick_4">
     <g id="line2d_4">
      <g>
       <use xlink:href="#m6e4a45ed55" x="198.969929" y="187.48" style="stroke: #000000; stroke-width: 0.8"/>
      </g>
     </g>
     <g id="text_4">
      <!-- 15 -->
      <g transform="translate(192.607429 202.078437) scale(0.1 -0.1)">
       <defs>
        <path id="DejaVuSans-35" d="M 691 4666 
L 3169 4666 
L 3169 4134 
L 1269 4134 
L 1269 2991 
Q 1406 3038 1543 3061 
Q 1681 3084 1819 3084 
Q 2600 3084 3056 2656 
Q 3513 2228 3513 1497 
Q 3513 744 3044 326 
Q 2575 -91 1722 -91 
Q 1428 -91 1123 -41 
Q 819 9 494 109 
L 494 744 
Q 775 591 1075 516 
Q 1375 441 1709 441 
Q 2250 441 2565 725 
Q 2881 1009 2881 1497 
Q 2881 1984 2565 2268 
Q 2250 2553 1709 2553 
Q 1456 2553 1204 2497 
Q 953 2441 691 2322 
L 691 4666 
z
" transform="scale(0.015625)"/>
       </defs>
       <use xlink:href="#DejaVuSans-31"/>
       <use xlink:href="#DejaVuSans-35" transform="translate(63.623047 0)"/>
      </g>
     </g>
    </g>
    <g id="xtick_5">
     <g id="line2d_5">
      <g>
       <use xlink:href="#m6e4a45ed55" x="244.80324" y="187.48" style="stroke: #000000; stroke-width: 0.8"/>
      </g>
     </g>
     <g id="text_5">
      <!-- 16 -->
      <g transform="translate(238.44074 202.078437) scale(0.1 -0.1)">
       <defs>
        <path id="DejaVuSans-36" d="M 2113 2584 
Q 1688 2584 1439 2293 
Q 1191 2003 1191 1497 
Q 1191 994 1439 701 
Q 1688 409 2113 409 
Q 2538 409 2786 701 
Q 3034 994 3034 1497 
Q 3034 2003 2786 2293 
Q 2538 2584 2113 2584 
z
M 3366 4563 
L 3366 3988 
Q 3128 4100 2886 4159 
Q 2644 4219 2406 4219 
Q 1781 4219 1451 3797 
Q 1122 3375 1075 2522 
Q 1259 2794 1537 2939 
Q 1816 3084 2150 3084 
Q 2853 3084 3261 2657 
Q 3669 2231 3669 1497 
Q 3669 778 3244 343 
Q 2819 -91 2113 -91 
Q 1303 -91 875 529 
Q 447 1150 447 2328 
Q 447 3434 972 4092 
Q 1497 4750 2381 4750 
Q 2619 4750 2861 4703 
Q 3103 4656 3366 4563 
z
" transform="scale(0.015625)"/>
       </defs>
       <use xlink:href="#DejaVuSans-31"/>
       <use xlink:href="#DejaVuSans-36" transform="translate(63.623047 0)"/>
      </g>
     </g>
    </g>
    <g id="xtick_6">
     <g id="line2d_6">
      <g>
       <use xlink:href="#m6e4a45ed55" x="290.636552" y="187.48" style="stroke: #000000; stroke-width: 0.8"/>
      </g>
     </g>
     <g id="text_6">
      <!-- 17 -->
      <g transform="translate(284.274052 202.078437) scale(0.1 -0.1)">
       <defs>
        <path id="DejaVuSans-37" d="M 525 4666 
L 3525 4666 
L 3525 4397 
L 1831 0 
L 1172 0 
L 2766 4134 
L 525 4134 
L 525 4666 
z
" transform="scale(0.015625)"/>
       </defs>
       <use xlink:href="#DejaVuSans-31"/>
       <use xlink:href="#DejaVuSans-37" transform="translate(63.623047 0)"/>
      </g>
     </g>
    </g>
    <g id="xtick_7">
     <g id="line2d_7">
      <g>
       <use xlink:href="#m6e4a45ed55" x="336.469864" y="187.48" style="stroke: #000000; stroke-width: 0.8"/>
      </g>
     </g>
     <g id="text_7">
      <!-- 18 -->
      <g transform="translate(330.107364 202.078437) scale(0.1 -0.1)">
       <defs>
        <path id="DejaVuSans-38" d="M 2034 2216 
Q 1584 2216 1326 1975 
Q 1069 1734 1069 1313 
Q 1069 891 1326 650 
Q 1584 409 2034 409 
Q 2484 409 2743 651 
Q 3003 894 3003 1313 
Q 3003 1734 2745 1975 
Q 2488 2216 2034 2216 
z
M 1403 2484 
Q 997 2584 770 2862 
Q 544 3141 544 3541 
Q 544 4100 942 4425 
Q 1341 4750 2034 4750 
Q 2731 4750 3128 4425 
Q 3525 4100 3525 3541 
Q 3525 3141 3298 2862 
Q 3072 2584 2669 2484 
Q 3125 2378 3379 2068 
Q 3634 1759 3634 1313 
Q 3634 634 3220 271 
Q 2806 -91 2034 -91 
Q 1263 -91 848 271 
Q 434 634 434 1313 
Q 434 1759 690 2068 
Q 947 2378 1403 2484 
z
M 1172 3481 
Q 1172 3119 1398 2916 
Q 1625 2713 2034 2713 
Q 2441 2713 2670 2916 
Q 2900 3119 2900 3481 
Q 2900 3844 2670 4047 
Q 2441 4250 2034 4250 
Q 1625 4250 1398 4047 
Q 1172 3844 1172 3481 
z
" transform="scale(0.015625)"/>
       </defs>
       <use xlink:href="#DejaVuSans-31"/>
       <use xlink:href="#DejaVuSans-38" transform="translate(63.623047 0)"/>
      </g>
     </g>
    </g>
    <g id="text_8">
     <!-- time t -->
     <g transform="translate(184.124616 215.756562) scale(0.1 -0.1)">
      <defs>
       <path id="DejaVuSans-74" d="M 1172 4494 
L 1172 3500 
L 2356 3500 
L 2356 3053 
L 1172 3053 
L 1172 1153 
Q 1172 725 1289 603 
Q 1406 481 1766 481 
L 2356 481 
L 2356 0 
L 1766 0 
Q 1100 0 847 248 
Q 594 497 594 1153 
L 594 3053 
L 172 3053 
L 172 3500 
L 594 3500 
L 594 4494 
L 1172 4494 
z
" transform="scale(0.015625)"/>
       <path id="DejaVuSans-69" d="M 603 3500 
L 1178 3500 
L 1178 0 
L 603 0 
L 603 3500 
z
M 603 4863 
L 1178 4863 
L 1178 4134 
L 603 4134 
L 603 4863 
z
" transform="scale(0.015625)"/>
       <path id="DejaVuSans-6d" d="M 3328 2828 
Q 3544 3216 3844 3400 
Q 4144 3584 4550 3584 
Q 5097 3584 5394 3201 
Q 5691 2819 5691 2113 
L 5691 0 
L 5113 0 
L 5113 2094 
Q 5113 2597 4934 2840 
Q 4756 3084 4391 3084 
Q 3944 3084 3684 2787 
Q 3425 2491 3425 1978 
L 3425 0 
L 2847 0 
L 2847 2094 
Q 2847 2600 2669 2842 
Q 2491 3084 2119 3084 
Q 1678 3084 1418 2786 
Q 1159 2488 1159 1978 
L 1159 0 
L 581 0 
L 581 3500 
L 1159 3500 
L 1159 2956 
Q 1356 3278 1631 3431 
Q 1906 3584 2284 3584 
Q 2666 3584 2933 3390 
Q 3200 3197 3328 2828 
z
" transform="scale(0.015625)"/>
       <path id="DejaVuSans-65" d="M 3597 1894 
L 3597 1613 
L 953 1613 
Q 991 1019 1311 708 
Q 1631 397 2203 397 
Q 2534 397 2845 478 
Q 3156 559 3463 722 
L 3463 178 
Q 3153 47 2828 -22 
Q 2503 -91 2169 -91 
Q 1331 -91 842 396 
Q 353 884 353 1716 
Q 353 2575 817 3079 
Q 1281 3584 2069 3584 
Q 2775 3584 3186 3129 
Q 3597 2675 3597 1894 
z
M 3022 2063 
Q 3016 2534 2758 2815 
Q 2500 3097 2075 3097 
Q 1594 3097 1305 2825 
Q 1016 2553 972 2059 
L 3022 2063 
z
" transform="scale(0.015625)"/>
       <path id="DejaVuSans-20" transform="scale(0.015625)"/>
      </defs>
      <use xlink:href="#DejaVuSans-74"/>
      <use xlink:href="#DejaVuSans-69" transform="translate(39.208984 0)"/>
      <use xlink:href="#DejaVuSans-6d" transform="translate(66.992188 0)"/>
      <use xlink:href="#DejaVuSans-65" transform="translate(164.404297 0)"/>
      <use xlink:href="#DejaVuSans-20" transform="translate(225.927734 0)"/>
      <use xlink:href="#DejaVuSans-74" transform="translate(257.714844 0)"/>
     </g>
    </g>
   </g>
   <g id="matplotlib.axis_2">
    <g id="ytick_1">
     <g id="line2d_8">
      <defs>
       <path id="mbc373e4ceb" d="M 0 0 
L -3.5 0 
" style="stroke: #000000; stroke-width: 0.8"/>
      </defs>
      <g>
       <use xlink:href="#mbc373e4ceb" x="47.72" y="171.440739" style="stroke: #000000; stroke-width: 0.8"/>
      </g>
     </g>
     <g id="text_9">
      <!-- 0.75 -->
      <g transform="translate(18.454375 175.239958) scale(0.1 -0.1)">
       <defs>
        <path id="DejaVuSans-30" d="M 2034 4250 
Q 1547 4250 1301 3770 
Q 1056 3291 1056 2328 
Q 1056 1369 1301 889 
Q 1547 409 2034 409 
Q 2525 409 2770 889 
Q 3016 1369 3016 2328 
Q 3016 3291 2770 3770 
Q 2525 4250 2034 4250 
z
M 2034 4750 
Q 2819 4750 3233 4129 
Q 3647 3509 3647 2328 
Q 3647 1150 3233 529 
Q 2819 -91 2034 -91 
Q 1250 -91 836 529 
Q 422 1150 422 2328 
Q 422 3509 836 4129 
Q 1250 4750 2034 4750 
z
" transform="scale(0.015625)"/>
        <path id="DejaVuSans-2e" d="M 684 794 
L 1344 794 
L 1344 0 
L 684 0 
L 684 794 
z
" transform="scale(0.015625)"/>
       </defs>
       <use xlink:href="#DejaVuSans-30"/>
       <use xlink:href="#DejaVuSans-2e" transform="translate(63.623047 0)"/>
       <use xlink:href="#DejaVuSans-37" transform="translate(95.410156 0)"/>
       <use xlink:href="#DejaVuSans-35" transform="translate(159.033203 0)"/>
      </g>
     </g>
    </g>
    <g id="ytick_2">
     <g id="line2d_9">
      <g>
       <use xlink:href="#mbc373e4ceb" x="47.72" y="150.994061" style="stroke: #000000; stroke-width: 0.8"/>
      </g>
     </g>
     <g id="text_10">
      <!-- 1.00 -->
      <g transform="translate(18.454375 154.79328) scale(0.1 -0.1)">
       <use xlink:href="#DejaVuSans-31"/>
       <use xlink:href="#DejaVuSans-2e" transform="translate(63.623047 0)"/>
       <use xlink:href="#DejaVuSans-30" transform="translate(95.410156 0)"/>
       <use xlink:href="#DejaVuSans-30" transform="translate(159.033203 0)"/>
      </g>
     </g>
    </g>
    <g id="ytick_3">
     <g id="line2d_10">
      <g>
       <use xlink:href="#mbc373e4ceb" x="47.72" y="130.547383" style="stroke: #000000; stroke-width: 0.8"/>
      </g>
     </g>
     <g id="text_11">
      <!-- 1.25 -->
      <g transform="translate(18.454375 134.346602) scale(0.1 -0.1)">
       <use xlink:href="#DejaVuSans-31"/>
       <use xlink:href="#DejaVuSans-2e" transform="translate(63.623047 0)"/>
       <use xlink:href="#DejaVuSans-32" transform="translate(95.410156 0)"/>
       <use xlink:href="#DejaVuSans-35" transform="translate(159.033203 0)"/>
      </g>
     </g>
    </g>
    <g id="ytick_4">
     <g id="line2d_11">
      <g>
       <use xlink:href="#mbc373e4ceb" x="47.72" y="110.100706" style="stroke: #000000; stroke-width: 0.8"/>
      </g>
     </g>
     <g id="text_12">
      <!-- 1.50 -->
      <g transform="translate(18.454375 113.899924) scale(0.1 -0.1)">
       <use xlink:href="#DejaVuSans-31"/>
       <use xlink:href="#DejaVuSans-2e" transform="translate(63.623047 0)"/>
       <use xlink:href="#DejaVuSans-35" transform="translate(95.410156 0)"/>
       <use xlink:href="#DejaVuSans-30" transform="translate(159.033203 0)"/>
      </g>
     </g>
    </g>
    <g id="ytick_5">
     <g id="line2d_12">
      <g>
       <use xlink:href="#mbc373e4ceb" x="47.72" y="89.654028" style="stroke: #000000; stroke-width: 0.8"/>
      </g>
     </g>
     <g id="text_13">
      <!-- 1.75 -->
      <g transform="translate(18.454375 93.453246) scale(0.1 -0.1)">
       <use xlink:href="#DejaVuSans-31"/>
       <use xlink:href="#DejaVuSans-2e" transform="translate(63.623047 0)"/>
       <use xlink:href="#DejaVuSans-37" transform="translate(95.410156 0)"/>
       <use xlink:href="#DejaVuSans-35" transform="translate(159.033203 0)"/>
      </g>
     </g>
    </g>
    <g id="ytick_6">
     <g id="line2d_13">
      <g>
       <use xlink:href="#mbc373e4ceb" x="47.72" y="69.20735" style="stroke: #000000; stroke-width: 0.8"/>
      </g>
     </g>
     <g id="text_14">
      <!-- 2.00 -->
      <g transform="translate(18.454375 73.006569) scale(0.1 -0.1)">
       <use xlink:href="#DejaVuSans-32"/>
       <use xlink:href="#DejaVuSans-2e" transform="translate(63.623047 0)"/>
       <use xlink:href="#DejaVuSans-30" transform="translate(95.410156 0)"/>
       <use xlink:href="#DejaVuSans-30" transform="translate(159.033203 0)"/>
      </g>
     </g>
    </g>
    <g id="ytick_7">
     <g id="line2d_14">
      <g>
       <use xlink:href="#mbc373e4ceb" x="47.72" y="48.760672" style="stroke: #000000; stroke-width: 0.8"/>
      </g>
     </g>
     <g id="text_15">
      <!-- 2.25 -->
      <g transform="translate(18.454375 52.559891) scale(0.1 -0.1)">
       <use xlink:href="#DejaVuSans-32"/>
       <use xlink:href="#DejaVuSans-2e" transform="translate(63.623047 0)"/>
       <use xlink:href="#DejaVuSans-32" transform="translate(95.410156 0)"/>
       <use xlink:href="#DejaVuSans-35" transform="translate(159.033203 0)"/>
      </g>
     </g>
    </g>
    <g id="ytick_8">
     <g id="line2d_15">
      <g>
       <use xlink:href="#mbc373e4ceb" x="47.72" y="28.313994" style="stroke: #000000; stroke-width: 0.8"/>
      </g>
     </g>
     <g id="text_16">
      <!-- 2.50 -->
      <g transform="translate(18.454375 32.113213) scale(0.1 -0.1)">
       <use xlink:href="#DejaVuSans-32"/>
       <use xlink:href="#DejaVuSans-2e" transform="translate(63.623047 0)"/>
       <use xlink:href="#DejaVuSans-35" transform="translate(95.410156 0)"/>
       <use xlink:href="#DejaVuSans-30" transform="translate(159.033203 0)"/>
      </g>
     </g>
    </g>
    <g id="text_17">
     <!-- x1 -->
     <g transform="translate(12.374688 113.320625) rotate(-90) scale(0.1 -0.1)">
      <defs>
       <path id="DejaVuSans-78" d="M 3513 3500 
L 2247 1797 
L 3578 0 
L 2900 0 
L 1881 1375 
L 863 0 
L 184 0 
L 1544 1831 
L 300 3500 
L 978 3500 
L 1906 2253 
L 2834 3500 
L 3513 3500 
z
" transform="scale(0.015625)"/>
      </defs>
      <use xlink:href="#DejaVuSans-78"/>
      <use xlink:href="#DejaVuSans-31" transform="translate(59.179688 0)"/>
     </g>
    </g>
   </g>
   <g id="line2d_16">
    <path d="M 61.469994 106.220833 
L 66.068654 117.203392 
L 69.747582 125.424512 
L 73.42651 133.037497 
L 76.185706 138.314609 
L 78.944902 143.208773 
L 81.704098 147.719175 
L 84.463294 151.851796 
L 87.22249 155.617489 
L 89.981686 159.030757 
L 92.740882 162.108576 
L 95.500078 164.869243 
L 98.259274 167.33121 
L 101.01847 169.512841 
L 103.777666 171.431979 
L 106.536862 173.105498 
L 109.296058 174.54908 
L 112.055254 175.777087 
L 114.81445 176.802562 
L 117.573646 177.637233 
L 120.332842 178.291492 
L 124.01177 178.898808 
L 127.690698 179.219713 
L 131.369626 179.268846 
L 135.048554 179.057588 
L 138.727482 178.594365 
L 142.40641 177.884826 
L 146.085338 176.93217 
L 149.764266 175.737443 
L 153.443194 174.299695 
L 157.122122 172.616185 
L 160.80105 170.682608 
L 164.479978 168.493415 
L 168.158906 166.041908 
L 171.837834 163.320472 
L 175.516762 160.320852 
L 179.19569 157.034721 
L 182.874618 153.453748 
L 186.553546 149.570076 
L 190.232475 145.37674 
L 193.911403 140.868789 
L 197.590331 136.043562 
L 201.269259 130.901525 
L 205.867919 124.036178 
L 210.466579 116.70596 
L 215.065239 108.95052 
L 220.583631 99.172584 
L 227.941487 85.618366 
L 237.138807 68.73053 
L 241.737467 60.80981 
L 245.416395 54.979181 
L 248.175591 51.010218 
L 250.934787 47.471293 
L 252.774251 45.389177 
L 254.613715 43.555118 
L 256.453179 41.991302 
L 258.292643 40.71952 
L 260.132107 39.760091 
L 261.971571 39.131867 
L 263.811035 38.851196 
L 265.650499 38.931595 
L 267.489963 39.38373 
L 269.329427 40.214723 
L 271.168891 41.427721 
L 273.008355 43.021544 
L 274.847819 44.990503 
L 276.687283 47.324399 
L 278.526747 50.008636 
L 280.366211 53.023796 
L 283.125407 58.11532 
L 285.884603 63.805777 
L 288.643799 69.987559 
L 292.322727 78.791404 
L 298.760851 94.954483 
L 305.198975 110.908214 
L 308.877903 119.513896 
L 312.556831 127.575867 
L 316.23576 135.011056 
L 318.994956 140.148809 
L 321.754152 144.902418 
L 324.513348 149.273639 
L 327.272544 153.270542 
L 330.03174 156.905601 
L 332.790936 160.194176 
L 335.550132 163.153827 
L 336.469864 164.070469 
L 336.469864 164.070469 
" clip-path="url(#p5f11ff41ff)" style="fill: none; stroke: #1f77b4; stroke-width: 1.5; stroke-linecap: square"/>
   </g>
   <g id="line2d_17">
    <path d="M 61.469994 106.220833 
L 65.148922 114.563393 
L 68.82785 122.368464 
L 72.506778 129.599612 
L 76.185706 136.251745 
L 79.864634 142.337784 
L 83.543562 147.878817 
L 87.22249 152.900068 
L 89.981686 156.340507 
L 92.740882 159.513551 
L 95.500078 162.428942 
L 98.259274 165.095826 
L 101.01847 167.522707 
L 103.777666 169.717335 
L 106.536862 171.686704 
L 109.296058 173.437188 
L 112.055254 174.974695 
L 114.81445 176.304572 
L 117.573646 177.431609 
L 120.332842 178.360138 
L 123.092038 179.09419 
L 125.851234 179.637382 
L 128.61043 179.992916 
L 131.369626 180.163677 
L 134.128822 180.152283 
L 136.888018 179.960983 
L 139.647214 179.591657 
L 142.40641 179.045916 
L 145.165606 178.325057 
L 148.844534 177.092973 
L 152.523462 175.552128 
L 156.20239 173.702366 
L 159.881318 171.541982 
L 163.560246 169.067742 
L 167.239174 166.274795 
L 170.918102 163.156592 
L 174.59703 159.70504 
L 178.275958 155.910951 
L 181.954886 151.764832 
L 185.633814 147.257728 
L 189.312743 142.383525 
L 192.991671 137.140854 
L 196.670599 131.535397 
L 200.349527 125.583124 
L 204.948187 117.698481 
L 210.466579 107.697714 
L 217.824435 93.782966 
L 227.941487 74.593548 
L 232.540147 66.270208 
L 236.219075 59.959645 
L 239.898003 54.062813 
L 242.657199 49.974279 
L 245.416395 46.224877 
L 248.175591 42.866369 
L 250.934787 39.95627 
L 252.774251 38.296611 
L 254.613715 36.884928 
L 256.453179 35.742932 
L 258.292643 34.895014 
L 260.132107 34.365845 
L 261.971571 34.18 
L 263.811035 34.361962 
L 265.650499 34.936118 
L 267.489963 35.924662 
L 269.329427 37.343595 
L 271.168891 39.201779 
L 273.008355 41.498169 
L 274.847819 44.221839 
L 276.687283 47.351133 
L 278.526747 50.852055 
L 281.285943 56.71071 
L 284.045139 63.155977 
L 287.724067 72.36364 
L 300.600315 105.257581 
L 304.279243 113.851912 
L 307.958171 121.870997 
L 311.637099 129.285711 
L 315.316028 136.096733 
L 318.994956 142.322258 
L 322.673884 147.987544 
L 326.352812 153.120785 
L 329.112008 156.638591 
L 331.871204 159.884227 
L 334.6304 162.86805 
L 336.469864 164.716568 
L 336.469864 164.716568 
" clip-path="url(#p5f11ff41ff)" style="fill: none; stroke-dasharray: 5.55,2.4; stroke-dashoffset: 0; stroke: #ff7f0e; stroke-width: 1.5"/>
   </g>
   <g id="patch_3">
    <path d="M 47.72 187.48 
L 47.72 26.88 
" style="fill: none; stroke: #000000; stroke-width: 0.8; stroke-linejoin: miter; stroke-linecap: square"/>
   </g>
   <g id="patch_4">
    <path d="M 350.219857 187.48 
L 350.219857 26.88 
" style="fill: none; stroke: #000000; stroke-width: 0.8; stroke-linejoin: miter; stroke-linecap: square"/>
   </g>
   <g id="patch_5">
    <path d="M 47.72 187.48 
L 350.219857 187.48 
" style="fill: none; stroke: #000000; stroke-width: 0.8; stroke-linejoin: miter; stroke-linecap: square"/>
   </g>
   <g id="patch_6">
    <path d="M 47.72 26.88 
L 350.219857 26.88 
" style="fill: none; stroke: #000000; stroke-width: 0.8; stroke-linejoin: miter; stroke-linecap: square"/>
   </g>
  </g>
  <g id="axes_2">
   <g id="patch_7">
    <path d="M 397.939857 187.48 
L 700.439714 187.48 
L 700.439714 26.88 
L 397.939857 26.88 
z
" style="fill: #ffffff"/>
   </g>
   <g id="matplotlib.axis_3">
    <g id="xtick_8">
     <g id="line2d_18">
      <g>
       <use xlink:href="#m6e4a45ed55" x="428.15078" y="187.48" style="stroke: #000000; stroke-width: 0.8"/>
      </g>
     </g>
     <g id="text_18">
      <!-- 0.75 -->
      <g transform="translate(417.017967 202.078437) scale(0.1 -0.1)">
       <use xlink:href="#DejaVuSans-30"/>
       <use xlink:href="#DejaVuSans-2e" transform="translate(63.623047 0)"/>
       <use xlink:href="#DejaVuSans-37" transform="translate(95.410156 0)"/>
       <use xlink:href="#DejaVuSans-35" transform="translate(159.033203 0)"/>
      </g>
     </g>
    </g>
    <g id="xtick_9">
     <g id="line2d_19">
      <g>
       <use xlink:href="#m6e4a45ed55" x="466.66334" y="187.48" style="stroke: #000000; stroke-width: 0.8"/>
      </g>
     </g>
     <g id="text_19">
      <!-- 1.00 -->
      <g transform="translate(455.530527 202.078437) scale(0.1 -0.1)">
       <use xlink:href="#DejaVuSans-31"/>
       <use xlink:href="#DejaVuSans-2e" transform="translate(63.623047 0)"/>
       <use xlink:href="#DejaVuSans-30" transform="translate(95.410156 0)"/>
       <use xlink:href="#DejaVuSans-30" transform="translate(159.033203 0)"/>
      </g>
     </g>
    </g>
    <g id="xtick_10">
     <g id="line2d_20">
      <g>
       <use xlink:href="#m6e4a45ed55" x="505.1759" y="187.48" style="stroke: #000000; stroke-width: 0.8"/>
      </g>
     </g>
     <g id="text_20">
      <!-- 1.25 -->
      <g transform="translate(494.043087 202.078437) scale(0.1 -0.1)">
       <use xlink:href="#DejaVuSans-31"/>
       <use xlink:href="#DejaVuSans-2e" transform="translate(63.623047 0)"/>
       <use xlink:href="#DejaVuSans-32" transform="translate(95.410156 0)"/>
       <use xlink:href="#DejaVuSans-35" transform="translate(159.033203 0)"/>
      </g>
     </g>
    </g>
    <g id="xtick_11">
     <g id="line2d_21">
      <g>
       <use xlink:href="#m6e4a45ed55" x="543.688459" y="187.48" style="stroke: #000000; stroke-width: 0.8"/>
      </g>
     </g>
     <g id="text_21">
      <!-- 1.50 -->
      <g transform="translate(532.555647 202.078437) scale(0.1 -0.1)">
       <use xlink:href="#DejaVuSans-31"/>
       <use xlink:href="#DejaVuSans-2e" transform="translate(63.623047 0)"/>
       <use xlink:href="#DejaVuSans-35" transform="translate(95.410156 0)"/>
       <use xlink:href="#DejaVuSans-30" transform="translate(159.033203 0)"/>
      </g>
     </g>
    </g>
    <g id="xtick_12">
     <g id="line2d_22">
      <g>
       <use xlink:href="#m6e4a45ed55" x="582.201019" y="187.48" style="stroke: #000000; stroke-width: 0.8"/>
      </g>
     </g>
     <g id="text_22">
      <!-- 1.75 -->
      <g transform="translate(571.068207 202.078437) scale(0.1 -0.1)">
       <use xlink:href="#DejaVuSans-31"/>
       <use xlink:href="#DejaVuSans-2e" transform="translate(63.623047 0)"/>
       <use xlink:href="#DejaVuSans-37" transform="translate(95.410156 0)"/>
       <use xlink:href="#DejaVuSans-35" transform="translate(159.033203 0)"/>
      </g>
     </g>
    </g>
    <g id="xtick_13">
     <g id="line2d_23">
      <g>
       <use xlink:href="#m6e4a45ed55" x="620.713579" y="187.48" style="stroke: #000000; stroke-width: 0.8"/>
      </g>
     </g>
     <g id="text_23">
      <!-- 2.00 -->
      <g transform="translate(609.580767 202.078437) scale(0.1 -0.1)">
       <use xlink:href="#DejaVuSans-32"/>
       <use xlink:href="#DejaVuSans-2e" transform="translate(63.623047 0)"/>
       <use xlink:href="#DejaVuSans-30" transform="translate(95.410156 0)"/>
       <use xlink:href="#DejaVuSans-30" transform="translate(159.033203 0)"/>
      </g>
     </g>
    </g>
    <g id="xtick_14">
     <g id="line2d_24">
      <g>
       <use xlink:href="#m6e4a45ed55" x="659.226139" y="187.48" style="stroke: #000000; stroke-width: 0.8"/>
      </g>
     </g>
     <g id="text_24">
      <!-- 2.25 -->
      <g transform="translate(648.093326 202.078437) scale(0.1 -0.1)">
       <use xlink:href="#DejaVuSans-32"/>
       <use xlink:href="#DejaVuSans-2e" transform="translate(63.623047 0)"/>
       <use xlink:href="#DejaVuSans-32" transform="translate(95.410156 0)"/>
       <use xlink:href="#DejaVuSans-35" transform="translate(159.033203 0)"/>
      </g>
     </g>
    </g>
    <g id="xtick_15">
     <g id="line2d_25">
      <g>
       <use xlink:href="#m6e4a45ed55" x="697.738699" y="187.48" style="stroke: #000000; stroke-width: 0.8"/>
      </g>
     </g>
     <g id="text_25">
      <!-- 2.50 -->
      <g transform="translate(686.605886 202.078437) scale(0.1 -0.1)">
       <use xlink:href="#DejaVuSans-32"/>
       <use xlink:href="#DejaVuSans-2e" transform="translate(63.623047 0)"/>
       <use xlink:href="#DejaVuSans-35" transform="translate(95.410156 0)"/>
       <use xlink:href="#DejaVuSans-30" transform="translate(159.033203 0)"/>
      </g>
     </g>
    </g>
    <g id="text_26">
     <!-- x1 -->
     <g transform="translate(543.049161 215.756562) scale(0.1 -0.1)">
      <use xlink:href="#DejaVuSans-78"/>
      <use xlink:href="#DejaVuSans-31" transform="translate(59.179688 0)"/>
     </g>
    </g>
   </g>
   <g id="matplotlib.axis_4">
    <g id="ytick_9">
     <g id="line2d_26">
      <g>
       <use xlink:href="#mbc373e4ceb" x="397.939857" y="165.537227" style="stroke: #000000; stroke-width: 0.8"/>
      </g>
     </g>
     <g id="text_27">
      <!-- 1.00 -->
      <g transform="translate(368.674232 169.336446) scale(0.1 -0.1)">
       <use xlink:href="#DejaVuSans-31"/>
       <use xlink:href="#DejaVuSans-2e" transform="translate(63.623047 0)"/>
       <use xlink:href="#DejaVuSans-30" transform="translate(95.410156 0)"/>
       <use xlink:href="#DejaVuSans-30" transform="translate(159.033203 0)"/>
      </g>
     </g>
    </g>
    <g id="ytick_10">
     <g id="line2d_27">
      <g>
       <use xlink:href="#mbc373e4ceb" x="397.939857" y="143.15881" style="stroke: #000000; stroke-width: 0.8"/>
      </g>
     </g>
     <g id="text_28">
      <!-- 1.25 -->
      <g transform="translate(368.674232 146.958029) scale(0.1 -0.1)">
       <use xlink:href="#DejaVuSans-31"/>
       <use xlink:href="#DejaVuSans-2e" transform="translate(63.623047 0)"/>
       <use xlink:href="#DejaVuSans-32" transform="translate(95.410156 0)"/>
       <use xlink:href="#DejaVuSans-35" transform="translate(159.033203 0)"/>
      </g>
     </g>
    </g>
    <g id="ytick_11">
     <g id="line2d_28">
      <g>
       <use xlink:href="#mbc373e4ceb" x="397.939857" y="120.780393" style="stroke: #000000; stroke-width: 0.8"/>
      </g>
     </g>
     <g id="text_29">
      <!-- 1.50 -->
      <g transform="translate(368.674232 124.579612) scale(0.1 -0.1)">
       <use xlink:href="#DejaVuSans-31"/>
       <use xlink:href="#DejaVuSans-2e" transform="translate(63.623047 0)"/>
       <use xlink:href="#DejaVuSans-35" transform="translate(95.410156 0)"/>
       <use xlink:href="#DejaVuSans-30" transform="translate(159.033203 0)"/>
      </g>
     </g>
    </g>
    <g id="ytick_12">
     <g id="line2d_29">
      <g>
       <use xlink:href="#mbc373e4ceb" x="397.939857" y="98.401977" style="stroke: #000000; stroke-width: 0.8"/>
      </g>
     </g>
     <g id="text_30">
      <!-- 1.75 -->
      <g transform="translate(368.674232 102.201195) scale(0.1 -0.1)">
       <use xlink:href="#DejaVuSans-31"/>
       <use xlink:href="#DejaVuSans-2e" transform="translate(63.623047 0)"/>
       <use xlink:href="#DejaVuSans-37" transform="translate(95.410156 0)"/>
       <use xlink:href="#DejaVuSans-35" transform="translate(159.033203 0)"/>
      </g>
     </g>
    </g>
    <g id="ytick_13">
     <g id="line2d_30">
      <g>
       <use xlink:href="#mbc373e4ceb" x="397.939857" y="76.02356" style="stroke: #000000; stroke-width: 0.8"/>
      </g>
     </g>
     <g id="text_31">
      <!-- 2.00 -->
      <g transform="translate(368.674232 79.822779) scale(0.1 -0.1)">
       <use xlink:href="#DejaVuSans-32"/>
       <use xlink:href="#DejaVuSans-2e" transform="translate(63.623047 0)"/>
       <use xlink:href="#DejaVuSans-30" transform="translate(95.410156 0)"/>
       <use xlink:href="#DejaVuSans-30" transform="translate(159.033203 0)"/>
      </g>
     </g>
    </g>
    <g id="ytick_14">
     <g id="line2d_31">
      <g>
       <use xlink:href="#mbc373e4ceb" x="397.939857" y="53.645143" style="stroke: #000000; stroke-width: 0.8"/>
      </g>
     </g>
     <g id="text_32">
      <!-- 2.25 -->
      <g transform="translate(368.674232 57.444362) scale(0.1 -0.1)">
       <use xlink:href="#DejaVuSans-32"/>
       <use xlink:href="#DejaVuSans-2e" transform="translate(63.623047 0)"/>
       <use xlink:href="#DejaVuSans-32" transform="translate(95.410156 0)"/>
       <use xlink:href="#DejaVuSans-35" transform="translate(159.033203 0)"/>
      </g>
     </g>
    </g>
    <g id="ytick_15">
     <g id="line2d_32">
      <g>
       <use xlink:href="#mbc373e4ceb" x="397.939857" y="31.266726" style="stroke: #000000; stroke-width: 0.8"/>
      </g>
     </g>
     <g id="text_33">
      <!-- 2.50 -->
      <g transform="translate(368.674232 35.065945) scale(0.1 -0.1)">
       <use xlink:href="#DejaVuSans-32"/>
       <use xlink:href="#DejaVuSans-2e" transform="translate(63.623047 0)"/>
       <use xlink:href="#DejaVuSans-35" transform="translate(95.410156 0)"/>
       <use xlink:href="#DejaVuSans-30" transform="translate(159.033203 0)"/>
      </g>
     </g>
    </g>
    <g id="text_34">
     <!-- x2 -->
     <g transform="translate(362.594545 113.320625) rotate(-90) scale(0.1 -0.1)">
      <use xlink:href="#DejaVuSans-78"/>
      <use xlink:href="#DejaVuSans-32" transform="translate(59.179688 0)"/>
     </g>
    </g>
   </g>
   <g id="line2d_33">
    <path d="M 550.996436 41.157904 
L 542.571328 39.952795 
L 534.341303 39.092559 
L 526.339796 38.572527 
L 518.594551 38.385041 
L 511.12769 38.519536 
L 503.956418 38.963286 
L 497.093009 39.701488 
L 490.545859 40.718121 
L 484.319673 41.996114 
L 478.415506 43.517371 
L 472.831786 45.263367 
L 467.564479 47.215305 
L 462.607859 49.354551 
L 457.954832 51.662818 
L 453.596933 54.122168 
L 449.524788 56.715187 
L 445.728476 59.425161 
L 442.197661 62.236105 
L 438.922036 65.132916 
L 435.891327 68.101377 
L 433.095291 71.128152 
L 430.523825 74.200777 
L 428.16728 77.307656 
L 426.016301 80.438076 
L 424.062012 83.582125 
L 422.296031 86.730689 
L 420.710464 89.875453 
L 418.65434 94.569242 
L 416.964684 99.215179 
L 415.621103 103.793865 
L 414.605604 108.288695 
L 413.90255 112.685666 
L 413.498609 116.973291 
L 413.382479 121.141987 
L 413.544836 125.183964 
L 413.978117 129.092885 
L 414.67649 132.863828 
L 415.635745 136.493095 
L 416.853114 139.977884 
L 418.327168 143.316195 
L 420.057677 146.506664 
L 422.045603 149.548552 
L 424.292946 152.441543 
L 426.802731 155.185646 
L 429.578765 157.781061 
L 432.62558 160.228124 
L 435.948418 162.527302 
L 439.553035 164.679054 
L 443.445795 166.683765 
L 447.633292 168.541665 
L 452.122136 170.252748 
L 456.918961 171.816777 
L 462.030371 173.233268 
L 467.462495 174.501309 
L 473.221113 175.619578 
L 479.310829 176.586217 
L 485.734904 177.398801 
L 492.495262 178.054336 
L 499.591905 178.549149 
L 507.022626 178.878801 
L 514.782078 179.038011 
L 522.86118 179.020584 
L 531.247062 178.819404 
L 539.922025 178.426326 
L 548.863171 177.832089 
L 558.040665 177.026281 
L 567.417325 175.997324 
L 576.948444 174.73248 
L 586.580192 173.217809 
L 596.248863 171.43822 
L 605.880001 169.377811 
L 612.238219 167.839988 
L 618.514095 166.164939 
L 624.677058 164.347503 
L 630.694252 162.382537 
L 636.530856 160.265184 
L 642.150088 157.990873 
L 647.513199 155.555321 
L 652.579796 152.954666 
L 657.30816 150.185748 
L 661.654763 147.245927 
L 665.576555 144.133887 
L 667.364866 142.513252 
L 669.031116 140.849697 
L 670.570102 139.143446 
L 671.976659 137.39481 
L 673.245662 135.60419 
L 674.372137 133.772095 
L 675.351555 131.899244 
L 676.17928 129.986421 
L 676.850959 128.034563 
L 677.362579 126.044762 
L 677.710456 124.018275 
L 677.89124 121.956515 
L 677.901917 119.861057 
L 677.739804 117.733634 
L 677.402553 115.57614 
L 676.88818 113.390627 
L 676.195314 111.179322 
L 675.322953 108.944673 
L 674.270577 106.68929 
L 673.038198 104.415933 
L 671.626359 102.127514 
L 670.036135 99.827096 
L 668.26913 97.517895 
L 666.327481 95.203276 
L 664.213856 92.886757 
L 661.931446 90.572001 
L 659.483882 88.262679 
L 656.875523 85.962693 
L 651.196285 81.406733 
L 644.93745 76.936215 
L 638.149118 72.583368 
L 630.88777 68.380549 
L 623.214705 64.359493 
L 615.195002 60.550559 
L 606.895399 56.981978 
L 598.382417 53.679109 
L 589.72236 50.664443 
L 580.980201 47.957313 
L 572.21729 45.573066 
L 563.491128 43.523276 
L 554.854082 41.81565 
L 546.353371 40.45403 
L 538.030875 39.438572 
L 529.922433 38.765836 
L 522.058284 38.429267 
L 514.463252 38.419736 
L 507.156746 38.725542 
L 500.153175 39.332767 
L 493.462581 40.225871 
L 487.09103 41.388008 
L 481.041395 42.801617 
L 475.313354 44.44843 
L 469.90386 46.309721 
L 464.807913 48.366772 
L 460.018758 50.60098 
L 455.528595 52.994248 
L 451.328595 55.528988 
L 447.408974 58.188146 
L 443.759681 60.955446 
L 442.033132 62.374762 
L 442.033132 62.374762 
" clip-path="url(#p073a058c80)" style="fill: none; stroke: #1f77b4; stroke-width: 1.5; stroke-linecap: square"/>
   </g>
   <g id="line2d_34">
    <path d="M 550.996436 41.157904 
L 543.019963 40.156722 
L 535.282716 39.495337 
L 527.799689 39.159237 
L 520.581391 39.132625 
L 513.634344 39.398743 
L 506.961085 39.939871 
L 500.560862 40.737723 
L 494.431389 41.77464 
L 488.568644 43.033273 
L 482.967964 44.496959 
L 477.624074 46.14974 
L 472.531091 47.976362 
L 467.682867 49.962316 
L 463.073261 52.09396 
L 458.696173 54.358364 
L 454.545746 56.743261 
L 450.616363 59.237045 
L 446.902646 61.828775 
L 443.399446 64.508102 
L 440.101809 67.265162 
L 437.005058 70.090596 
L 434.104799 72.975455 
L 431.396915 75.911201 
L 428.877577 78.889703 
L 426.543205 81.903219 
L 424.390347 84.944284 
L 422.415759 88.005751 
L 420.616405 91.080762 
L 418.989455 94.162748 
L 417.532289 97.245423 
L 416.242479 100.322786 
L 414.616445 104.916312 
L 413.354364 109.466544 
L 412.449684 113.956394 
L 411.896609 118.370094 
L 411.720596 121.263026 
L 411.697057 124.111627 
L 411.824702 126.912156 
L 412.102382 129.661135 
L 412.529085 132.355343 
L 413.103892 134.991787 
L 413.825967 137.56769 
L 414.694624 140.080514 
L 415.709331 142.527953 
L 416.869712 144.907937 
L 418.175534 147.218615 
L 419.626669 149.458291 
L 421.22314 151.625456 
L 422.965159 153.718779 
L 424.85313 155.737108 
L 426.887643 157.67947 
L 429.069455 159.545014 
L 431.399502 161.33298 
L 433.878927 163.042726 
L 436.509076 164.673713 
L 440.740352 166.971613 
L 445.320254 169.090207 
L 450.255683 171.028474 
L 455.554012 172.785503 
L 461.222836 174.360444 
L 467.269569 175.752252 
L 473.70095 176.959511 
L 480.521437 177.980288 
L 487.732784 178.812054 
L 495.333001 179.451427 
L 503.314916 179.894105 
L 511.66472 180.134797 
L 520.361731 180.167262 
L 529.377588 179.98437 
L 538.67635 179.578422 
L 548.21464 178.941329 
L 557.942441 178.064865 
L 567.804234 176.941028 
L 577.740398 175.562309 
L 587.687645 173.921771 
L 597.5802 172.013149 
L 607.350614 169.830866 
L 616.929571 167.36986 
L 623.174112 165.57207 
L 629.280321 163.647072 
L 635.22632 161.593606 
L 640.989438 159.410394 
L 646.546035 157.096105 
L 651.871498 154.649362 
L 656.940238 152.068735 
L 661.725194 149.352713 
L 666.198025 146.499589 
L 670.328417 143.507581 
L 674.083677 140.374868 
L 677.428737 137.099592 
L 678.935834 135.407901 
L 680.326154 133.679855 
L 681.594825 131.91532 
L 682.736663 130.114159 
L 683.745844 128.276018 
L 684.616544 126.400651 
L 685.342949 124.487927 
L 685.919255 122.537832 
L 686.339671 120.550468 
L 686.598416 118.526051 
L 686.689721 116.464914 
L 686.607826 114.367504 
L 686.346985 112.234386 
L 685.90146 110.066239 
L 685.265526 107.863858 
L 684.434111 105.628347 
L 683.403544 103.361425 
L 682.170032 101.064931 
L 680.730897 98.741118 
L 679.084632 96.392668 
L 677.230896 94.022695 
L 675.17052 91.634737 
L 672.905505 89.232767 
L 670.439017 86.821182 
L 667.775307 84.404733 
L 664.920056 81.988449 
L 661.881092 79.578143 
L 658.666978 77.179724 
L 651.750623 72.442273 
L 644.251761 67.823744 
L 636.260965 63.372097 
L 627.875708 59.134311 
L 619.192358 55.152446 
L 610.304831 51.463501 
L 601.300132 48.09793 
L 592.258253 45.079605 
L 583.251851 42.425843 
L 574.342759 40.146676 
L 565.582365 38.245251 
L 557.013032 36.719719 
L 548.668081 35.563347 
L 540.571902 34.764611 
L 532.741906 34.309094 
L 525.188867 34.18 
L 517.919361 34.359505 
L 510.936398 34.8292 
L 504.239427 35.57009 
L 497.825515 36.563227 
L 491.690177 37.790372 
L 485.827845 39.233893 
L 480.232554 40.876974 
L 474.897944 42.703615 
L 469.817262 44.698638 
L 464.983714 46.847685 
L 460.390628 49.137307 
L 456.031525 51.554781 
L 451.900232 54.088049 
L 447.990893 56.725719 
L 444.297961 59.457067 
L 440.816164 62.271946 
L 440.816164 62.271946 
" clip-path="url(#p073a058c80)" style="fill: none; stroke-dasharray: 5.55,2.4; stroke-dashoffset: 0; stroke: #ff7f0e; stroke-width: 1.5"/>
   </g>
   <g id="patch_8">
    <path d="M 397.939857 187.48 
L 397.939857 26.88 
" style="fill: none; stroke: #000000; stroke-width: 0.8; stroke-linejoin: miter; stroke-linecap: square"/>
   </g>
   <g id="patch_9">
    <path d="M 700.439714 187.48 
L 700.439714 26.88 
" style="fill: none; stroke: #000000; stroke-width: 0.8; stroke-linejoin: miter; stroke-linecap: square"/>
   </g>
   <g id="patch_10">
    <path d="M 397.939857 187.48 
L 700.439714 187.48 
" style="fill: none; stroke: #000000; stroke-width: 0.8; stroke-linejoin: miter; stroke-linecap: square"/>
   </g>
   <g id="patch_11">
    <path d="M 397.939857 26.88 
L 700.439714 26.88 
" style="fill: none; stroke: #000000; stroke-width: 0.8; stroke-linejoin: miter; stroke-linecap: square"/>
   </g>
   <g id="text_35">
    <!-- Phase space -->
    <g transform="translate(511.765723 20.88) scale(0.12 -0.12)">
     <defs>
      <path id="DejaVuSans-50" d="M 1259 4147 
L 1259 2394 
L 2053 2394 
Q 2494 2394 2734 2622 
Q 2975 2850 2975 3272 
Q 2975 3691 2734 3919 
Q 2494 4147 2053 4147 
L 1259 4147 
z
M 628 4666 
L 2053 4666 
Q 2838 4666 3239 4311 
Q 3641 3956 3641 3272 
Q 3641 2581 3239 2228 
Q 2838 1875 2053 1875 
L 1259 1875 
L 1259 0 
L 628 0 
L 628 4666 
z
" transform="scale(0.015625)"/>
      <path id="DejaVuSans-68" d="M 3513 2113 
L 3513 0 
L 2938 0 
L 2938 2094 
Q 2938 2591 2744 2837 
Q 2550 3084 2163 3084 
Q 1697 3084 1428 2787 
Q 1159 2491 1159 1978 
L 1159 0 
L 581 0 
L 581 4863 
L 1159 4863 
L 1159 2956 
Q 1366 3272 1645 3428 
Q 1925 3584 2291 3584 
Q 2894 3584 3203 3211 
Q 3513 2838 3513 2113 
z
" transform="scale(0.015625)"/>
      <path id="DejaVuSans-61" d="M 2194 1759 
Q 1497 1759 1228 1600 
Q 959 1441 959 1056 
Q 959 750 1161 570 
Q 1363 391 1709 391 
Q 2188 391 2477 730 
Q 2766 1069 2766 1631 
L 2766 1759 
L 2194 1759 
z
M 3341 1997 
L 3341 0 
L 2766 0 
L 2766 531 
Q 2569 213 2275 61 
Q 1981 -91 1556 -91 
Q 1019 -91 701 211 
Q 384 513 384 1019 
Q 384 1609 779 1909 
Q 1175 2209 1959 2209 
L 2766 2209 
L 2766 2266 
Q 2766 2663 2505 2880 
Q 2244 3097 1772 3097 
Q 1472 3097 1187 3025 
Q 903 2953 641 2809 
L 641 3341 
Q 956 3463 1253 3523 
Q 1550 3584 1831 3584 
Q 2591 3584 2966 3190 
Q 3341 2797 3341 1997 
z
" transform="scale(0.015625)"/>
      <path id="DejaVuSans-73" d="M 2834 3397 
L 2834 2853 
Q 2591 2978 2328 3040 
Q 2066 3103 1784 3103 
Q 1356 3103 1142 2972 
Q 928 2841 928 2578 
Q 928 2378 1081 2264 
Q 1234 2150 1697 2047 
L 1894 2003 
Q 2506 1872 2764 1633 
Q 3022 1394 3022 966 
Q 3022 478 2636 193 
Q 2250 -91 1575 -91 
Q 1294 -91 989 -36 
Q 684 19 347 128 
L 347 722 
Q 666 556 975 473 
Q 1284 391 1588 391 
Q 1994 391 2212 530 
Q 2431 669 2431 922 
Q 2431 1156 2273 1281 
Q 2116 1406 1581 1522 
L 1381 1569 
Q 847 1681 609 1914 
Q 372 2147 372 2553 
Q 372 3047 722 3315 
Q 1072 3584 1716 3584 
Q 2034 3584 2315 3537 
Q 2597 3491 2834 3397 
z
" transform="scale(0.015625)"/>
      <path id="DejaVuSans-70" d="M 1159 525 
L 1159 -1331 
L 581 -1331 
L 581 3500 
L 1159 3500 
L 1159 2969 
Q 1341 3281 1617 3432 
Q 1894 3584 2278 3584 
Q 2916 3584 3314 3078 
Q 3713 2572 3713 1747 
Q 3713 922 3314 415 
Q 2916 -91 2278 -91 
Q 1894 -91 1617 61 
Q 1341 213 1159 525 
z
M 3116 1747 
Q 3116 2381 2855 2742 
Q 2594 3103 2138 3103 
Q 1681 3103 1420 2742 
Q 1159 2381 1159 1747 
Q 1159 1113 1420 752 
Q 1681 391 2138 391 
Q 2594 391 2855 752 
Q 3116 1113 3116 1747 
z
" transform="scale(0.015625)"/>
      <path id="DejaVuSans-63" d="M 3122 3366 
L 3122 2828 
Q 2878 2963 2633 3030 
Q 2388 3097 2138 3097 
Q 1578 3097 1268 2742 
Q 959 2388 959 1747 
Q 959 1106 1268 751 
Q 1578 397 2138 397 
Q 2388 397 2633 464 
Q 2878 531 3122 666 
L 3122 134 
Q 2881 22 2623 -34 
Q 2366 -91 2075 -91 
Q 1284 -91 818 406 
Q 353 903 353 1747 
Q 353 2603 823 3093 
Q 1294 3584 2113 3584 
Q 2378 3584 2631 3529 
Q 2884 3475 3122 3366 
z
" transform="scale(0.015625)"/>
     </defs>
     <use xlink:href="#DejaVuSans-50"/>
     <use xlink:href="#DejaVuSans-68" transform="translate(60.302734 0)"/>
     <use xlink:href="#DejaVuSans-61" transform="translate(123.681641 0)"/>
     <use xlink:href="#DejaVuSans-73" transform="translate(184.960938 0)"/>
     <use xlink:href="#DejaVuSans-65" transform="translate(237.060547 0)"/>
     <use xlink:href="#DejaVuSans-20" transform="translate(298.583984 0)"/>
     <use xlink:href="#DejaVuSans-73" transform="translate(330.371094 0)"/>
     <use xlink:href="#DejaVuSans-70" transform="translate(382.470703 0)"/>
     <use xlink:href="#DejaVuSans-61" transform="translate(445.947266 0)"/>
     <use xlink:href="#DejaVuSans-63" transform="translate(507.226562 0)"/>
     <use xlink:href="#DejaVuSans-65" transform="translate(562.207031 0)"/>
    </g>
   </g>
  </g>
  <g id="axes_3">
   <g id="patch_12">
    <path d="M 47.72 390.04 
L 350.219857 390.04 
L 350.219857 229.44 
L 47.72 229.44 
z
" style="fill: #ffffff"/>
   </g>
   <g id="matplotlib.axis_5">
    <g id="xtick_16">
     <g id="line2d_35">
      <g>
       <use xlink:href="#m6e4a45ed55" x="61.469994" y="390.04" style="stroke: #000000; stroke-width: 0.8"/>
      </g>
     </g>
     <g id="text_36">
      <!-- 12 -->
      <g transform="translate(55.107494 404.638437) scale(0.1 -0.1)">
       <use xlink:href="#DejaVuSans-31"/>
       <use xlink:href="#DejaVuSans-32" transform="translate(63.623047 0)"/>
      </g>
     </g>
    </g>
    <g id="xtick_17">
     <g id="line2d_36">
      <g>
       <use xlink:href="#m6e4a45ed55" x="107.303305" y="390.04" style="stroke: #000000; stroke-width: 0.8"/>
      </g>
     </g>
     <g id="text_37">
      <!-- 13 -->
      <g transform="translate(100.940805 404.638437) scale(0.1 -0.1)">
       <use xlink:href="#DejaVuSans-31"/>
       <use xlink:href="#DejaVuSans-33" transform="translate(63.623047 0)"/>
      </g>
     </g>
    </g>
    <g id="xtick_18">
     <g id="line2d_37">
      <g>
       <use xlink:href="#m6e4a45ed55" x="153.136617" y="390.04" style="stroke: #000000; stroke-width: 0.8"/>
      </g>
     </g>
     <g id="text_38">
      <!-- 14 -->
      <g transform="translate(146.774117 404.638437) scale(0.1 -0.1)">
       <use xlink:href="#DejaVuSans-31"/>
       <use xlink:href="#DejaVuSans-34" transform="translate(63.623047 0)"/>
      </g>
     </g>
    </g>
    <g id="xtick_19">
     <g id="line2d_38">
      <g>
       <use xlink:href="#m6e4a45ed55" x="198.969929" y="390.04" style="stroke: #000000; stroke-width: 0.8"/>
      </g>
     </g>
     <g id="text_39">
      <!-- 15 -->
      <g transform="translate(192.607429 404.638437) scale(0.1 -0.1)">
       <use xlink:href="#DejaVuSans-31"/>
       <use xlink:href="#DejaVuSans-35" transform="translate(63.623047 0)"/>
      </g>
     </g>
    </g>
    <g id="xtick_20">
     <g id="line2d_39">
      <g>
       <use xlink:href="#m6e4a45ed55" x="244.80324" y="390.04" style="stroke: #000000; stroke-width: 0.8"/>
      </g>
     </g>
     <g id="text_40">
      <!-- 16 -->
      <g transform="translate(238.44074 404.638437) scale(0.1 -0.1)">
       <use xlink:href="#DejaVuSans-31"/>
       <use xlink:href="#DejaVuSans-36" transform="translate(63.623047 0)"/>
      </g>
     </g>
    </g>
    <g id="xtick_21">
     <g id="line2d_40">
      <g>
       <use xlink:href="#m6e4a45ed55" x="290.636552" y="390.04" style="stroke: #000000; stroke-width: 0.8"/>
      </g>
     </g>
     <g id="text_41">
      <!-- 17 -->
      <g transform="translate(284.274052 404.638437) scale(0.1 -0.1)">
       <use xlink:href="#DejaVuSans-31"/>
       <use xlink:href="#DejaVuSans-37" transform="translate(63.623047 0)"/>
      </g>
     </g>
    </g>
    <g id="xtick_22">
     <g id="line2d_41">
      <g>
       <use xlink:href="#m6e4a45ed55" x="336.469864" y="390.04" style="stroke: #000000; stroke-width: 0.8"/>
      </g>
     </g>
     <g id="text_42">
      <!-- 18 -->
      <g transform="translate(330.107364 404.638437) scale(0.1 -0.1)">
       <use xlink:href="#DejaVuSans-31"/>
       <use xlink:href="#DejaVuSans-38" transform="translate(63.623047 0)"/>
      </g>
     </g>
    </g>
    <g id="text_43">
     <!-- time t -->
     <g transform="translate(184.124616 418.316562) scale(0.1 -0.1)">
      <use xlink:href="#DejaVuSans-74"/>
      <use xlink:href="#DejaVuSans-69" transform="translate(39.208984 0)"/>
      <use xlink:href="#DejaVuSans-6d" transform="translate(66.992188 0)"/>
      <use xlink:href="#DejaVuSans-65" transform="translate(164.404297 0)"/>
      <use xlink:href="#DejaVuSans-20" transform="translate(225.927734 0)"/>
      <use xlink:href="#DejaVuSans-74" transform="translate(257.714844 0)"/>
     </g>
    </g>
   </g>
   <g id="matplotlib.axis_6">
    <g id="ytick_16">
     <g id="line2d_42">
      <g>
       <use xlink:href="#mbc373e4ceb" x="47.72" y="368.097227" style="stroke: #000000; stroke-width: 0.8"/>
      </g>
     </g>
     <g id="text_44">
      <!-- 1.00 -->
      <g transform="translate(18.454375 371.896446) scale(0.1 -0.1)">
       <use xlink:href="#DejaVuSans-31"/>
       <use xlink:href="#DejaVuSans-2e" transform="translate(63.623047 0)"/>
       <use xlink:href="#DejaVuSans-30" transform="translate(95.410156 0)"/>
       <use xlink:href="#DejaVuSans-30" transform="translate(159.033203 0)"/>
      </g>
     </g>
    </g>
    <g id="ytick_17">
     <g id="line2d_43">
      <g>
       <use xlink:href="#mbc373e4ceb" x="47.72" y="345.71881" style="stroke: #000000; stroke-width: 0.8"/>
      </g>
     </g>
     <g id="text_45">
      <!-- 1.25 -->
      <g transform="translate(18.454375 349.518029) scale(0.1 -0.1)">
       <use xlink:href="#DejaVuSans-31"/>
       <use xlink:href="#DejaVuSans-2e" transform="translate(63.623047 0)"/>
       <use xlink:href="#DejaVuSans-32" transform="translate(95.410156 0)"/>
       <use xlink:href="#DejaVuSans-35" transform="translate(159.033203 0)"/>
      </g>
     </g>
    </g>
    <g id="ytick_18">
     <g id="line2d_44">
      <g>
       <use xlink:href="#mbc373e4ceb" x="47.72" y="323.340393" style="stroke: #000000; stroke-width: 0.8"/>
      </g>
     </g>
     <g id="text_46">
      <!-- 1.50 -->
      <g transform="translate(18.454375 327.139612) scale(0.1 -0.1)">
       <use xlink:href="#DejaVuSans-31"/>
       <use xlink:href="#DejaVuSans-2e" transform="translate(63.623047 0)"/>
       <use xlink:href="#DejaVuSans-35" transform="translate(95.410156 0)"/>
       <use xlink:href="#DejaVuSans-30" transform="translate(159.033203 0)"/>
      </g>
     </g>
    </g>
    <g id="ytick_19">
     <g id="line2d_45">
      <g>
       <use xlink:href="#mbc373e4ceb" x="47.72" y="300.961977" style="stroke: #000000; stroke-width: 0.8"/>
      </g>
     </g>
     <g id="text_47">
      <!-- 1.75 -->
      <g transform="translate(18.454375 304.761195) scale(0.1 -0.1)">
       <use xlink:href="#DejaVuSans-31"/>
       <use xlink:href="#DejaVuSans-2e" transform="translate(63.623047 0)"/>
       <use xlink:href="#DejaVuSans-37" transform="translate(95.410156 0)"/>
       <use xlink:href="#DejaVuSans-35" transform="translate(159.033203 0)"/>
      </g>
     </g>
    </g>
    <g id="ytick_20">
     <g id="line2d_46">
      <g>
       <use xlink:href="#mbc373e4ceb" x="47.72" y="278.58356" style="stroke: #000000; stroke-width: 0.8"/>
      </g>
     </g>
     <g id="text_48">
      <!-- 2.00 -->
      <g transform="translate(18.454375 282.382779) scale(0.1 -0.1)">
       <use xlink:href="#DejaVuSans-32"/>
       <use xlink:href="#DejaVuSans-2e" transform="translate(63.623047 0)"/>
       <use xlink:href="#DejaVuSans-30" transform="translate(95.410156 0)"/>
       <use xlink:href="#DejaVuSans-30" transform="translate(159.033203 0)"/>
      </g>
     </g>
    </g>
    <g id="ytick_21">
     <g id="line2d_47">
      <g>
       <use xlink:href="#mbc373e4ceb" x="47.72" y="256.205143" style="stroke: #000000; stroke-width: 0.8"/>
      </g>
     </g>
     <g id="text_49">
      <!-- 2.25 -->
      <g transform="translate(18.454375 260.004362) scale(0.1 -0.1)">
       <use xlink:href="#DejaVuSans-32"/>
       <use xlink:href="#DejaVuSans-2e" transform="translate(63.623047 0)"/>
       <use xlink:href="#DejaVuSans-32" transform="translate(95.410156 0)"/>
       <use xlink:href="#DejaVuSans-35" transform="translate(159.033203 0)"/>
      </g>
     </g>
    </g>
    <g id="ytick_22">
     <g id="line2d_48">
      <g>
       <use xlink:href="#mbc373e4ceb" x="47.72" y="233.826726" style="stroke: #000000; stroke-width: 0.8"/>
      </g>
     </g>
     <g id="text_50">
      <!-- 2.50 -->
      <g transform="translate(18.454375 237.625945) scale(0.1 -0.1)">
       <use xlink:href="#DejaVuSans-32"/>
       <use xlink:href="#DejaVuSans-2e" transform="translate(63.623047 0)"/>
       <use xlink:href="#DejaVuSans-35" transform="translate(95.410156 0)"/>
       <use xlink:href="#DejaVuSans-30" transform="translate(159.033203 0)"/>
      </g>
     </g>
    </g>
    <g id="text_51">
     <!-- x2 -->
     <g transform="translate(12.374688 315.880625) rotate(-90) scale(0.1 -0.1)">
      <use xlink:href="#DejaVuSans-78"/>
      <use xlink:href="#DejaVuSans-32" transform="translate(59.179688 0)"/>
     </g>
    </g>
   </g>
   <g id="line2d_49">
    <path d="M 61.469994 243.717904 
L 63.309458 242.512795 
L 65.148922 241.652559 
L 66.988386 241.132527 
L 68.82785 240.945041 
L 70.667314 241.079536 
L 72.506778 241.523286 
L 74.346242 242.261488 
L 76.185706 243.278121 
L 78.02517 244.556114 
L 79.864634 246.077371 
L 81.704098 247.823367 
L 84.463294 250.822666 
L 87.22249 254.222818 
L 89.981686 257.963024 
L 93.660614 263.378977 
L 98.259274 270.661377 
L 103.777666 279.867656 
L 121.252574 309.360654 
L 126.770966 318.116864 
L 131.369626 325.063734 
L 135.968286 331.652885 
L 140.566946 337.859275 
L 145.165606 343.66701 
L 149.764266 349.066664 
L 154.362926 354.053762 
L 158.041854 357.745646 
L 161.720782 361.173212 
L 165.39971 364.337307 
L 169.078638 367.239054 
L 172.757566 369.879373 
L 176.436494 372.25871 
L 180.115422 374.376777 
L 183.79435 376.232499 
L 187.473279 377.823566 
L 191.152207 379.146217 
L 194.831135 380.194927 
L 198.510063 380.962328 
L 202.188991 381.438801 
L 204.948187 381.598011 
L 207.707383 381.580584 
L 210.466579 381.379404 
L 213.225775 380.986326 
L 215.984971 380.392089 
L 218.744167 379.586281 
L 221.503363 378.557324 
L 224.262559 377.29248 
L 227.021755 375.777809 
L 229.780951 373.99822 
L 232.540147 371.937811 
L 235.299343 369.57993 
L 238.058539 366.907503 
L 240.817735 363.903201 
L 243.576931 360.550873 
L 246.336127 356.835825 
L 249.095323 352.745748 
L 251.854519 348.271462 
L 254.613715 343.409697 
L 257.372911 338.16419 
L 261.051839 330.594563 
L 264.730767 322.421057 
L 269.329427 311.504673 
L 275.767551 295.446757 
L 282.205675 279.496215 
L 285.884603 270.940549 
L 288.643799 264.986679 
L 291.402995 259.541978 
L 294.162191 254.694457 
L 296.001655 251.831391 
L 297.841119 249.284015 
L 299.680583 247.065792 
L 301.520047 245.186362 
L 303.359511 243.6515 
L 305.198975 242.463153 
L 307.038439 241.619713 
L 308.877903 241.116041 
L 310.717367 240.944293 
L 312.556831 241.094053 
L 314.396296 241.552397 
L 316.23576 242.30462 
L 318.075224 243.334391 
L 319.914688 244.624504 
L 321.754152 246.157043 
L 323.593616 247.913425 
L 326.352812 250.926772 
L 329.112008 254.338842 
L 331.871204 258.088988 
L 335.550132 263.515446 
L 336.469864 264.934762 
L 336.469864 264.934762 
" clip-path="url(#p0a089abe05)" style="fill: none; stroke: #1f77b4; stroke-width: 1.5; stroke-linecap: square"/>
   </g>
   <g id="line2d_50">
    <path d="M 61.469994 243.717904 
L 63.309458 242.716722 
L 65.148922 242.055337 
L 66.988386 241.719237 
L 68.82785 241.692625 
L 70.667314 241.958743 
L 72.506778 242.499871 
L 74.346242 243.297723 
L 76.185706 244.33464 
L 78.02517 245.593273 
L 79.864634 247.056959 
L 82.62383 249.602247 
L 85.383026 252.522316 
L 88.142222 255.770349 
L 91.82115 260.537242 
L 95.500078 265.718121 
L 100.098738 272.650596 
L 105.61713 281.449703 
L 113.894718 295.181283 
L 125.851234 315.027487 
L 132.289358 325.253108 
L 137.80775 333.575277 
L 142.40641 340.12769 
L 147.00507 346.286497 
L 151.60373 352.018291 
L 155.282658 356.278779 
L 158.961586 360.23947 
L 162.640514 363.89298 
L 166.319442 367.233713 
L 169.99837 370.257788 
L 173.677298 372.962479 
L 177.356226 375.345503 
L 181.035154 377.404789 
L 184.714082 379.137705 
L 187.473279 380.220892 
L 190.232475 381.11599 
L 192.991671 381.819925 
L 195.750867 382.328707 
L 198.510063 382.637377 
L 201.269259 382.74 
L 204.028455 382.629729 
L 206.787651 382.299013 
L 209.546847 381.73989 
L 212.306043 380.944118 
L 215.065239 379.903601 
L 217.824435 378.610643 
L 220.583631 377.058112 
L 223.342827 375.239499 
L 226.102023 373.149024 
L 228.861219 370.781456 
L 231.620415 368.13207 
L 234.379611 365.196476 
L 237.138807 361.970394 
L 239.898003 358.449379 
L 242.657199 354.628735 
L 245.416395 350.503399 
L 248.175591 346.067581 
L 251.854519 339.659592 
L 255.533447 332.674159 
L 259.212375 325.097832 
L 262.891303 316.927504 
L 266.570231 308.188347 
L 271.168891 296.582695 
L 282.205675 268.134051 
L 284.964871 261.694311 
L 287.724067 255.829301 
L 289.563531 252.298648 
L 291.402995 249.104127 
L 293.242459 246.26632 
L 295.081923 243.799117 
L 296.921387 241.708747 
L 298.760851 239.995804 
L 300.600315 238.655999 
L 302.439779 237.680155 
L 304.279243 237.054959 
L 306.118707 236.764845 
L 307.958171 236.792314 
L 309.797635 237.119252 
L 311.637099 237.726955 
L 313.476563 238.596273 
L 315.316028 239.70867 
L 317.155492 241.046156 
L 318.994956 242.591508 
L 321.754152 245.263615 
L 324.513348 248.314768 
L 327.272544 251.697307 
L 330.951472 256.648049 
L 334.6304 262.017067 
L 336.469864 264.831946 
L 336.469864 264.831946 
" clip-path="url(#p0a089abe05)" style="fill: none; stroke-dasharray: 5.55,2.4; stroke-dashoffset: 0; stroke: #ff7f0e; stroke-width: 1.5"/>
   </g>
   <g id="patch_13">
    <path d="M 47.72 390.04 
L 47.72 229.44 
" style="fill: none; stroke: #000000; stroke-width: 0.8; stroke-linejoin: miter; stroke-linecap: square"/>
   </g>
   <g id="patch_14">
    <path d="M 350.219857 390.04 
L 350.219857 229.44 
" style="fill: none; stroke: #000000; stroke-width: 0.8; stroke-linejoin: miter; stroke-linecap: square"/>
   </g>
   <g id="patch_15">
    <path d="M 47.72 390.04 
L 350.219857 390.04 
" style="fill: none; stroke: #000000; stroke-width: 0.8; stroke-linejoin: miter; stroke-linecap: square"/>
   </g>
   <g id="patch_16">
    <path d="M 47.72 229.44 
L 350.219857 229.44 
" style="fill: none; stroke: #000000; stroke-width: 0.8; stroke-linejoin: miter; stroke-linecap: square"/>
   </g>
  </g>
  <g id="legend_1">
   <g id="line2d_51">
    <path d="M 627.623438 402.742188 
L 637.623438 402.742188 
L 647.623438 402.742188 
" style="fill: none; stroke: #1f77b4; stroke-width: 1.5; stroke-linecap: square"/>
   </g>
   <g id="text_52">
    <!-- true -->
    <g transform="translate(655.623438 406.242188) scale(0.1 -0.1)">
     <defs>
      <path id="DejaVuSans-72" d="M 2631 2963 
Q 2534 3019 2420 3045 
Q 2306 3072 2169 3072 
Q 1681 3072 1420 2755 
Q 1159 2438 1159 1844 
L 1159 0 
L 581 0 
L 581 3500 
L 1159 3500 
L 1159 2956 
Q 1341 3275 1631 3429 
Q 1922 3584 2338 3584 
Q 2397 3584 2469 3576 
Q 2541 3569 2628 3553 
L 2631 2963 
z
" transform="scale(0.015625)"/>
      <path id="DejaVuSans-75" d="M 544 1381 
L 544 3500 
L 1119 3500 
L 1119 1403 
Q 1119 906 1312 657 
Q 1506 409 1894 409 
Q 2359 409 2629 706 
Q 2900 1003 2900 1516 
L 2900 3500 
L 3475 3500 
L 3475 0 
L 2900 0 
L 2900 538 
Q 2691 219 2414 64 
Q 2138 -91 1772 -91 
Q 1169 -91 856 284 
Q 544 659 544 1381 
z
M 1991 3584 
L 1991 3584 
z
" transform="scale(0.015625)"/>
     </defs>
     <use xlink:href="#DejaVuSans-74"/>
     <use xlink:href="#DejaVuSans-72" transform="translate(39.208984 0)"/>
     <use xlink:href="#DejaVuSans-75" transform="translate(80.322266 0)"/>
     <use xlink:href="#DejaVuSans-65" transform="translate(143.701172 0)"/>
    </g>
   </g>
   <g id="line2d_52">
    <path d="M 627.623438 417.420313 
L 637.623438 417.420313 
L 647.623438 417.420313 
" style="fill: none; stroke-dasharray: 5.55,2.4; stroke-dashoffset: 0; stroke: #ff7f0e; stroke-width: 1.5"/>
   </g>
   <g id="text_53">
    <!-- predictions -->
    <g transform="translate(655.623438 420.920313) scale(0.1 -0.1)">
     <defs>
      <path id="DejaVuSans-64" d="M 2906 2969 
L 2906 4863 
L 3481 4863 
L 3481 0 
L 2906 0 
L 2906 525 
Q 2725 213 2448 61 
Q 2172 -91 1784 -91 
Q 1150 -91 751 415 
Q 353 922 353 1747 
Q 353 2572 751 3078 
Q 1150 3584 1784 3584 
Q 2172 3584 2448 3432 
Q 2725 3281 2906 2969 
z
M 947 1747 
Q 947 1113 1208 752 
Q 1469 391 1925 391 
Q 2381 391 2643 752 
Q 2906 1113 2906 1747 
Q 2906 2381 2643 2742 
Q 2381 3103 1925 3103 
Q 1469 3103 1208 2742 
Q 947 2381 947 1747 
z
" transform="scale(0.015625)"/>
      <path id="DejaVuSans-6f" d="M 1959 3097 
Q 1497 3097 1228 2736 
Q 959 2375 959 1747 
Q 959 1119 1226 758 
Q 1494 397 1959 397 
Q 2419 397 2687 759 
Q 2956 1122 2956 1747 
Q 2956 2369 2687 2733 
Q 2419 3097 1959 3097 
z
M 1959 3584 
Q 2709 3584 3137 3096 
Q 3566 2609 3566 1747 
Q 3566 888 3137 398 
Q 2709 -91 1959 -91 
Q 1206 -91 779 398 
Q 353 888 353 1747 
Q 353 2609 779 3096 
Q 1206 3584 1959 3584 
z
" transform="scale(0.015625)"/>
      <path id="DejaVuSans-6e" d="M 3513 2113 
L 3513 0 
L 2938 0 
L 2938 2094 
Q 2938 2591 2744 2837 
Q 2550 3084 2163 3084 
Q 1697 3084 1428 2787 
Q 1159 2491 1159 1978 
L 1159 0 
L 581 0 
L 581 3500 
L 1159 3500 
L 1159 2956 
Q 1366 3272 1645 3428 
Q 1925 3584 2291 3584 
Q 2894 3584 3203 3211 
Q 3513 2838 3513 2113 
z
" transform="scale(0.015625)"/>
     </defs>
     <use xlink:href="#DejaVuSans-70"/>
     <use xlink:href="#DejaVuSans-72" transform="translate(63.476562 0)"/>
     <use xlink:href="#DejaVuSans-65" transform="translate(102.339844 0)"/>
     <use xlink:href="#DejaVuSans-64" transform="translate(163.863281 0)"/>
     <use xlink:href="#DejaVuSans-69" transform="translate(227.339844 0)"/>
     <use xlink:href="#DejaVuSans-63" transform="translate(255.123047 0)"/>
     <use xlink:href="#DejaVuSans-74" transform="translate(310.103516 0)"/>
     <use xlink:href="#DejaVuSans-69" transform="translate(349.3125 0)"/>
     <use xlink:href="#DejaVuSans-6f" transform="translate(377.095703 0)"/>
     <use xlink:href="#DejaVuSans-6e" transform="translate(438.277344 0)"/>
     <use xlink:href="#DejaVuSans-73" transform="translate(501.65625 0)"/>
    </g>
   </g>
  </g>
 </g>
 <defs>
  <clipPath id="p5f11ff41ff">
   <rect x="47.72" y="26.88" width="302.499857" height="160.6"/>
  </clipPath>
  <clipPath id="p073a058c80">
   <rect x="397.939857" y="26.88" width="302.499857" height="160.6"/>
  </clipPath>
  <clipPath id="p0a089abe05">
   <rect x="47.72" y="229.44" width="302.499857" height="160.6"/>
  </clipPath>
 </defs>
</svg>
