<?xml version="1.0" encoding="utf-8" standalone="no"?>
<!DOCTYPE svg PUBLIC "-//W3C//DTD SVG 1.1//EN"
  "http://www.w3.org/Graphics/SVG/1.1/DTD/svg11.dtd">
<svg xmlns:xlink="http://www.w3.org/1999/xlink" width="720pt" height="720pt" viewBox="0 0 720 720" xmlns="http://www.w3.org/2000/svg" version="1.1">
 <metadata>
  <rdf:RDF xmlns:dc="http://purl.org/dc/elements/1.1/" xmlns:cc="http://creativecommons.org/ns#" xmlns:rdf="http://www.w3.org/1999/02/22-rdf-syntax-ns#">
   <cc:Work>
    <dc:type rdf:resource="http://purl.org/dc/dcmitype/StillImage"/>
    <dc:date>2025-09-22T11:58:21.544532</dc:date>
    <dc:format>image/svg+xml</dc:format>
    <dc:creator>
     <cc:Agent>
      <dc:title>Matplotlib v3.10.3, https://matplotlib.org/</dc:title>
     </cc:Agent>
    </dc:creator>
   </cc:Work>
  </rdf:RDF>
 </metadata>
 <defs>
  <style type="text/css">*{stroke-linejoin: round; stroke-linecap: butt}</style>
 </defs>
 <g id="figure_1">
  <g id="patch_1">
   <path d="M 0 720 
L 720 720 
L 720 0 
L 0 0 
z
" style="fill: #ffffff"/>
  </g>
  <g id="axes_1">
   <g id="patch_2">
    <path d="M 54.02 252.498892 
L 709.2 252.498892 
L 709.2 70.56 
L 54.02 70.56 
z
" style="fill: #ffffff"/>
   </g>
   <g id="matplotlib.axis_1">
    <g id="xtick_1">
     <g id="line2d_1">
      <path d="M 83.621257 252.498892 
L 83.621257 70.56 
" clip-path="url(#pfe150d5992)" style="fill: none; stroke-dasharray: 1.85,0.8; stroke-dashoffset: 0; stroke: #b0b0b0; stroke-opacity: 0.6; stroke-width: 0.5"/>
     </g>
     <g id="line2d_2">
      <defs>
       <path id="mc2c5efa365" d="M 0 0 
L 0 3.5 
" style="stroke: #000000; stroke-width: 0.8"/>
      </defs>
      <g>
       <use xlink:href="#mc2c5efa365" x="83.621257" y="252.498892" style="stroke: #000000; stroke-width: 0.8"/>
      </g>
     </g>
     <g id="text_1">
      <!-- 0 -->
      <g transform="translate(80.440007 267.097329) scale(0.1 -0.1)">
       <defs>
        <path id="DejaVuSans-30" d="M 2034 4250 
Q 1547 4250 1301 3770 
Q 1056 3291 1056 2328 
Q 1056 1369 1301 889 
Q 1547 409 2034 409 
Q 2525 409 2770 889 
Q 3016 1369 3016 2328 
Q 3016 3291 2770 3770 
Q 2525 4250 2034 4250 
z
M 2034 4750 
Q 2819 4750 3233 4129 
Q 3647 3509 3647 2328 
Q 3647 1150 3233 529 
Q 2819 -91 2034 -91 
Q 1250 -91 836 529 
Q 422 1150 422 2328 
Q 422 3509 836 4129 
Q 1250 4750 2034 4750 
z
" transform="scale(0.015625)"/>
       </defs>
       <use xlink:href="#DejaVuSans-30"/>
      </g>
     </g>
    </g>
    <g id="xtick_2">
     <g id="line2d_3">
      <path d="M 183.198724 252.498892 
L 183.198724 70.56 
" clip-path="url(#pfe150d5992)" style="fill: none; stroke-dasharray: 1.85,0.8; stroke-dashoffset: 0; stroke: #b0b0b0; stroke-opacity: 0.6; stroke-width: 0.5"/>
     </g>
     <g id="line2d_4">
      <g>
       <use xlink:href="#mc2c5efa365" x="183.198724" y="252.498892" style="stroke: #000000; stroke-width: 0.8"/>
      </g>
     </g>
     <g id="text_2">
      <!-- 2 -->
      <g transform="translate(180.017474 267.097329) scale(0.1 -0.1)">
       <defs>
        <path id="DejaVuSans-32" d="M 1228 531 
L 3431 531 
L 3431 0 
L 469 0 
L 469 531 
Q 828 903 1448 1529 
Q 2069 2156 2228 2338 
Q 2531 2678 2651 2914 
Q 2772 3150 2772 3378 
Q 2772 3750 2511 3984 
Q 2250 4219 1831 4219 
Q 1534 4219 1204 4116 
Q 875 4013 500 3803 
L 500 4441 
Q 881 4594 1212 4672 
Q 1544 4750 1819 4750 
Q 2544 4750 2975 4387 
Q 3406 4025 3406 3419 
Q 3406 3131 3298 2873 
Q 3191 2616 2906 2266 
Q 2828 2175 2409 1742 
Q 1991 1309 1228 531 
z
" transform="scale(0.015625)"/>
       </defs>
       <use xlink:href="#DejaVuSans-32"/>
      </g>
     </g>
    </g>
    <g id="xtick_3">
     <g id="line2d_5">
      <path d="M 282.77619 252.498892 
L 282.77619 70.56 
" clip-path="url(#pfe150d5992)" style="fill: none; stroke-dasharray: 1.85,0.8; stroke-dashoffset: 0; stroke: #b0b0b0; stroke-opacity: 0.6; stroke-width: 0.5"/>
     </g>
     <g id="line2d_6">
      <g>
       <use xlink:href="#mc2c5efa365" x="282.77619" y="252.498892" style="stroke: #000000; stroke-width: 0.8"/>
      </g>
     </g>
     <g id="text_3">
      <!-- 4 -->
      <g transform="translate(279.59494 267.097329) scale(0.1 -0.1)">
       <defs>
        <path id="DejaVuSans-34" d="M 2419 4116 
L 825 1625 
L 2419 1625 
L 2419 4116 
z
M 2253 4666 
L 3047 4666 
L 3047 1625 
L 3713 1625 
L 3713 1100 
L 3047 1100 
L 3047 0 
L 2419 0 
L 2419 1100 
L 313 1100 
L 313 1709 
L 2253 4666 
z
" transform="scale(0.015625)"/>
       </defs>
       <use xlink:href="#DejaVuSans-34"/>
      </g>
     </g>
    </g>
    <g id="xtick_4">
     <g id="line2d_7">
      <path d="M 382.353657 252.498892 
L 382.353657 70.56 
" clip-path="url(#pfe150d5992)" style="fill: none; stroke-dasharray: 1.85,0.8; stroke-dashoffset: 0; stroke: #b0b0b0; stroke-opacity: 0.6; stroke-width: 0.5"/>
     </g>
     <g id="line2d_8">
      <g>
       <use xlink:href="#mc2c5efa365" x="382.353657" y="252.498892" style="stroke: #000000; stroke-width: 0.8"/>
      </g>
     </g>
     <g id="text_4">
      <!-- 6 -->
      <g transform="translate(379.172407 267.097329) scale(0.1 -0.1)">
       <defs>
        <path id="DejaVuSans-36" d="M 2113 2584 
Q 1688 2584 1439 2293 
Q 1191 2003 1191 1497 
Q 1191 994 1439 701 
Q 1688 409 2113 409 
Q 2538 409 2786 701 
Q 3034 994 3034 1497 
Q 3034 2003 2786 2293 
Q 2538 2584 2113 2584 
z
M 3366 4563 
L 3366 3988 
Q 3128 4100 2886 4159 
Q 2644 4219 2406 4219 
Q 1781 4219 1451 3797 
Q 1122 3375 1075 2522 
Q 1259 2794 1537 2939 
Q 1816 3084 2150 3084 
Q 2853 3084 3261 2657 
Q 3669 2231 3669 1497 
Q 3669 778 3244 343 
Q 2819 -91 2113 -91 
Q 1303 -91 875 529 
Q 447 1150 447 2328 
Q 447 3434 972 4092 
Q 1497 4750 2381 4750 
Q 2619 4750 2861 4703 
Q 3103 4656 3366 4563 
z
" transform="scale(0.015625)"/>
       </defs>
       <use xlink:href="#DejaVuSans-36"/>
      </g>
     </g>
    </g>
    <g id="xtick_5">
     <g id="line2d_9">
      <path d="M 481.931123 252.498892 
L 481.931123 70.56 
" clip-path="url(#pfe150d5992)" style="fill: none; stroke-dasharray: 1.85,0.8; stroke-dashoffset: 0; stroke: #b0b0b0; stroke-opacity: 0.6; stroke-width: 0.5"/>
     </g>
     <g id="line2d_10">
      <g>
       <use xlink:href="#mc2c5efa365" x="481.931123" y="252.498892" style="stroke: #000000; stroke-width: 0.8"/>
      </g>
     </g>
     <g id="text_5">
      <!-- 8 -->
      <g transform="translate(478.749873 267.097329) scale(0.1 -0.1)">
       <defs>
        <path id="DejaVuSans-38" d="M 2034 2216 
Q 1584 2216 1326 1975 
Q 1069 1734 1069 1313 
Q 1069 891 1326 650 
Q 1584 409 2034 409 
Q 2484 409 2743 651 
Q 3003 894 3003 1313 
Q 3003 1734 2745 1975 
Q 2488 2216 2034 2216 
z
M 1403 2484 
Q 997 2584 770 2862 
Q 544 3141 544 3541 
Q 544 4100 942 4425 
Q 1341 4750 2034 4750 
Q 2731 4750 3128 4425 
Q 3525 4100 3525 3541 
Q 3525 3141 3298 2862 
Q 3072 2584 2669 2484 
Q 3125 2378 3379 2068 
Q 3634 1759 3634 1313 
Q 3634 634 3220 271 
Q 2806 -91 2034 -91 
Q 1263 -91 848 271 
Q 434 634 434 1313 
Q 434 1759 690 2068 
Q 947 2378 1403 2484 
z
M 1172 3481 
Q 1172 3119 1398 2916 
Q 1625 2713 2034 2713 
Q 2441 2713 2670 2916 
Q 2900 3119 2900 3481 
Q 2900 3844 2670 4047 
Q 2441 4250 2034 4250 
Q 1625 4250 1398 4047 
Q 1172 3844 1172 3481 
z
" transform="scale(0.015625)"/>
       </defs>
       <use xlink:href="#DejaVuSans-38"/>
      </g>
     </g>
    </g>
    <g id="xtick_6">
     <g id="line2d_11">
      <path d="M 581.50859 252.498892 
L 581.50859 70.56 
" clip-path="url(#pfe150d5992)" style="fill: none; stroke-dasharray: 1.85,0.8; stroke-dashoffset: 0; stroke: #b0b0b0; stroke-opacity: 0.6; stroke-width: 0.5"/>
     </g>
     <g id="line2d_12">
      <g>
       <use xlink:href="#mc2c5efa365" x="581.50859" y="252.498892" style="stroke: #000000; stroke-width: 0.8"/>
      </g>
     </g>
     <g id="text_6">
      <!-- 10 -->
      <g transform="translate(575.14609 267.097329) scale(0.1 -0.1)">
       <defs>
        <path id="DejaVuSans-31" d="M 794 531 
L 1825 531 
L 1825 4091 
L 703 3866 
L 703 4441 
L 1819 4666 
L 2450 4666 
L 2450 531 
L 3481 531 
L 3481 0 
L 794 0 
L 794 531 
z
" transform="scale(0.015625)"/>
       </defs>
       <use xlink:href="#DejaVuSans-31"/>
       <use xlink:href="#DejaVuSans-30" transform="translate(63.623047 0)"/>
      </g>
     </g>
    </g>
    <g id="xtick_7">
     <g id="line2d_13">
      <path d="M 681.086056 252.498892 
L 681.086056 70.56 
" clip-path="url(#pfe150d5992)" style="fill: none; stroke-dasharray: 1.85,0.8; stroke-dashoffset: 0; stroke: #b0b0b0; stroke-opacity: 0.6; stroke-width: 0.5"/>
     </g>
     <g id="line2d_14">
      <g>
       <use xlink:href="#mc2c5efa365" x="681.086056" y="252.498892" style="stroke: #000000; stroke-width: 0.8"/>
      </g>
     </g>
     <g id="text_7">
      <!-- 12 -->
      <g transform="translate(674.723556 267.097329) scale(0.1 -0.1)">
       <use xlink:href="#DejaVuSans-31"/>
       <use xlink:href="#DejaVuSans-32" transform="translate(63.623047 0)"/>
      </g>
     </g>
    </g>
   </g>
   <g id="matplotlib.axis_2">
    <g id="ytick_1">
     <g id="line2d_15">
      <path d="M 54.02 233.474642 
L 709.2 233.474642 
" clip-path="url(#pfe150d5992)" style="fill: none; stroke-dasharray: 1.85,0.8; stroke-dashoffset: 0; stroke: #b0b0b0; stroke-opacity: 0.6; stroke-width: 0.5"/>
     </g>
     <g id="line2d_16">
      <defs>
       <path id="md6d9f8bc98" d="M 0 0 
L -3.5 0 
" style="stroke: #000000; stroke-width: 0.8"/>
      </defs>
      <g>
       <use xlink:href="#md6d9f8bc98" x="54.02" y="233.474642" style="stroke: #000000; stroke-width: 0.8"/>
      </g>
     </g>
     <g id="text_8">
      <!-- 0.75 -->
      <g transform="translate(24.754375 237.273861) scale(0.1 -0.1)">
       <defs>
        <path id="DejaVuSans-2e" d="M 684 794 
L 1344 794 
L 1344 0 
L 684 0 
L 684 794 
z
" transform="scale(0.015625)"/>
        <path id="DejaVuSans-37" d="M 525 4666 
L 3525 4666 
L 3525 4397 
L 1831 0 
L 1172 0 
L 2766 4134 
L 525 4134 
L 525 4666 
z
" transform="scale(0.015625)"/>
        <path id="DejaVuSans-35" d="M 691 4666 
L 3169 4666 
L 3169 4134 
L 1269 4134 
L 1269 2991 
Q 1406 3038 1543 3061 
Q 1681 3084 1819 3084 
Q 2600 3084 3056 2656 
Q 3513 2228 3513 1497 
Q 3513 744 3044 326 
Q 2575 -91 1722 -91 
Q 1428 -91 1123 -41 
Q 819 9 494 109 
L 494 744 
Q 775 591 1075 516 
Q 1375 441 1709 441 
Q 2250 441 2565 725 
Q 2881 1009 2881 1497 
Q 2881 1984 2565 2268 
Q 2250 2553 1709 2553 
Q 1456 2553 1204 2497 
Q 953 2441 691 2322 
L 691 4666 
z
" transform="scale(0.015625)"/>
       </defs>
       <use xlink:href="#DejaVuSans-30"/>
       <use xlink:href="#DejaVuSans-2e" transform="translate(63.623047 0)"/>
       <use xlink:href="#DejaVuSans-37" transform="translate(95.410156 0)"/>
       <use xlink:href="#DejaVuSans-35" transform="translate(159.033203 0)"/>
      </g>
     </g>
    </g>
    <g id="ytick_2">
     <g id="line2d_17">
      <path d="M 54.02 209.925652 
L 709.2 209.925652 
" clip-path="url(#pfe150d5992)" style="fill: none; stroke-dasharray: 1.85,0.8; stroke-dashoffset: 0; stroke: #b0b0b0; stroke-opacity: 0.6; stroke-width: 0.5"/>
     </g>
     <g id="line2d_18">
      <g>
       <use xlink:href="#md6d9f8bc98" x="54.02" y="209.925652" style="stroke: #000000; stroke-width: 0.8"/>
      </g>
     </g>
     <g id="text_9">
      <!-- 1.00 -->
      <g transform="translate(24.754375 213.724871) scale(0.1 -0.1)">
       <use xlink:href="#DejaVuSans-31"/>
       <use xlink:href="#DejaVuSans-2e" transform="translate(63.623047 0)"/>
       <use xlink:href="#DejaVuSans-30" transform="translate(95.410156 0)"/>
       <use xlink:href="#DejaVuSans-30" transform="translate(159.033203 0)"/>
      </g>
     </g>
    </g>
    <g id="ytick_3">
     <g id="line2d_19">
      <path d="M 54.02 186.376663 
L 709.2 186.376663 
" clip-path="url(#pfe150d5992)" style="fill: none; stroke-dasharray: 1.85,0.8; stroke-dashoffset: 0; stroke: #b0b0b0; stroke-opacity: 0.6; stroke-width: 0.5"/>
     </g>
     <g id="line2d_20">
      <g>
       <use xlink:href="#md6d9f8bc98" x="54.02" y="186.376663" style="stroke: #000000; stroke-width: 0.8"/>
      </g>
     </g>
     <g id="text_10">
      <!-- 1.25 -->
      <g transform="translate(24.754375 190.175881) scale(0.1 -0.1)">
       <use xlink:href="#DejaVuSans-31"/>
       <use xlink:href="#DejaVuSans-2e" transform="translate(63.623047 0)"/>
       <use xlink:href="#DejaVuSans-32" transform="translate(95.410156 0)"/>
       <use xlink:href="#DejaVuSans-35" transform="translate(159.033203 0)"/>
      </g>
     </g>
    </g>
    <g id="ytick_4">
     <g id="line2d_21">
      <path d="M 54.02 162.827673 
L 709.2 162.827673 
" clip-path="url(#pfe150d5992)" style="fill: none; stroke-dasharray: 1.85,0.8; stroke-dashoffset: 0; stroke: #b0b0b0; stroke-opacity: 0.6; stroke-width: 0.5"/>
     </g>
     <g id="line2d_22">
      <g>
       <use xlink:href="#md6d9f8bc98" x="54.02" y="162.827673" style="stroke: #000000; stroke-width: 0.8"/>
      </g>
     </g>
     <g id="text_11">
      <!-- 1.50 -->
      <g transform="translate(24.754375 166.626892) scale(0.1 -0.1)">
       <use xlink:href="#DejaVuSans-31"/>
       <use xlink:href="#DejaVuSans-2e" transform="translate(63.623047 0)"/>
       <use xlink:href="#DejaVuSans-35" transform="translate(95.410156 0)"/>
       <use xlink:href="#DejaVuSans-30" transform="translate(159.033203 0)"/>
      </g>
     </g>
    </g>
    <g id="ytick_5">
     <g id="line2d_23">
      <path d="M 54.02 139.278683 
L 709.2 139.278683 
" clip-path="url(#pfe150d5992)" style="fill: none; stroke-dasharray: 1.85,0.8; stroke-dashoffset: 0; stroke: #b0b0b0; stroke-opacity: 0.6; stroke-width: 0.5"/>
     </g>
     <g id="line2d_24">
      <g>
       <use xlink:href="#md6d9f8bc98" x="54.02" y="139.278683" style="stroke: #000000; stroke-width: 0.8"/>
      </g>
     </g>
     <g id="text_12">
      <!-- 1.75 -->
      <g transform="translate(24.754375 143.077902) scale(0.1 -0.1)">
       <use xlink:href="#DejaVuSans-31"/>
       <use xlink:href="#DejaVuSans-2e" transform="translate(63.623047 0)"/>
       <use xlink:href="#DejaVuSans-37" transform="translate(95.410156 0)"/>
       <use xlink:href="#DejaVuSans-35" transform="translate(159.033203 0)"/>
      </g>
     </g>
    </g>
    <g id="ytick_6">
     <g id="line2d_25">
      <path d="M 54.02 115.729693 
L 709.2 115.729693 
" clip-path="url(#pfe150d5992)" style="fill: none; stroke-dasharray: 1.85,0.8; stroke-dashoffset: 0; stroke: #b0b0b0; stroke-opacity: 0.6; stroke-width: 0.5"/>
     </g>
     <g id="line2d_26">
      <g>
       <use xlink:href="#md6d9f8bc98" x="54.02" y="115.729693" style="stroke: #000000; stroke-width: 0.8"/>
      </g>
     </g>
     <g id="text_13">
      <!-- 2.00 -->
      <g transform="translate(24.754375 119.528912) scale(0.1 -0.1)">
       <use xlink:href="#DejaVuSans-32"/>
       <use xlink:href="#DejaVuSans-2e" transform="translate(63.623047 0)"/>
       <use xlink:href="#DejaVuSans-30" transform="translate(95.410156 0)"/>
       <use xlink:href="#DejaVuSans-30" transform="translate(159.033203 0)"/>
      </g>
     </g>
    </g>
    <g id="ytick_7">
     <g id="line2d_27">
      <path d="M 54.02 92.180704 
L 709.2 92.180704 
" clip-path="url(#pfe150d5992)" style="fill: none; stroke-dasharray: 1.85,0.8; stroke-dashoffset: 0; stroke: #b0b0b0; stroke-opacity: 0.6; stroke-width: 0.5"/>
     </g>
     <g id="line2d_28">
      <g>
       <use xlink:href="#md6d9f8bc98" x="54.02" y="92.180704" style="stroke: #000000; stroke-width: 0.8"/>
      </g>
     </g>
     <g id="text_14">
      <!-- 2.25 -->
      <g transform="translate(24.754375 95.979922) scale(0.1 -0.1)">
       <use xlink:href="#DejaVuSans-32"/>
       <use xlink:href="#DejaVuSans-2e" transform="translate(63.623047 0)"/>
       <use xlink:href="#DejaVuSans-32" transform="translate(95.410156 0)"/>
       <use xlink:href="#DejaVuSans-35" transform="translate(159.033203 0)"/>
      </g>
     </g>
    </g>
    <g id="text_15">
     <!-- x1 -->
     <g transform="translate(18.674688 167.670071) rotate(-90) scale(0.1 -0.1)">
      <defs>
       <path id="DejaVuSans-78" d="M 3513 3500 
L 2247 1797 
L 3578 0 
L 2900 0 
L 1881 1375 
L 863 0 
L 184 0 
L 1544 1831 
L 300 3500 
L 978 3500 
L 1906 2253 
L 2834 3500 
L 3513 3500 
z
" transform="scale(0.015625)"/>
      </defs>
      <use xlink:href="#DejaVuSans-78"/>
      <use xlink:href="#DejaVuSans-31" transform="translate(59.179688 0)"/>
     </g>
    </g>
   </g>
   <g id="line2d_29">
    <path d="M 83.800909 115.128133 
L 85.257415 114.003865 
L 87.450339 108.667212 
L 89.568757 104.318679 
L 90.878379 100.758506 
L 92.407757 100.969167 
L 93.495938 98.198545 
L 100.541264 86.821243 
L 100.568564 89.029385 
L 107.650229 83.066524 
L 107.824981 81.59276 
L 108.101496 82.577442 
L 109.352207 80.324181 
L 114.702154 81.402143 
L 118.613596 81.507264 
L 119.148995 81.404898 
L 121.199104 85.392937 
L 122.618034 85.192519 
L 123.103223 86.264553 
L 123.46619 86.77897 
L 125.638718 88.470192 
L 126.79721 90.868592 
L 127.572504 92.110065 
L 127.664231 91.618514 
L 127.678917 92.756728 
L 130.599937 96.181611 
L 133.817468 102.301647 
L 135.01066 103.383914 
L 135.490087 105.55848 
L 136.05948 106.602862 
L 136.757172 109.113661 
L 137.843007 110.739734 
L 139.033414 117.405984 
L 139.690433 116.034692 
L 146.650973 133.409064 
L 150.903958 145.661555 
L 152.28946 147.922025 
L 157.87614 164.163734 
L 158.03831 164.394462 
L 159.713461 169.304043 
L 159.74007 168.012833 
L 164.336664 178.527588 
L 166.628045 183.426633 
L 168.011103 188.214201 
L 172.502518 194.921954 
L 173.407949 197.311707 
L 181.332692 211.83839 
L 183.429502 214.439145 
L 188.422408 222.018228 
L 188.569307 220.305593 
L 189.507996 221.746769 
L 192.785472 227.799823 
L 192.923454 225.031629 
L 195.650517 228.371424 
L 197.50854 230.405954 
L 199.606963 232.269919 
L 200.19106 233.189646 
L 201.462195 231.864919 
L 202.225814 232.496826 
L 202.695 234.366796 
L 202.824712 233.777494 
L 216.529331 238.902118 
L 218.24707 240.937911 
L 218.57029 242.214247 
L 219.339923 241.611534 
L 222.455897 241.750908 
L 226.636073 243.004773 
L 228.013989 244.228942 
L 230.84015 241.877509 
L 231.282735 242.158314 
L 238.283739 241.504671 
L 242.624727 241.823771 
L 244.839238 240.189311 
L 247.236454 240.598712 
L 250.960633 238.551429 
L 255.888735 236.790368 
L 255.94278 237.551767 
L 259.230654 233.278989 
L 262.081682 233.645304 
L 262.688562 233.88297 
L 268.152659 229.965774 
L 268.979857 229.656544 
L 272.386404 226.427215 
L 273.625452 224.379151 
L 274.619782 224.607288 
L 275.926888 222.179109 
L 276.17623 223.871927 
L 278.123303 221.665538 
L 279.57913 222.338851 
L 280.722404 219.410225 
L 284.439369 215.815479 
L 285.51132 216.145266 
L 289.33435 210.78754 
L 293.065417 207.065974 
L 297.391293 200.816127 
L 300.087504 197.470068 
L 300.394601 199.01164 
L 301.761731 195.689289 
L 304.327389 190.26192 
L 311.118232 180.851707 
L 311.742148 179.788401 
L 312.85509 178.924832 
L 315.477469 174.149517 
L 315.988118 174.170419 
L 317.457285 169.498071 
L 317.633163 171.036652 
L 319.133974 168.928226 
L 319.674645 166.464726 
L 319.952804 167.051233 
L 326.496874 153.633923 
L 326.758243 154.270309 
L 330.312288 148.110426 
L 331.363531 144.906337 
L 331.798598 145.471655 
L 333.03181 141.581518 
L 336.126847 136.827222 
L 336.161993 133.326933 
L 336.789463 133.515834 
L 337.009953 133.061908 
L 337.680392 132.882188 
L 339.658588 128.594865 
L 340.709603 127.242104 
L 346.045083 117.316905 
L 346.731105 113.428471 
L 348.150487 112.152443 
L 352.683176 103.279265 
L 358.667361 96.289582 
L 365.804083 85.377281 
L 368.102372 83.922381 
L 368.114256 83.603091 
L 370.397146 81.556877 
L 371.157463 81.863177 
L 373.09232 81.284104 
L 373.711411 80.754472 
L 373.890782 81.548046 
L 375.689556 82.922466 
L 375.691653 81.950657 
L 380.305364 80.325209 
L 380.813808 82.445653 
L 382.291409 82.291444 
L 382.33742 83.171698 
L 384.550522 85.249072 
L 386.816635 86.402988 
L 388.750417 88.69062 
L 389.626989 92.239123 
L 389.976545 90.110954 
L 396.355081 101.488612 
L 399.866641 111.426077 
L 401.568408 112.973165 
L 405.615595 124.30765 
L 407.094664 127.918487 
L 407.125276 129.275613 
L 408.418053 131.59953 
L 413.787182 146.669943 
L 414.670828 148.136646 
L 416.310861 152.306137 
L 416.855805 156.020419 
L 418.485909 156.999179 
L 419.038454 160.296059 
L 419.534992 160.274931 
L 420.83805 165.806762 
L 423.594175 170.999399 
L 424.585328 174.145538 
L 425.010015 174.41446 
L 425.090213 175.657903 
L 426.791922 178.7774 
L 428.769438 183.891488 
L 429.156608 185.2905 
L 429.40909 186.867783 
L 430.34943 186.217264 
L 432.134452 189.896018 
L 433.809156 193.828327 
L 433.91508 194.612597 
L 435.157661 197.109612 
L 436.047835 197.668074 
L 438.470061 203.766377 
L 438.694605 203.900267 
L 443.437966 210.933809 
L 443.802257 211.787409 
L 448.874601 219.530695 
L 450.687646 219.613466 
L 451.292199 223.280511 
L 454.176963 225.298572 
L 455.953639 227.832515 
L 457.936815 228.713689 
L 459.491232 229.211261 
L 462.45575 233.790942 
L 464.183444 232.135363 
L 469.610417 234.411248 
L 470.294209 236.241028 
L 472.247778 236.899407 
L 473.535494 238.965503 
L 475.033032 239.439604 
L 482.661667 241.615268 
L 483.959625 241.18509 
L 484.295738 241.412134 
L 485.114542 240.933578 
L 485.432247 243.078203 
L 486.15327 241.5066 
L 486.789697 239.790971 
L 492.317321 244.132352 
L 493.208461 241.167114 
L 494.943945 242.823539 
L 499.549036 242.678888 
L 502.783779 242.241433 
L 503.431135 240.557901 
L 504.10848 241.162076 
L 506.876527 241.784276 
L 508.346952 241.358071 
L 508.504094 240.240922 
L 508.70959 239.68499 
L 509.609854 239.630723 
L 510.580678 240.321229 
L 511.854558 239.314037 
L 513.329754 238.39295 
L 514.685143 238.139574 
L 517.309522 237.812139 
L 517.454495 237.538761 
L 519.182128 237.1591 
L 519.469773 236.077103 
L 519.564702 237.390837 
L 520.969192 236.359135 
L 522.449337 235.416082 
L 528.193308 231.474096 
L 528.362538 231.874511 
L 530.673399 229.016755 
L 533.542118 227.825503 
L 533.779042 227.21166 
L 536.4703 225.584644 
L 541.229774 221.145448 
L 542.266466 220.66711 
L 545.251957 217.154566 
L 547.069437 215.307928 
L 550.355083 212.749009 
L 553.100553 209.777907 
L 553.884789 208.418669 
L 555.113366 206.707667 
L 555.168885 207.223513 
L 555.418735 205.319372 
L 559.396977 203.759642 
L 559.585126 201.732644 
L 561.112961 199.743701 
L 562.140993 197.544277 
L 562.716676 198.129956 
L 566.454519 192.799858 
L 567.394943 192.581055 
L 569.505977 188.202781 
L 569.521597 188.440726 
L 569.679223 187.190871 
L 571.065037 185.37827 
L 572.419739 183.071466 
L 574.201449 180.812769 
L 574.960671 179.230584 
L 575.159299 179.213679 
L 575.801621 178.922771 
L 577.101623 176.496143 
L 579.399928 172.47245 
L 581.096825 168.998136 
L 582.497317 165.254801 
L 586.278716 161.293725 
L 587.756416 157.906016 
L 590.445393 151.17838 
L 592.587128 146.637479 
L 595.890131 142.741342 
L 597.860052 137.11786 
L 599.203505 134.938638 
L 599.305196 134.235906 
L 599.340278 134.300618 
L 599.61581 135.066148 
L 599.70313 133.478902 
L 600.295848 132.574655 
L 602.731113 127.95514 
L 607.289732 120.211073 
L 607.913888 115.369947 
L 609.448904 115.783264 
L 610.17127 114.911825 
L 611.432853 110.631908 
L 614.240691 107.033767 
L 615.058927 103.548073 
L 615.326425 104.836866 
L 615.528844 103.778664 
L 620.636817 96.08229 
L 627.289705 87.373645 
L 627.467035 86.243191 
L 628.880737 85.829243 
L 628.960585 84.954649 
L 629.607096 85.249778 
L 630.495103 83.860866 
L 635.398018 81.597232 
L 637.563466 81.653564 
L 637.724408 81.534348 
L 638.728324 81.228664 
L 639.871331 80.734491 
L 640.49411 78.82995 
L 641.515311 82.471034 
L 641.679379 81.286684 
L 642.294115 82.503693 
L 647.435503 85.111738 
L 647.509387 86.517101 
L 650.581699 88.446183 
L 653.955475 91.433815 
L 655.520645 94.549686 
L 656.239665 97.369728 
L 656.636388 97.600693 
L 658.635177 101.537462 
L 658.991294 102.884146 
L 660.809344 106.203905 
L 664.732736 115.527067 
L 665.542654 118.093029 
L 667.023122 121.810721 
L 668.950774 124.835824 
L 669.635846 127.442427 
L 669.850754 128.800826 
L 670.229119 127.959356 
L 670.297451 129.749183 
L 674.331916 141.811151 
L 677.517262 148.800604 
L 678.049351 151.215569 
L 678.156391 150.477864 
L 679.299811 152.209171 
L 679.299811 152.209171 
" clip-path="url(#pfe150d5992)" style="fill: none; stroke: #ff8c00; stroke-opacity: 0.7; stroke-width: 1.5; stroke-linecap: square"/>
   </g>
   <g id="line2d_30">
    <path d="M 85.257415 112.661488 
L 90.878379 102.66765 
L 90.878379 102.66765 
L 93.175753 98.909836 
L 97.968299 91.902488 
L 100.568564 88.672193 
L 103.687456 85.43181 
L 108.101496 82.205771 
L 108.101496 82.205771 
L 109.352207 81.612196 
L 109.352207 81.612196 
L 118.613596 82.184477 
L 119.148995 82.499851 
L 119.148995 82.499851 
L 122.618034 85.307951 
L 123.46619 86.194551 
L 123.46619 86.194551 
L 125.638718 88.81633 
L 127.572504 91.562756 
L 130.599937 96.599833 
L 130.599937 96.599833 
L 133.817468 102.851313 
L 136.05948 107.686947 
L 136.05948 107.686947 
L 139.690433 116.207742 
L 139.690433 116.207742 
L 159.74007 168.525695 
L 164.336664 179.545407 
L 164.336664 179.545407 
L 170.536576 192.942147 
L 173.407949 198.520718 
L 181.332692 211.821677 
L 185.800548 218.014235 
L 185.800548 218.014235 
L 188.569307 221.409995 
L 192.923454 226.111705 
L 195.650517 228.684191 
L 195.650517 228.684191 
L 200.19106 232.381514 
L 200.19106 232.381514 
L 202.824712 234.213932 
L 216.529331 240.563508 
L 219.339923 241.286559 
L 219.339923 241.286559 
L 222.455897 241.884551 
L 222.455897 241.884551 
L 228.013989 242.450194 
L 228.013989 242.450194 
L 230.84015 242.503974 
L 238.283739 241.932011 
L 244.839238 240.604904 
L 247.236454 239.931366 
L 255.94278 236.64012 
L 255.94278 236.64012 
L 259.230654 235.049255 
L 262.688562 233.16626 
L 272.386404 226.700358 
L 272.386404 226.700358 
L 276.17623 223.680321 
L 276.17623 223.680321 
L 279.57913 220.7225 
L 285.51132 214.990534 
L 289.325837 210.906335 
L 289.325837 210.906335 
L 293.065417 206.591038 
L 297.391293 201.206915 
L 301.761731 195.333872 
L 301.761731 195.333872 
L 304.327389 191.68231 
L 312.85509 178.475979 
L 312.85509 178.475979 
L 317.633163 170.387173 
L 319.952804 166.29551 
L 326.496874 154.242657 
L 326.496874 154.242657 
L 331.798598 144.040924 
L 331.798598 144.040924 
L 346.731105 114.895175 
L 352.683176 104.134543 
L 358.667361 94.62966 
L 358.667361 94.62966 
L 365.804083 85.950103 
L 368.114256 83.943622 
L 368.114256 83.943622 
L 373.09232 81.223659 
L 373.890782 81.008181 
L 375.691653 80.760175 
L 375.691653 80.760175 
L 380.305364 81.691021 
L 380.305364 81.691021 
L 382.33742 82.837028 
L 386.816635 86.964626 
L 386.816635 86.964626 
L 389.976545 91.166087 
L 396.355081 102.582312 
L 399.866641 110.27688 
L 399.866641 110.27688 
L 401.568408 114.291196 
L 407.125276 128.33457 
L 407.125276 128.33457 
L 419.038454 159.969273 
L 420.83805 164.582912 
L 426.791922 179.05509 
L 430.34943 186.997455 
L 430.34943 186.997455 
L 433.809156 194.150962 
L 436.047835 198.468536 
L 438.694605 203.254609 
L 443.802257 211.52587 
L 446.064779 214.795296 
L 450.687646 220.762049 
L 454.176963 224.667046 
L 454.176963 224.667046 
L 462.45575 232.081406 
L 464.183444 233.330536 
L 464.183444 233.330536 
L 470.294209 237.014828 
L 472.247778 237.967926 
L 472.247778 237.967926 
L 475.033032 239.152495 
L 482.661667 241.429438 
L 482.661667 241.429438 
L 486.15327 242.036781 
L 486.15327 242.036781 
L 494.943945 242.473077 
L 499.549036 242.116901 
L 499.549036 242.116901 
L 504.10848 241.387419 
L 509.609854 240.019402 
L 513.329754 238.794786 
L 517.454495 237.15375 
L 517.454495 237.15375 
L 522.449337 234.763672 
L 522.449337 234.763672 
L 528.362538 231.35123 
L 533.779042 227.652831 
L 542.266466 220.704655 
L 547.069437 216.119448 
L 547.069437 216.119448 
L 550.355083 212.699538 
L 555.418735 206.965779 
L 559.585126 201.817353 
L 562.716676 197.687662 
L 562.716676 197.687662 
L 569.679223 187.701356 
L 574.201449 180.627729 
L 577.101623 175.855675 
L 579.399928 171.94826 
L 579.399928 171.94826 
L 587.756416 156.893606 
L 587.756416 156.893606 
L 590.445393 151.807716 
L 590.445393 151.807716 
L 600.295848 132.579772 
L 609.448904 114.800891 
L 609.448904 114.800891 
L 611.432853 111.109777 
L 615.528844 103.829921 
L 620.636817 95.649609 
L 620.636817 95.649609 
L 627.467035 86.956709 
L 627.467035 86.956709 
L 629.607096 84.909082 
L 630.495103 84.168508 
L 635.398018 81.342442 
L 636.703131 80.976191 
L 636.703131 80.976191 
L 638.728324 80.751034 
L 640.49411 80.905863 
L 640.49411 80.905863 
L 642.294115 81.409255 
L 646.500677 83.971375 
L 646.500677 83.971375 
L 650.581699 88.306212 
L 650.581699 88.306212 
L 655.520645 95.858983 
L 655.520645 95.858983 
L 656.636388 97.886885 
L 658.635177 101.78797 
L 658.635177 101.78797 
L 661.923084 108.877678 
L 667.023122 121.184924 
L 670.229119 129.480004 
L 679.419091 153.987386 
L 679.419091 153.987386 
" clip-path="url(#pfe150d5992)" style="fill: none; stroke: #000080; stroke-opacity: 0.9; stroke-width: 1.5; stroke-linecap: square"/>
   </g>
   <g id="patch_3">
    <path d="M 54.02 252.498892 
L 54.02 70.56 
" style="fill: none; stroke: #000000; stroke-width: 0.8; stroke-linejoin: miter; stroke-linecap: square"/>
   </g>
   <g id="patch_4">
    <path d="M 709.2 252.498892 
L 709.2 70.56 
" style="fill: none; stroke: #000000; stroke-width: 0.8; stroke-linejoin: miter; stroke-linecap: square"/>
   </g>
   <g id="patch_5">
    <path d="M 54.02 252.498892 
L 709.2 252.498892 
" style="fill: none; stroke: #000000; stroke-width: 0.8; stroke-linejoin: miter; stroke-linecap: square"/>
   </g>
   <g id="patch_6">
    <path d="M 54.02 70.56 
L 709.2 70.56 
" style="fill: none; stroke: #000000; stroke-width: 0.8; stroke-linejoin: miter; stroke-linecap: square"/>
   </g>
   <g id="legend_1">
    <g id="patch_7">
     <path d="M 60.32 247.998892 
L 118.770781 247.998892 
Q 120.570781 247.998892 120.570781 246.198892 
L 120.570781 220.678267 
Q 120.570781 218.878267 118.770781 218.878267 
L 60.32 218.878267 
Q 58.52 218.878267 58.52 220.678267 
L 58.52 246.198892 
Q 58.52 247.998892 60.32 247.998892 
z
" style="fill: #ffffff; opacity: 0.8; stroke: #cccccc; stroke-linejoin: miter"/>
    </g>
    <g id="line2d_31">
     <path d="M 62.12 226.166861 
L 71.12 226.166861 
L 80.12 226.166861 
" style="fill: none; stroke: #ff8c00; stroke-opacity: 0.7; stroke-width: 1.5; stroke-linecap: square"/>
    </g>
    <g id="text_16">
     <!-- noised -->
     <g transform="translate(87.32 229.316861) scale(0.09 -0.09)">
      <defs>
       <path id="DejaVuSans-6e" d="M 3513 2113 
L 3513 0 
L 2938 0 
L 2938 2094 
Q 2938 2591 2744 2837 
Q 2550 3084 2163 3084 
Q 1697 3084 1428 2787 
Q 1159 2491 1159 1978 
L 1159 0 
L 581 0 
L 581 3500 
L 1159 3500 
L 1159 2956 
Q 1366 3272 1645 3428 
Q 1925 3584 2291 3584 
Q 2894 3584 3203 3211 
Q 3513 2838 3513 2113 
z
" transform="scale(0.015625)"/>
       <path id="DejaVuSans-6f" d="M 1959 3097 
Q 1497 3097 1228 2736 
Q 959 2375 959 1747 
Q 959 1119 1226 758 
Q 1494 397 1959 397 
Q 2419 397 2687 759 
Q 2956 1122 2956 1747 
Q 2956 2369 2687 2733 
Q 2419 3097 1959 3097 
z
M 1959 3584 
Q 2709 3584 3137 3096 
Q 3566 2609 3566 1747 
Q 3566 888 3137 398 
Q 2709 -91 1959 -91 
Q 1206 -91 779 398 
Q 353 888 353 1747 
Q 353 2609 779 3096 
Q 1206 3584 1959 3584 
z
" transform="scale(0.015625)"/>
       <path id="DejaVuSans-69" d="M 603 3500 
L 1178 3500 
L 1178 0 
L 603 0 
L 603 3500 
z
M 603 4863 
L 1178 4863 
L 1178 4134 
L 603 4134 
L 603 4863 
z
" transform="scale(0.015625)"/>
       <path id="DejaVuSans-73" d="M 2834 3397 
L 2834 2853 
Q 2591 2978 2328 3040 
Q 2066 3103 1784 3103 
Q 1356 3103 1142 2972 
Q 928 2841 928 2578 
Q 928 2378 1081 2264 
Q 1234 2150 1697 2047 
L 1894 2003 
Q 2506 1872 2764 1633 
Q 3022 1394 3022 966 
Q 3022 478 2636 193 
Q 2250 -91 1575 -91 
Q 1294 -91 989 -36 
Q 684 19 347 128 
L 347 722 
Q 666 556 975 473 
Q 1284 391 1588 391 
Q 1994 391 2212 530 
Q 2431 669 2431 922 
Q 2431 1156 2273 1281 
Q 2116 1406 1581 1522 
L 1381 1569 
Q 847 1681 609 1914 
Q 372 2147 372 2553 
Q 372 3047 722 3315 
Q 1072 3584 1716 3584 
Q 2034 3584 2315 3537 
Q 2597 3491 2834 3397 
z
" transform="scale(0.015625)"/>
       <path id="DejaVuSans-65" d="M 3597 1894 
L 3597 1613 
L 953 1613 
Q 991 1019 1311 708 
Q 1631 397 2203 397 
Q 2534 397 2845 478 
Q 3156 559 3463 722 
L 3463 178 
Q 3153 47 2828 -22 
Q 2503 -91 2169 -91 
Q 1331 -91 842 396 
Q 353 884 353 1716 
Q 353 2575 817 3079 
Q 1281 3584 2069 3584 
Q 2775 3584 3186 3129 
Q 3597 2675 3597 1894 
z
M 3022 2063 
Q 3016 2534 2758 2815 
Q 2500 3097 2075 3097 
Q 1594 3097 1305 2825 
Q 1016 2553 972 2059 
L 3022 2063 
z
" transform="scale(0.015625)"/>
       <path id="DejaVuSans-64" d="M 2906 2969 
L 2906 4863 
L 3481 4863 
L 3481 0 
L 2906 0 
L 2906 525 
Q 2725 213 2448 61 
Q 2172 -91 1784 -91 
Q 1150 -91 751 415 
Q 353 922 353 1747 
Q 353 2572 751 3078 
Q 1150 3584 1784 3584 
Q 2172 3584 2448 3432 
Q 2725 3281 2906 2969 
z
M 947 1747 
Q 947 1113 1208 752 
Q 1469 391 1925 391 
Q 2381 391 2643 752 
Q 2906 1113 2906 1747 
Q 2906 2381 2643 2742 
Q 2381 3103 1925 3103 
Q 1469 3103 1208 2742 
Q 947 2381 947 1747 
z
" transform="scale(0.015625)"/>
      </defs>
      <use xlink:href="#DejaVuSans-6e"/>
      <use xlink:href="#DejaVuSans-6f" transform="translate(63.378906 0)"/>
      <use xlink:href="#DejaVuSans-69" transform="translate(124.560547 0)"/>
      <use xlink:href="#DejaVuSans-73" transform="translate(152.34375 0)"/>
      <use xlink:href="#DejaVuSans-65" transform="translate(204.443359 0)"/>
      <use xlink:href="#DejaVuSans-64" transform="translate(265.966797 0)"/>
     </g>
    </g>
    <g id="line2d_32">
     <path d="M 62.12 239.377173 
L 71.12 239.377173 
L 80.12 239.377173 
" style="fill: none; stroke: #000080; stroke-opacity: 0.9; stroke-width: 1.5; stroke-linecap: square"/>
    </g>
    <g id="text_17">
     <!-- true -->
     <g transform="translate(87.32 242.527173) scale(0.09 -0.09)">
      <defs>
       <path id="DejaVuSans-74" d="M 1172 4494 
L 1172 3500 
L 2356 3500 
L 2356 3053 
L 1172 3053 
L 1172 1153 
Q 1172 725 1289 603 
Q 1406 481 1766 481 
L 2356 481 
L 2356 0 
L 1766 0 
Q 1100 0 847 248 
Q 594 497 594 1153 
L 594 3053 
L 172 3053 
L 172 3500 
L 594 3500 
L 594 4494 
L 1172 4494 
z
" transform="scale(0.015625)"/>
       <path id="DejaVuSans-72" d="M 2631 2963 
Q 2534 3019 2420 3045 
Q 2306 3072 2169 3072 
Q 1681 3072 1420 2755 
Q 1159 2438 1159 1844 
L 1159 0 
L 581 0 
L 581 3500 
L 1159 3500 
L 1159 2956 
Q 1341 3275 1631 3429 
Q 1922 3584 2338 3584 
Q 2397 3584 2469 3576 
Q 2541 3569 2628 3553 
L 2631 2963 
z
" transform="scale(0.015625)"/>
       <path id="DejaVuSans-75" d="M 544 1381 
L 544 3500 
L 1119 3500 
L 1119 1403 
Q 1119 906 1312 657 
Q 1506 409 1894 409 
Q 2359 409 2629 706 
Q 2900 1003 2900 1516 
L 2900 3500 
L 3475 3500 
L 3475 0 
L 2900 0 
L 2900 538 
Q 2691 219 2414 64 
Q 2138 -91 1772 -91 
Q 1169 -91 856 284 
Q 544 659 544 1381 
z
M 1991 3584 
L 1991 3584 
z
" transform="scale(0.015625)"/>
      </defs>
      <use xlink:href="#DejaVuSans-74"/>
      <use xlink:href="#DejaVuSans-72" transform="translate(39.208984 0)"/>
      <use xlink:href="#DejaVuSans-75" transform="translate(80.322266 0)"/>
      <use xlink:href="#DejaVuSans-65" transform="translate(143.701172 0)"/>
     </g>
    </g>
   </g>
  </g>
  <g id="axes_2">
   <g id="patch_8">
    <path d="M 54.02 465.269446 
L 709.2 465.269446 
L 709.2 283.330554 
L 54.02 283.330554 
z
" style="fill: #ffffff"/>
   </g>
   <g id="matplotlib.axis_3">
    <g id="xtick_8">
     <g id="line2d_33">
      <path d="M 83.621257 465.269446 
L 83.621257 283.330554 
" clip-path="url(#pd48acdfe00)" style="fill: none; stroke-dasharray: 1.85,0.8; stroke-dashoffset: 0; stroke: #b0b0b0; stroke-opacity: 0.6; stroke-width: 0.5"/>
     </g>
     <g id="line2d_34">
      <g>
       <use xlink:href="#mc2c5efa365" x="83.621257" y="465.269446" style="stroke: #000000; stroke-width: 0.8"/>
      </g>
     </g>
     <g id="text_18">
      <!-- 0 -->
      <g transform="translate(80.440007 479.867883) scale(0.1 -0.1)">
       <use xlink:href="#DejaVuSans-30"/>
      </g>
     </g>
    </g>
    <g id="xtick_9">
     <g id="line2d_35">
      <path d="M 183.198724 465.269446 
L 183.198724 283.330554 
" clip-path="url(#pd48acdfe00)" style="fill: none; stroke-dasharray: 1.85,0.8; stroke-dashoffset: 0; stroke: #b0b0b0; stroke-opacity: 0.6; stroke-width: 0.5"/>
     </g>
     <g id="line2d_36">
      <g>
       <use xlink:href="#mc2c5efa365" x="183.198724" y="465.269446" style="stroke: #000000; stroke-width: 0.8"/>
      </g>
     </g>
     <g id="text_19">
      <!-- 2 -->
      <g transform="translate(180.017474 479.867883) scale(0.1 -0.1)">
       <use xlink:href="#DejaVuSans-32"/>
      </g>
     </g>
    </g>
    <g id="xtick_10">
     <g id="line2d_37">
      <path d="M 282.77619 465.269446 
L 282.77619 283.330554 
" clip-path="url(#pd48acdfe00)" style="fill: none; stroke-dasharray: 1.85,0.8; stroke-dashoffset: 0; stroke: #b0b0b0; stroke-opacity: 0.6; stroke-width: 0.5"/>
     </g>
     <g id="line2d_38">
      <g>
       <use xlink:href="#mc2c5efa365" x="282.77619" y="465.269446" style="stroke: #000000; stroke-width: 0.8"/>
      </g>
     </g>
     <g id="text_20">
      <!-- 4 -->
      <g transform="translate(279.59494 479.867883) scale(0.1 -0.1)">
       <use xlink:href="#DejaVuSans-34"/>
      </g>
     </g>
    </g>
    <g id="xtick_11">
     <g id="line2d_39">
      <path d="M 382.353657 465.269446 
L 382.353657 283.330554 
" clip-path="url(#pd48acdfe00)" style="fill: none; stroke-dasharray: 1.85,0.8; stroke-dashoffset: 0; stroke: #b0b0b0; stroke-opacity: 0.6; stroke-width: 0.5"/>
     </g>
     <g id="line2d_40">
      <g>
       <use xlink:href="#mc2c5efa365" x="382.353657" y="465.269446" style="stroke: #000000; stroke-width: 0.8"/>
      </g>
     </g>
     <g id="text_21">
      <!-- 6 -->
      <g transform="translate(379.172407 479.867883) scale(0.1 -0.1)">
       <use xlink:href="#DejaVuSans-36"/>
      </g>
     </g>
    </g>
    <g id="xtick_12">
     <g id="line2d_41">
      <path d="M 481.931123 465.269446 
L 481.931123 283.330554 
" clip-path="url(#pd48acdfe00)" style="fill: none; stroke-dasharray: 1.85,0.8; stroke-dashoffset: 0; stroke: #b0b0b0; stroke-opacity: 0.6; stroke-width: 0.5"/>
     </g>
     <g id="line2d_42">
      <g>
       <use xlink:href="#mc2c5efa365" x="481.931123" y="465.269446" style="stroke: #000000; stroke-width: 0.8"/>
      </g>
     </g>
     <g id="text_22">
      <!-- 8 -->
      <g transform="translate(478.749873 479.867883) scale(0.1 -0.1)">
       <use xlink:href="#DejaVuSans-38"/>
      </g>
     </g>
    </g>
    <g id="xtick_13">
     <g id="line2d_43">
      <path d="M 581.50859 465.269446 
L 581.50859 283.330554 
" clip-path="url(#pd48acdfe00)" style="fill: none; stroke-dasharray: 1.85,0.8; stroke-dashoffset: 0; stroke: #b0b0b0; stroke-opacity: 0.6; stroke-width: 0.5"/>
     </g>
     <g id="line2d_44">
      <g>
       <use xlink:href="#mc2c5efa365" x="581.50859" y="465.269446" style="stroke: #000000; stroke-width: 0.8"/>
      </g>
     </g>
     <g id="text_23">
      <!-- 10 -->
      <g transform="translate(575.14609 479.867883) scale(0.1 -0.1)">
       <use xlink:href="#DejaVuSans-31"/>
       <use xlink:href="#DejaVuSans-30" transform="translate(63.623047 0)"/>
      </g>
     </g>
    </g>
    <g id="xtick_14">
     <g id="line2d_45">
      <path d="M 681.086056 465.269446 
L 681.086056 283.330554 
" clip-path="url(#pd48acdfe00)" style="fill: none; stroke-dasharray: 1.85,0.8; stroke-dashoffset: 0; stroke: #b0b0b0; stroke-opacity: 0.6; stroke-width: 0.5"/>
     </g>
     <g id="line2d_46">
      <g>
       <use xlink:href="#mc2c5efa365" x="681.086056" y="465.269446" style="stroke: #000000; stroke-width: 0.8"/>
      </g>
     </g>
     <g id="text_24">
      <!-- 12 -->
      <g transform="translate(674.723556 479.867883) scale(0.1 -0.1)">
       <use xlink:href="#DejaVuSans-31"/>
       <use xlink:href="#DejaVuSans-32" transform="translate(63.623047 0)"/>
      </g>
     </g>
    </g>
   </g>
   <g id="matplotlib.axis_4">
    <g id="ytick_8">
     <g id="line2d_47">
      <path d="M 54.02 460.119552 
L 709.2 460.119552 
" clip-path="url(#pd48acdfe00)" style="fill: none; stroke-dasharray: 1.85,0.8; stroke-dashoffset: 0; stroke: #b0b0b0; stroke-opacity: 0.6; stroke-width: 0.5"/>
     </g>
     <g id="line2d_48">
      <g>
       <use xlink:href="#md6d9f8bc98" x="54.02" y="460.119552" style="stroke: #000000; stroke-width: 0.8"/>
      </g>
     </g>
     <g id="text_25">
      <!-- 0.8 -->
      <g transform="translate(31.116875 463.918771) scale(0.1 -0.1)">
       <use xlink:href="#DejaVuSans-30"/>
       <use xlink:href="#DejaVuSans-2e" transform="translate(63.623047 0)"/>
       <use xlink:href="#DejaVuSans-38" transform="translate(95.410156 0)"/>
      </g>
     </g>
    </g>
    <g id="ytick_9">
     <g id="line2d_49">
      <path d="M 54.02 439.45321 
L 709.2 439.45321 
" clip-path="url(#pd48acdfe00)" style="fill: none; stroke-dasharray: 1.85,0.8; stroke-dashoffset: 0; stroke: #b0b0b0; stroke-opacity: 0.6; stroke-width: 0.5"/>
     </g>
     <g id="line2d_50">
      <g>
       <use xlink:href="#md6d9f8bc98" x="54.02" y="439.45321" style="stroke: #000000; stroke-width: 0.8"/>
      </g>
     </g>
     <g id="text_26">
      <!-- 1.0 -->
      <g transform="translate(31.116875 443.252429) scale(0.1 -0.1)">
       <use xlink:href="#DejaVuSans-31"/>
       <use xlink:href="#DejaVuSans-2e" transform="translate(63.623047 0)"/>
       <use xlink:href="#DejaVuSans-30" transform="translate(95.410156 0)"/>
      </g>
     </g>
    </g>
    <g id="ytick_10">
     <g id="line2d_51">
      <path d="M 54.02 418.786868 
L 709.2 418.786868 
" clip-path="url(#pd48acdfe00)" style="fill: none; stroke-dasharray: 1.85,0.8; stroke-dashoffset: 0; stroke: #b0b0b0; stroke-opacity: 0.6; stroke-width: 0.5"/>
     </g>
     <g id="line2d_52">
      <g>
       <use xlink:href="#md6d9f8bc98" x="54.02" y="418.786868" style="stroke: #000000; stroke-width: 0.8"/>
      </g>
     </g>
     <g id="text_27">
      <!-- 1.2 -->
      <g transform="translate(31.116875 422.586086) scale(0.1 -0.1)">
       <use xlink:href="#DejaVuSans-31"/>
       <use xlink:href="#DejaVuSans-2e" transform="translate(63.623047 0)"/>
       <use xlink:href="#DejaVuSans-32" transform="translate(95.410156 0)"/>
      </g>
     </g>
    </g>
    <g id="ytick_11">
     <g id="line2d_53">
      <path d="M 54.02 398.120526 
L 709.2 398.120526 
" clip-path="url(#pd48acdfe00)" style="fill: none; stroke-dasharray: 1.85,0.8; stroke-dashoffset: 0; stroke: #b0b0b0; stroke-opacity: 0.6; stroke-width: 0.5"/>
     </g>
     <g id="line2d_54">
      <g>
       <use xlink:href="#md6d9f8bc98" x="54.02" y="398.120526" style="stroke: #000000; stroke-width: 0.8"/>
      </g>
     </g>
     <g id="text_28">
      <!-- 1.4 -->
      <g transform="translate(31.116875 401.919744) scale(0.1 -0.1)">
       <use xlink:href="#DejaVuSans-31"/>
       <use xlink:href="#DejaVuSans-2e" transform="translate(63.623047 0)"/>
       <use xlink:href="#DejaVuSans-34" transform="translate(95.410156 0)"/>
      </g>
     </g>
    </g>
    <g id="ytick_12">
     <g id="line2d_55">
      <path d="M 54.02 377.454184 
L 709.2 377.454184 
" clip-path="url(#pd48acdfe00)" style="fill: none; stroke-dasharray: 1.85,0.8; stroke-dashoffset: 0; stroke: #b0b0b0; stroke-opacity: 0.6; stroke-width: 0.5"/>
     </g>
     <g id="line2d_56">
      <g>
       <use xlink:href="#md6d9f8bc98" x="54.02" y="377.454184" style="stroke: #000000; stroke-width: 0.8"/>
      </g>
     </g>
     <g id="text_29">
      <!-- 1.6 -->
      <g transform="translate(31.116875 381.253402) scale(0.1 -0.1)">
       <use xlink:href="#DejaVuSans-31"/>
       <use xlink:href="#DejaVuSans-2e" transform="translate(63.623047 0)"/>
       <use xlink:href="#DejaVuSans-36" transform="translate(95.410156 0)"/>
      </g>
     </g>
    </g>
    <g id="ytick_13">
     <g id="line2d_57">
      <path d="M 54.02 356.787841 
L 709.2 356.787841 
" clip-path="url(#pd48acdfe00)" style="fill: none; stroke-dasharray: 1.85,0.8; stroke-dashoffset: 0; stroke: #b0b0b0; stroke-opacity: 0.6; stroke-width: 0.5"/>
     </g>
     <g id="line2d_58">
      <g>
       <use xlink:href="#md6d9f8bc98" x="54.02" y="356.787841" style="stroke: #000000; stroke-width: 0.8"/>
      </g>
     </g>
     <g id="text_30">
      <!-- 1.8 -->
      <g transform="translate(31.116875 360.58706) scale(0.1 -0.1)">
       <use xlink:href="#DejaVuSans-31"/>
       <use xlink:href="#DejaVuSans-2e" transform="translate(63.623047 0)"/>
       <use xlink:href="#DejaVuSans-38" transform="translate(95.410156 0)"/>
      </g>
     </g>
    </g>
    <g id="ytick_14">
     <g id="line2d_59">
      <path d="M 54.02 336.121499 
L 709.2 336.121499 
" clip-path="url(#pd48acdfe00)" style="fill: none; stroke-dasharray: 1.85,0.8; stroke-dashoffset: 0; stroke: #b0b0b0; stroke-opacity: 0.6; stroke-width: 0.5"/>
     </g>
     <g id="line2d_60">
      <g>
       <use xlink:href="#md6d9f8bc98" x="54.02" y="336.121499" style="stroke: #000000; stroke-width: 0.8"/>
      </g>
     </g>
     <g id="text_31">
      <!-- 2.0 -->
      <g transform="translate(31.116875 339.920718) scale(0.1 -0.1)">
       <use xlink:href="#DejaVuSans-32"/>
       <use xlink:href="#DejaVuSans-2e" transform="translate(63.623047 0)"/>
       <use xlink:href="#DejaVuSans-30" transform="translate(95.410156 0)"/>
      </g>
     </g>
    </g>
    <g id="ytick_15">
     <g id="line2d_61">
      <path d="M 54.02 315.455157 
L 709.2 315.455157 
" clip-path="url(#pd48acdfe00)" style="fill: none; stroke-dasharray: 1.85,0.8; stroke-dashoffset: 0; stroke: #b0b0b0; stroke-opacity: 0.6; stroke-width: 0.5"/>
     </g>
     <g id="line2d_62">
      <g>
       <use xlink:href="#md6d9f8bc98" x="54.02" y="315.455157" style="stroke: #000000; stroke-width: 0.8"/>
      </g>
     </g>
     <g id="text_32">
      <!-- 2.2 -->
      <g transform="translate(31.116875 319.254376) scale(0.1 -0.1)">
       <use xlink:href="#DejaVuSans-32"/>
       <use xlink:href="#DejaVuSans-2e" transform="translate(63.623047 0)"/>
       <use xlink:href="#DejaVuSans-32" transform="translate(95.410156 0)"/>
      </g>
     </g>
    </g>
    <g id="ytick_16">
     <g id="line2d_63">
      <path d="M 54.02 294.788815 
L 709.2 294.788815 
" clip-path="url(#pd48acdfe00)" style="fill: none; stroke-dasharray: 1.85,0.8; stroke-dashoffset: 0; stroke: #b0b0b0; stroke-opacity: 0.6; stroke-width: 0.5"/>
     </g>
     <g id="line2d_64">
      <g>
       <use xlink:href="#md6d9f8bc98" x="54.02" y="294.788815" style="stroke: #000000; stroke-width: 0.8"/>
      </g>
     </g>
     <g id="text_33">
      <!-- 2.4 -->
      <g transform="translate(31.116875 298.588034) scale(0.1 -0.1)">
       <use xlink:href="#DejaVuSans-32"/>
       <use xlink:href="#DejaVuSans-2e" transform="translate(63.623047 0)"/>
       <use xlink:href="#DejaVuSans-34" transform="translate(95.410156 0)"/>
      </g>
     </g>
    </g>
    <g id="text_34">
     <!-- x2 -->
     <g transform="translate(25.037188 380.440625) rotate(-90) scale(0.1 -0.1)">
      <use xlink:href="#DejaVuSans-78"/>
      <use xlink:href="#DejaVuSans-32" transform="translate(59.179688 0)"/>
     </g>
    </g>
   </g>
   <g id="line2d_65">
    <path d="M 83.800909 439.52228 
L 85.257415 437.896693 
L 87.450339 433.420655 
L 89.568757 434.099266 
L 90.878379 431.187624 
L 92.407757 427.122413 
L 93.175753 427.913085 
L 93.495938 426.188084 
L 97.968299 421.363717 
L 100.541264 414.421335 
L 100.568564 416.195706 
L 103.687456 409.269229 
L 107.650229 401.93716 
L 107.824981 400.389115 
L 108.101496 399.401409 
L 109.352207 398.507752 
L 114.702154 383.746533 
L 118.613596 374.582413 
L 119.148995 374.552103 
L 123.46619 363.066838 
L 125.638718 355.397176 
L 126.79721 353.333772 
L 127.572504 350.500819 
L 127.664231 349.157948 
L 127.678917 350.39149 
L 130.599937 343.413713 
L 133.817468 336.254661 
L 135.490087 331.773755 
L 136.05948 329.627587 
L 136.757172 327.499132 
L 139.033414 323.056664 
L 139.690433 321.259089 
L 146.650973 306.138767 
L 150.903958 302.442981 
L 152.28946 298.109299 
L 156.924608 292.829073 
L 157.87614 295.582119 
L 158.03831 293.200049 
L 159.390012 291.621455 
L 159.713461 292.516511 
L 159.74007 293.651279 
L 164.336664 294.230325 
L 166.628045 293.077636 
L 168.011103 292.661915 
L 172.502518 294.780424 
L 173.407949 297.138237 
L 181.227941 304.117475 
L 181.332692 304.519975 
L 183.429502 306.721538 
L 185.800548 311.312854 
L 188.422408 315.835902 
L 188.569307 315.230779 
L 189.507996 317.963131 
L 192.785472 323.064037 
L 192.923454 321.107722 
L 195.650517 327.693851 
L 197.50854 330.417867 
L 199.606963 336.420717 
L 200.19106 335.071845 
L 201.462195 336.992157 
L 202.225814 338.94223 
L 202.695 343.412686 
L 202.824712 339.05266 
L 218.57029 368.698662 
L 219.339923 367.90448 
L 221.421858 373.721632 
L 222.455897 374.448086 
L 226.636073 380.492348 
L 228.013989 384.146441 
L 230.84015 389.83536 
L 231.282735 387.813596 
L 238.283739 401.481496 
L 242.624727 404.586466 
L 244.809322 408.820546 
L 244.839238 408.105072 
L 247.236454 412.283502 
L 250.960633 417.197305 
L 255.888735 421.042947 
L 255.94278 420.453676 
L 259.230654 427.788624 
L 262.081682 428.595408 
L 262.688562 430.319245 
L 268.152659 433.911599 
L 268.979857 433.513802 
L 272.386404 438.36032 
L 273.625452 438.590446 
L 274.619782 440.34787 
L 275.926888 440.148163 
L 276.17623 442.800316 
L 278.123303 443.745301 
L 279.57913 443.846663 
L 280.722404 442.986174 
L 284.439369 445.7566 
L 285.51132 447.221157 
L 289.33435 448.358784 
L 293.065417 450.493498 
L 297.391293 453.756317 
L 300.087504 453.606532 
L 300.394601 452.368203 
L 301.723487 454.576579 
L 301.761731 453.562157 
L 304.327389 454.422748 
L 311.118232 453.602398 
L 311.742148 453.937428 
L 312.85509 454.258264 
L 315.477469 453.862748 
L 315.988118 455.743585 
L 317.457285 455.005095 
L 317.599825 454.706361 
L 317.633163 453.406395 
L 319.133974 454.738424 
L 319.674645 454.604859 
L 319.952804 455.347178 
L 325.326741 454.205779 
L 326.496874 454.326212 
L 326.758243 452.621403 
L 330.312288 450.530307 
L 331.363531 451.771092 
L 331.798598 452.099761 
L 336.126847 448.213183 
L 336.161993 447.664539 
L 336.789463 447.315023 
L 337.009953 448.773065 
L 337.680392 446.649807 
L 339.658588 445.651487 
L 340.39613 445.136611 
L 340.709603 447.118008 
L 346.045083 439.213487 
L 346.731105 437.116251 
L 348.150487 436.525306 
L 352.683176 432.650058 
L 358.482034 423.461382 
L 358.667361 423.527372 
L 365.804083 411.951059 
L 368.102372 404.571063 
L 368.114256 405.288055 
L 370.397146 399.183579 
L 371.157463 398.033204 
L 373.09232 395.499034 
L 373.890782 393.712077 
L 375.689556 388.709524 
L 375.691653 388.924333 
L 380.305364 377.868376 
L 380.813808 374.614409 
L 382.291409 371.181485 
L 382.33742 371.297365 
L 384.550522 366.940707 
L 386.816635 360.823075 
L 388.750417 352.55902 
L 389.626989 353.463884 
L 389.976545 351.90316 
L 396.355081 336.139749 
L 397.901034 330.902766 
L 399.866641 327.616265 
L 401.568408 322.268126 
L 405.615595 314.009795 
L 407.094664 312.315917 
L 407.125276 309.716523 
L 408.418053 307.851228 
L 413.787182 299.208318 
L 414.670828 299.062091 
L 416.855805 298.350851 
L 418.485909 294.475973 
L 419.038454 295.710732 
L 419.534992 295.220819 
L 420.83805 292.932135 
L 423.594175 295.68836 
L 424.585328 292.707195 
L 425.010015 292.627712 
L 425.090213 292.893126 
L 426.791922 292.951115 
L 428.769438 291.600504 
L 429.156608 293.339598 
L 429.40909 292.481508 
L 430.34943 292.753444 
L 433.809156 294.494429 
L 433.91508 293.822267 
L 435.157661 297.399259 
L 436.047835 294.64628 
L 438.694605 299.271514 
L 443.437966 305.410239 
L 443.802257 306.096436 
L 446.064779 308.775299 
L 448.874601 313.326745 
L 450.687646 313.764757 
L 451.292199 315.846433 
L 454.176963 320.574913 
L 455.953639 322.041754 
L 457.936815 325.721893 
L 459.491232 327.486427 
L 462.45575 332.358088 
L 464.183444 336.662627 
L 469.610417 346.884599 
L 470.294209 349.103199 
L 472.247778 351.716396 
L 473.535494 352.036063 
L 475.033032 356.918919 
L 482.661667 371.222257 
L 483.959625 371.918585 
L 484.295738 375.697585 
L 485.114542 375.019345 
L 485.432247 374.57459 
L 486.15327 377.497571 
L 486.789697 378.742274 
L 492.317321 387.753658 
L 493.208461 388.160602 
L 494.943945 390.767112 
L 499.549036 398.396426 
L 502.783779 401.630804 
L 503.431135 404.366207 
L 504.10848 403.409192 
L 508.346952 411.294425 
L 508.70959 410.465986 
L 509.609854 411.906594 
L 510.580678 412.9417 
L 511.854558 415.181849 
L 513.329754 415.500475 
L 514.685143 416.136501 
L 517.309522 420.4354 
L 517.454495 420.896437 
L 519.469773 422.166465 
L 519.564702 424.012906 
L 520.969192 425.578807 
L 522.449337 426.721252 
L 528.193308 432.326034 
L 528.362538 432.248031 
L 530.673399 435.477335 
L 533.779042 437.278131 
L 536.4703 440.328386 
L 541.229774 442.974093 
L 542.266466 444.492192 
L 545.251957 444.769676 
L 547.069437 444.266029 
L 550.355083 447.122214 
L 555.113366 450.91803 
L 555.168885 450.074364 
L 555.418735 451.60313 
L 559.396977 452.743858 
L 559.585126 452.126591 
L 561.112961 451.576852 
L 562.140993 453.154518 
L 562.716676 453.622405 
L 566.454519 454.380599 
L 567.394943 454.800429 
L 568.963062 454.772117 
L 569.505977 453.957911 
L 569.521597 455.107572 
L 569.679223 454.91818 
L 571.065037 454.141763 
L 572.419739 454.68918 
L 574.201449 454.331289 
L 574.960671 455.5734 
L 575.159299 456.31241 
L 575.801621 456.999496 
L 577.101623 453.644847 
L 579.399928 454.062098 
L 581.096825 455.407514 
L 582.497317 453.869288 
L 586.278716 452.567069 
L 587.756416 453.399292 
L 590.445393 452.589587 
L 592.587128 450.5968 
L 595.890131 450.213008 
L 597.860052 449.16248 
L 599.203505 446.878343 
L 599.305196 448.588174 
L 599.340278 448.246047 
L 599.61581 448.594989 
L 599.70313 447.396805 
L 600.295848 448.141 
L 602.731113 446.206966 
L 605.52028 442.948669 
L 607.289732 440.434064 
L 607.913888 440.038628 
L 609.448904 439.217472 
L 610.17127 438.55193 
L 611.432853 436.144886 
L 614.240691 433.061123 
L 615.058927 430.503999 
L 615.528844 434.724788 
L 619.428425 426.447394 
L 620.636817 425.94195 
L 627.467035 413.375603 
L 628.880737 409.919173 
L 628.960585 412.151032 
L 629.519325 407.619883 
L 629.607096 409.805995 
L 630.495103 406.072189 
L 635.398018 396.963048 
L 636.703131 393.070136 
L 637.563466 392.701113 
L 637.724408 390.397863 
L 638.728324 388.000704 
L 639.871331 384.204116 
L 640.49411 382.833355 
L 641.515311 383.779655 
L 641.679379 380.546733 
L 642.294115 378.781994 
L 647.435503 365.255137 
L 647.509387 365.922748 
L 650.581699 358.74109 
L 653.955475 348.821312 
L 655.520645 344.815369 
L 656.239665 341.023076 
L 656.636388 341.014664 
L 658.635177 337.488491 
L 658.991294 336.164078 
L 661.923084 328.038711 
L 664.732736 321.491177 
L 665.542654 320.758728 
L 667.023122 315.413138 
L 668.100585 313.721196 
L 668.950774 313.878759 
L 669.635846 312.468859 
L 669.850754 310.456997 
L 670.229119 311.069575 
L 670.297451 308.942161 
L 674.331916 303.139329 
L 676.320216 301.712049 
L 677.517262 298.737233 
L 678.049351 298.360397 
L 678.156391 299.919125 
L 679.299811 296.329697 
L 679.299811 296.329697 
" clip-path="url(#pd48acdfe00)" style="fill: none; stroke: #ff8c00; stroke-opacity: 0.7; stroke-width: 1.5; stroke-linecap: square"/>
   </g>
   <g id="line2d_66">
    <path d="M 85.257415 437.699044 
L 90.878379 430.779454 
L 90.878379 430.779454 
L 93.175753 427.533441 
L 97.968299 419.942697 
L 100.568564 415.349771 
L 103.687456 409.396718 
L 109.352207 397.37679 
L 109.352207 397.37679 
L 119.148995 373.427636 
L 119.148995 373.427636 
L 135.490087 330.61528 
L 137.843007 324.997217 
L 139.690433 320.803946 
L 139.690433 320.803946 
L 150.903958 300.903705 
L 150.903958 300.903705 
L 156.924608 295.007603 
L 156.924608 295.007603 
L 157.87614 294.407113 
L 159.74007 293.492089 
L 164.336664 292.680557 
L 164.336664 292.680557 
L 170.536576 294.623772 
L 173.407949 296.580387 
L 181.332692 304.83166 
L 185.800548 310.9514 
L 185.800548 310.9514 
L 188.569307 315.143441 
L 192.923454 322.211385 
L 199.606963 333.831153 
L 199.606963 333.831153 
L 202.824712 339.617984 
L 219.339923 369.305077 
L 219.339923 369.305077 
L 222.455897 374.672906 
L 222.455897 374.672906 
L 230.84015 388.452335 
L 238.283739 399.735025 
L 244.839238 408.850144 
L 247.236454 411.983427 
L 255.94278 422.44453 
L 255.94278 422.44453 
L 259.230654 426.018098 
L 262.688562 429.553474 
L 272.386404 438.254327 
L 272.386404 438.254327 
L 276.17623 441.170569 
L 276.17623 441.170569 
L 279.57913 443.558211 
L 285.51132 447.197874 
L 289.325837 449.185527 
L 289.325837 449.185527 
L 293.065417 450.863379 
L 297.391293 452.464903 
L 301.761731 453.704962 
L 301.761731 453.704962 
L 304.327389 454.251287 
L 312.85509 455.055003 
L 312.85509 455.055003 
L 317.457285 454.802478 
L 319.952804 454.449857 
L 326.496874 452.751283 
L 326.496874 452.751283 
L 331.798598 450.48201 
L 331.798598 450.48201 
L 337.009953 447.385228 
L 337.009953 447.385228 
L 337.680392 446.919866 
L 340.709603 444.615486 
L 340.709603 444.615486 
L 346.731105 438.990254 
L 352.683176 431.934734 
L 358.667361 423.196783 
L 358.667361 423.196783 
L 365.804083 410.483677 
L 368.114256 405.827779 
L 368.114256 405.827779 
L 373.890782 393.084088 
L 373.890782 393.084088 
L 375.691653 388.81349 
L 375.691653 388.81349 
L 382.33742 372.070373 
L 396.355081 335.096032 
L 399.866641 326.50634 
L 399.866641 326.50634 
L 401.568408 322.571109 
L 405.615595 313.964252 
L 407.125276 311.064493 
L 407.125276 311.064493 
L 413.787182 300.630912 
L 416.855805 297.240239 
L 416.855805 297.240239 
L 419.038454 295.399005 
L 420.83805 294.239843 
L 425.010015 292.784932 
L 425.010015 292.784932 
L 426.791922 292.674182 
L 429.40909 293.040502 
L 430.34943 293.320205 
L 430.34943 293.320205 
L 432.134452 294.057252 
L 432.134452 294.057252 
L 433.809156 294.984167 
L 436.047835 296.558643 
L 438.694605 298.878251 
L 443.802257 304.581627 
L 446.064779 307.549713 
L 450.687646 314.290776 
L 454.176963 319.860949 
L 454.176963 319.860949 
L 464.183444 337.254786 
L 464.183444 337.254786 
L 475.033032 356.928075 
L 486.15327 376.419745 
L 486.15327 376.419745 
L 494.943945 390.702884 
L 499.549036 397.683165 
L 499.549036 397.683165 
L 504.10848 404.22366 
L 509.609854 411.604573 
L 514.685143 417.90708 
L 517.454495 421.138884 
L 517.454495 421.138884 
L 522.449337 426.596695 
L 522.449337 426.596695 
L 528.362538 432.441701 
L 533.779042 437.212145 
L 542.266466 443.57131 
L 547.069437 446.567625 
L 547.069437 446.567625 
L 550.355083 448.365711 
L 555.418735 450.732708 
L 559.585126 452.307398 
L 562.716676 453.264868 
L 562.716676 453.264868 
L 569.679223 454.675025 
L 571.065037 454.833399 
L 575.801621 455.053855 
L 579.399928 454.875878 
L 579.399928 454.875878 
L 587.756416 453.21545 
L 587.756416 453.21545 
L 590.445393 452.279744 
L 590.445393 452.279744 
L 595.890131 449.724833 
L 600.295848 446.956603 
L 605.52028 442.77804 
L 605.52028 442.77804 
L 610.17127 438.161732 
L 610.17127 438.161732 
L 611.432853 436.753908 
L 615.528844 431.699143 
L 620.636817 424.305307 
L 620.636817 424.305307 
L 627.467035 412.426527 
L 627.467035 412.426527 
L 630.495103 406.420093 
L 636.703131 392.745926 
L 636.703131 392.745926 
L 640.49411 383.589514 
L 640.49411 383.589514 
L 642.294115 379.06309 
L 650.581699 357.268743 
L 650.581699 357.268743 
L 658.635177 336.076816 
L 658.635177 336.076816 
L 661.923084 327.958843 
L 667.023122 316.520377 
L 669.635846 311.357967 
L 669.635846 311.357967 
L 670.229119 310.261351 
L 674.331916 303.513506 
L 677.517262 299.35198 
L 679.419091 297.340312 
L 679.419091 297.340312 
" clip-path="url(#pd48acdfe00)" style="fill: none; stroke: #000080; stroke-opacity: 0.9; stroke-width: 1.5; stroke-linecap: square"/>
   </g>
   <g id="patch_9">
    <path d="M 54.02 465.269446 
L 54.02 283.330554 
" style="fill: none; stroke: #000000; stroke-width: 0.8; stroke-linejoin: miter; stroke-linecap: square"/>
   </g>
   <g id="patch_10">
    <path d="M 709.2 465.269446 
L 709.2 283.330554 
" style="fill: none; stroke: #000000; stroke-width: 0.8; stroke-linejoin: miter; stroke-linecap: square"/>
   </g>
   <g id="patch_11">
    <path d="M 54.02 465.269446 
L 709.2 465.269446 
" style="fill: none; stroke: #000000; stroke-width: 0.8; stroke-linejoin: miter; stroke-linecap: square"/>
   </g>
   <g id="patch_12">
    <path d="M 54.02 283.330554 
L 709.2 283.330554 
" style="fill: none; stroke: #000000; stroke-width: 0.8; stroke-linejoin: miter; stroke-linecap: square"/>
   </g>
  </g>
  <g id="axes_3">
   <g id="patch_13">
    <path d="M 54.02 678.04 
L 709.2 678.04 
L 709.2 496.101108 
L 54.02 496.101108 
z
" style="fill: #ffffff"/>
   </g>
   <g id="matplotlib.axis_5">
    <g id="xtick_15">
     <g id="line2d_67">
      <path d="M 122.52821 678.04 
L 122.52821 496.101108 
" clip-path="url(#p6051299066)" style="fill: none; stroke-dasharray: 1.85,0.8; stroke-dashoffset: 0; stroke: #b0b0b0; stroke-opacity: 0.6; stroke-width: 0.5"/>
     </g>
     <g id="line2d_68">
      <g>
       <use xlink:href="#mc2c5efa365" x="122.52821" y="678.04" style="stroke: #000000; stroke-width: 0.8"/>
      </g>
     </g>
     <g id="text_35">
      <!-- 0.75 -->
      <g transform="translate(111.395398 692.638438) scale(0.1 -0.1)">
       <use xlink:href="#DejaVuSans-30"/>
       <use xlink:href="#DejaVuSans-2e" transform="translate(63.623047 0)"/>
       <use xlink:href="#DejaVuSans-37" transform="translate(95.410156 0)"/>
       <use xlink:href="#DejaVuSans-35" transform="translate(159.033203 0)"/>
      </g>
     </g>
    </g>
    <g id="xtick_16">
     <g id="line2d_69">
      <path d="M 207.330459 678.04 
L 207.330459 496.101108 
" clip-path="url(#p6051299066)" style="fill: none; stroke-dasharray: 1.85,0.8; stroke-dashoffset: 0; stroke: #b0b0b0; stroke-opacity: 0.6; stroke-width: 0.5"/>
     </g>
     <g id="line2d_70">
      <g>
       <use xlink:href="#mc2c5efa365" x="207.330459" y="678.04" style="stroke: #000000; stroke-width: 0.8"/>
      </g>
     </g>
     <g id="text_36">
      <!-- 1.00 -->
      <g transform="translate(196.197646 692.638438) scale(0.1 -0.1)">
       <use xlink:href="#DejaVuSans-31"/>
       <use xlink:href="#DejaVuSans-2e" transform="translate(63.623047 0)"/>
       <use xlink:href="#DejaVuSans-30" transform="translate(95.410156 0)"/>
       <use xlink:href="#DejaVuSans-30" transform="translate(159.033203 0)"/>
      </g>
     </g>
    </g>
    <g id="xtick_17">
     <g id="line2d_71">
      <path d="M 292.132707 678.04 
L 292.132707 496.101108 
" clip-path="url(#p6051299066)" style="fill: none; stroke-dasharray: 1.85,0.8; stroke-dashoffset: 0; stroke: #b0b0b0; stroke-opacity: 0.6; stroke-width: 0.5"/>
     </g>
     <g id="line2d_72">
      <g>
       <use xlink:href="#mc2c5efa365" x="292.132707" y="678.04" style="stroke: #000000; stroke-width: 0.8"/>
      </g>
     </g>
     <g id="text_37">
      <!-- 1.25 -->
      <g transform="translate(280.999895 692.638438) scale(0.1 -0.1)">
       <use xlink:href="#DejaVuSans-31"/>
       <use xlink:href="#DejaVuSans-2e" transform="translate(63.623047 0)"/>
       <use xlink:href="#DejaVuSans-32" transform="translate(95.410156 0)"/>
       <use xlink:href="#DejaVuSans-35" transform="translate(159.033203 0)"/>
      </g>
     </g>
    </g>
    <g id="xtick_18">
     <g id="line2d_73">
      <path d="M 376.934956 678.04 
L 376.934956 496.101108 
" clip-path="url(#p6051299066)" style="fill: none; stroke-dasharray: 1.85,0.8; stroke-dashoffset: 0; stroke: #b0b0b0; stroke-opacity: 0.6; stroke-width: 0.5"/>
     </g>
     <g id="line2d_74">
      <g>
       <use xlink:href="#mc2c5efa365" x="376.934956" y="678.04" style="stroke: #000000; stroke-width: 0.8"/>
      </g>
     </g>
     <g id="text_38">
      <!-- 1.50 -->
      <g transform="translate(365.802143 692.638438) scale(0.1 -0.1)">
       <use xlink:href="#DejaVuSans-31"/>
       <use xlink:href="#DejaVuSans-2e" transform="translate(63.623047 0)"/>
       <use xlink:href="#DejaVuSans-35" transform="translate(95.410156 0)"/>
       <use xlink:href="#DejaVuSans-30" transform="translate(159.033203 0)"/>
      </g>
     </g>
    </g>
    <g id="xtick_19">
     <g id="line2d_75">
      <path d="M 461.737204 678.04 
L 461.737204 496.101108 
" clip-path="url(#p6051299066)" style="fill: none; stroke-dasharray: 1.85,0.8; stroke-dashoffset: 0; stroke: #b0b0b0; stroke-opacity: 0.6; stroke-width: 0.5"/>
     </g>
     <g id="line2d_76">
      <g>
       <use xlink:href="#mc2c5efa365" x="461.737204" y="678.04" style="stroke: #000000; stroke-width: 0.8"/>
      </g>
     </g>
     <g id="text_39">
      <!-- 1.75 -->
      <g transform="translate(450.604392 692.638438) scale(0.1 -0.1)">
       <use xlink:href="#DejaVuSans-31"/>
       <use xlink:href="#DejaVuSans-2e" transform="translate(63.623047 0)"/>
       <use xlink:href="#DejaVuSans-37" transform="translate(95.410156 0)"/>
       <use xlink:href="#DejaVuSans-35" transform="translate(159.033203 0)"/>
      </g>
     </g>
    </g>
    <g id="xtick_20">
     <g id="line2d_77">
      <path d="M 546.539453 678.04 
L 546.539453 496.101108 
" clip-path="url(#p6051299066)" style="fill: none; stroke-dasharray: 1.85,0.8; stroke-dashoffset: 0; stroke: #b0b0b0; stroke-opacity: 0.6; stroke-width: 0.5"/>
     </g>
     <g id="line2d_78">
      <g>
       <use xlink:href="#mc2c5efa365" x="546.539453" y="678.04" style="stroke: #000000; stroke-width: 0.8"/>
      </g>
     </g>
     <g id="text_40">
      <!-- 2.00 -->
      <g transform="translate(535.40664 692.638438) scale(0.1 -0.1)">
       <use xlink:href="#DejaVuSans-32"/>
       <use xlink:href="#DejaVuSans-2e" transform="translate(63.623047 0)"/>
       <use xlink:href="#DejaVuSans-30" transform="translate(95.410156 0)"/>
       <use xlink:href="#DejaVuSans-30" transform="translate(159.033203 0)"/>
      </g>
     </g>
    </g>
    <g id="xtick_21">
     <g id="line2d_79">
      <path d="M 631.341701 678.04 
L 631.341701 496.101108 
" clip-path="url(#p6051299066)" style="fill: none; stroke-dasharray: 1.85,0.8; stroke-dashoffset: 0; stroke: #b0b0b0; stroke-opacity: 0.6; stroke-width: 0.5"/>
     </g>
     <g id="line2d_80">
      <g>
       <use xlink:href="#mc2c5efa365" x="631.341701" y="678.04" style="stroke: #000000; stroke-width: 0.8"/>
      </g>
     </g>
     <g id="text_41">
      <!-- 2.25 -->
      <g transform="translate(620.208889 692.638438) scale(0.1 -0.1)">
       <use xlink:href="#DejaVuSans-32"/>
       <use xlink:href="#DejaVuSans-2e" transform="translate(63.623047 0)"/>
       <use xlink:href="#DejaVuSans-32" transform="translate(95.410156 0)"/>
       <use xlink:href="#DejaVuSans-35" transform="translate(159.033203 0)"/>
      </g>
     </g>
    </g>
    <g id="text_42">
     <!-- x1 -->
     <g transform="translate(375.469375 706.316563) scale(0.1 -0.1)">
      <use xlink:href="#DejaVuSans-78"/>
      <use xlink:href="#DejaVuSans-31" transform="translate(59.179688 0)"/>
     </g>
    </g>
   </g>
   <g id="matplotlib.axis_6">
    <g id="ytick_17">
     <g id="line2d_81">
      <path d="M 54.02 672.890106 
L 709.2 672.890106 
" clip-path="url(#p6051299066)" style="fill: none; stroke-dasharray: 1.85,0.8; stroke-dashoffset: 0; stroke: #b0b0b0; stroke-opacity: 0.6; stroke-width: 0.5"/>
     </g>
     <g id="line2d_82">
      <g>
       <use xlink:href="#md6d9f8bc98" x="54.02" y="672.890106" style="stroke: #000000; stroke-width: 0.8"/>
      </g>
     </g>
     <g id="text_43">
      <!-- 0.8 -->
      <g transform="translate(31.116875 676.689325) scale(0.1 -0.1)">
       <use xlink:href="#DejaVuSans-30"/>
       <use xlink:href="#DejaVuSans-2e" transform="translate(63.623047 0)"/>
       <use xlink:href="#DejaVuSans-38" transform="translate(95.410156 0)"/>
      </g>
     </g>
    </g>
    <g id="ytick_18">
     <g id="line2d_83">
      <path d="M 54.02 652.223764 
L 709.2 652.223764 
" clip-path="url(#p6051299066)" style="fill: none; stroke-dasharray: 1.85,0.8; stroke-dashoffset: 0; stroke: #b0b0b0; stroke-opacity: 0.6; stroke-width: 0.5"/>
     </g>
     <g id="line2d_84">
      <g>
       <use xlink:href="#md6d9f8bc98" x="54.02" y="652.223764" style="stroke: #000000; stroke-width: 0.8"/>
      </g>
     </g>
     <g id="text_44">
      <!-- 1.0 -->
      <g transform="translate(31.116875 656.022983) scale(0.1 -0.1)">
       <use xlink:href="#DejaVuSans-31"/>
       <use xlink:href="#DejaVuSans-2e" transform="translate(63.623047 0)"/>
       <use xlink:href="#DejaVuSans-30" transform="translate(95.410156 0)"/>
      </g>
     </g>
    </g>
    <g id="ytick_19">
     <g id="line2d_85">
      <path d="M 54.02 631.557422 
L 709.2 631.557422 
" clip-path="url(#p6051299066)" style="fill: none; stroke-dasharray: 1.85,0.8; stroke-dashoffset: 0; stroke: #b0b0b0; stroke-opacity: 0.6; stroke-width: 0.5"/>
     </g>
     <g id="line2d_86">
      <g>
       <use xlink:href="#md6d9f8bc98" x="54.02" y="631.557422" style="stroke: #000000; stroke-width: 0.8"/>
      </g>
     </g>
     <g id="text_45">
      <!-- 1.2 -->
      <g transform="translate(31.116875 635.356641) scale(0.1 -0.1)">
       <use xlink:href="#DejaVuSans-31"/>
       <use xlink:href="#DejaVuSans-2e" transform="translate(63.623047 0)"/>
       <use xlink:href="#DejaVuSans-32" transform="translate(95.410156 0)"/>
      </g>
     </g>
    </g>
    <g id="ytick_20">
     <g id="line2d_87">
      <path d="M 54.02 610.89108 
L 709.2 610.89108 
" clip-path="url(#p6051299066)" style="fill: none; stroke-dasharray: 1.85,0.8; stroke-dashoffset: 0; stroke: #b0b0b0; stroke-opacity: 0.6; stroke-width: 0.5"/>
     </g>
     <g id="line2d_88">
      <g>
       <use xlink:href="#md6d9f8bc98" x="54.02" y="610.89108" style="stroke: #000000; stroke-width: 0.8"/>
      </g>
     </g>
     <g id="text_46">
      <!-- 1.4 -->
      <g transform="translate(31.116875 614.690298) scale(0.1 -0.1)">
       <use xlink:href="#DejaVuSans-31"/>
       <use xlink:href="#DejaVuSans-2e" transform="translate(63.623047 0)"/>
       <use xlink:href="#DejaVuSans-34" transform="translate(95.410156 0)"/>
      </g>
     </g>
    </g>
    <g id="ytick_21">
     <g id="line2d_89">
      <path d="M 54.02 590.224738 
L 709.2 590.224738 
" clip-path="url(#p6051299066)" style="fill: none; stroke-dasharray: 1.85,0.8; stroke-dashoffset: 0; stroke: #b0b0b0; stroke-opacity: 0.6; stroke-width: 0.5"/>
     </g>
     <g id="line2d_90">
      <g>
       <use xlink:href="#md6d9f8bc98" x="54.02" y="590.224738" style="stroke: #000000; stroke-width: 0.8"/>
      </g>
     </g>
     <g id="text_47">
      <!-- 1.6 -->
      <g transform="translate(31.116875 594.023956) scale(0.1 -0.1)">
       <use xlink:href="#DejaVuSans-31"/>
       <use xlink:href="#DejaVuSans-2e" transform="translate(63.623047 0)"/>
       <use xlink:href="#DejaVuSans-36" transform="translate(95.410156 0)"/>
      </g>
     </g>
    </g>
    <g id="ytick_22">
     <g id="line2d_91">
      <path d="M 54.02 569.558396 
L 709.2 569.558396 
" clip-path="url(#p6051299066)" style="fill: none; stroke-dasharray: 1.85,0.8; stroke-dashoffset: 0; stroke: #b0b0b0; stroke-opacity: 0.6; stroke-width: 0.5"/>
     </g>
     <g id="line2d_92">
      <g>
       <use xlink:href="#md6d9f8bc98" x="54.02" y="569.558396" style="stroke: #000000; stroke-width: 0.8"/>
      </g>
     </g>
     <g id="text_48">
      <!-- 1.8 -->
      <g transform="translate(31.116875 573.357614) scale(0.1 -0.1)">
       <use xlink:href="#DejaVuSans-31"/>
       <use xlink:href="#DejaVuSans-2e" transform="translate(63.623047 0)"/>
       <use xlink:href="#DejaVuSans-38" transform="translate(95.410156 0)"/>
      </g>
     </g>
    </g>
    <g id="ytick_23">
     <g id="line2d_93">
      <path d="M 54.02 548.892053 
L 709.2 548.892053 
" clip-path="url(#p6051299066)" style="fill: none; stroke-dasharray: 1.85,0.8; stroke-dashoffset: 0; stroke: #b0b0b0; stroke-opacity: 0.6; stroke-width: 0.5"/>
     </g>
     <g id="line2d_94">
      <g>
       <use xlink:href="#md6d9f8bc98" x="54.02" y="548.892053" style="stroke: #000000; stroke-width: 0.8"/>
      </g>
     </g>
     <g id="text_49">
      <!-- 2.0 -->
      <g transform="translate(31.116875 552.691272) scale(0.1 -0.1)">
       <use xlink:href="#DejaVuSans-32"/>
       <use xlink:href="#DejaVuSans-2e" transform="translate(63.623047 0)"/>
       <use xlink:href="#DejaVuSans-30" transform="translate(95.410156 0)"/>
      </g>
     </g>
    </g>
    <g id="ytick_24">
     <g id="line2d_95">
      <path d="M 54.02 528.225711 
L 709.2 528.225711 
" clip-path="url(#p6051299066)" style="fill: none; stroke-dasharray: 1.85,0.8; stroke-dashoffset: 0; stroke: #b0b0b0; stroke-opacity: 0.6; stroke-width: 0.5"/>
     </g>
     <g id="line2d_96">
      <g>
       <use xlink:href="#md6d9f8bc98" x="54.02" y="528.225711" style="stroke: #000000; stroke-width: 0.8"/>
      </g>
     </g>
     <g id="text_50">
      <!-- 2.2 -->
      <g transform="translate(31.116875 532.02493) scale(0.1 -0.1)">
       <use xlink:href="#DejaVuSans-32"/>
       <use xlink:href="#DejaVuSans-2e" transform="translate(63.623047 0)"/>
       <use xlink:href="#DejaVuSans-32" transform="translate(95.410156 0)"/>
      </g>
     </g>
    </g>
    <g id="ytick_25">
     <g id="line2d_97">
      <path d="M 54.02 507.559369 
L 709.2 507.559369 
" clip-path="url(#p6051299066)" style="fill: none; stroke-dasharray: 1.85,0.8; stroke-dashoffset: 0; stroke: #b0b0b0; stroke-opacity: 0.6; stroke-width: 0.5"/>
     </g>
     <g id="line2d_98">
      <g>
       <use xlink:href="#md6d9f8bc98" x="54.02" y="507.559369" style="stroke: #000000; stroke-width: 0.8"/>
      </g>
     </g>
     <g id="text_51">
      <!-- 2.4 -->
      <g transform="translate(31.116875 511.358588) scale(0.1 -0.1)">
       <use xlink:href="#DejaVuSans-32"/>
       <use xlink:href="#DejaVuSans-2e" transform="translate(63.623047 0)"/>
       <use xlink:href="#DejaVuSans-34" transform="translate(95.410156 0)"/>
      </g>
     </g>
    </g>
    <g id="text_52">
     <!-- x2 -->
     <g transform="translate(25.037188 593.211179) rotate(-90) scale(0.1 -0.1)">
      <use xlink:href="#DejaVuSans-78"/>
      <use xlink:href="#DejaVuSans-32" transform="translate(59.179688 0)"/>
     </g>
    </g>
   </g>
   <g id="line2d_99">
    <path d="M 548.705731 652.292834 
L 552.754331 650.667247 
L 571.972149 646.191209 
L 587.631646 646.86982 
L 600.452186 643.958178 
L 599.693574 639.892967 
L 606.940653 640.683639 
L 609.670859 638.958638 
L 635.713068 634.134271 
L 650.64165 627.191889 
L 642.689913 628.96626 
L 652.358158 622.039783 
L 664.162767 614.707714 
L 669.469936 613.159669 
L 665.924 612.171963 
L 674.038216 611.278306 
L 670.156369 596.517087 
L 669.777818 587.352967 
L 670.146448 587.322658 
L 655.785124 581.717615 
L 656.506846 577.882186 
L 652.646346 576.774795 
L 650.79388 575.837392 
L 644.703623 568.16773 
L 636.066746 566.104326 
L 631.596078 563.271373 
L 633.366201 561.928502 
L 629.267382 563.162044 
L 616.934037 556.184267 
L 594.895179 549.025215 
L 590.99783 545.950667 
L 583.167001 544.544309 
L 579.406079 542.398141 
L 570.364443 540.269686 
L 564.50879 538.100032 
L 540.502965 535.827218 
L 545.441121 534.029643 
L 482.874285 518.909321 
L 438.75185 515.213535 
L 430.611671 510.879853 
L 381.065113 505.599627 
L 372.123667 508.352673 
L 371.292793 505.970603 
L 356.376453 504.392009 
L 353.612904 505.287065 
L 358.262679 506.421833 
L 320.398003 507.000879 
L 302.756058 505.84819 
L 285.515551 505.43247 
L 261.360265 507.550978 
L 252.754529 509.908791 
L 201.426336 516.888029 
L 200.442501 517.290529 
L 191.076923 519.492092 
L 177.858005 524.083408 
L 163.783895 528.606456 
L 169.951262 528.001333 
L 164.761446 530.733685 
L 142.963796 535.834591 
L 152.932338 533.878277 
L 140.905406 540.464405 
L 133.578861 543.188421 
L 126.866537 549.191271 
L 123.554511 547.842399 
L 128.324982 549.762711 
L 126.049424 551.712784 
L 119.315474 556.183241 
L 121.437613 551.823215 
L 102.983332 577.64321 
L 95.65224 580.89534 
L 91.056028 581.469216 
L 93.226457 580.675034 
L 92.882196 586.492186 
L 92.724556 587.21864 
L 88.209264 593.262902 
L 83.800909 596.916995 
L 92.268654 602.605915 
L 91.257447 600.58415 
L 93.611279 614.25205 
L 92.462169 617.35702 
L 97.835424 621.5911 
L 98.348022 620.875626 
L 96.873729 625.054056 
L 104.246199 629.967859 
L 110.587953 633.813501 
L 107.846079 633.22423 
L 123.232778 640.559178 
L 121.91364 641.365962 
L 121.057783 643.089799 
L 135.163991 646.682154 
L 136.277561 646.284356 
L 147.906696 651.130874 
L 155.281976 651.361 
L 154.460433 653.118424 
L 163.204545 652.918717 
L 157.108541 655.57087 
L 165.053965 656.515855 
L 162.629298 656.617218 
L 173.175573 655.756728 
L 186.12061 658.527154 
L 184.933014 659.991711 
L 204.226716 661.129338 
L 217.628446 663.264052 
L 240.134763 666.526871 
L 252.184253 666.377086 
L 246.632901 665.138757 
L 258.457546 667.347133 
L 258.597017 666.332711 
L 278.14151 667.193302 
L 312.028619 666.372952 
L 318.967489 667.028818 
L 336.163871 666.633302 
L 336.088601 668.514139 
L 352.914191 667.775649 
L 348.285782 667.476915 
L 347.373609 666.176949 
L 354.966259 667.508978 
L 363.837567 667.375413 
L 361.725498 668.117732 
L 401.353377 666.976333 
L 410.042562 667.096766 
L 407.750874 665.391957 
L 429.933223 663.300861 
L 441.471466 664.541646 
L 439.435699 664.870315 
L 453.444467 663.795948 
L 470.565159 660.983737 
L 483.170048 660.435093 
L 482.489795 660.085577 
L 484.124428 661.543619 
L 484.771619 659.420361 
L 500.210694 658.422041 
L 503.233822 657.907165 
L 505.08212 659.888562 
L 540.823745 651.984041 
L 559.421485 649.29586 
L 591.374682 645.420612 
L 615.797532 636.231936 
L 616.545224 636.297926 
L 655.841499 624.721613 
L 661.080741 617.341617 
L 662.230534 618.058609 
L 669.599153 611.954133 
L 668.496137 610.803758 
L 670.581438 608.269588 
L 672.488694 606.898718 
L 669.630958 606.482631 
L 664.681534 601.480078 
L 668.181113 601.694887 
L 674.034514 590.63893 
L 666.398583 587.384963 
L 666.953907 583.952039 
L 663.784025 584.06792 
L 656.303195 579.711261 
L 652.147828 573.593629 
L 643.909839 565.329574 
L 631.131329 566.234438 
L 638.795073 564.673714 
L 597.822999 548.910303 
L 586.303884 545.155496 
L 582.545468 543.67332 
L 562.037202 540.386819 
L 556.465987 535.03868 
L 515.64938 526.780349 
L 502.646398 525.086471 
L 497.759251 522.487077 
L 489.390597 520.621782 
L 435.120545 511.978872 
L 401.448553 511.121405 
L 397.923939 507.246527 
L 386.05155 508.481286 
L 386.127634 507.991373 
L 366.206961 505.70269 
L 347.507758 508.458914 
L 336.178201 505.477749 
L 335.209785 505.398266 
L 330.732025 505.66368 
L 319.498408 505.721669 
L 301.082068 504.371058 
L 296.044087 506.110152 
L 290.364134 505.252062 
L 292.706719 505.523998 
L 265.298526 507.264983 
L 262.474289 506.592821 
L 253.482292 510.169813 
L 251.471215 507.416834 
L 229.510621 511.538882 
L 229.028468 512.042068 
L 200.62609 518.86699 
L 187.866911 521.545853 
L 172.741749 526.097299 
L 172.443682 526.535311 
L 159.238287 528.616987 
L 151.971051 533.345467 
L 142.84607 534.812308 
L 139.672876 538.492447 
L 137.881069 540.256981 
L 121.389183 545.128642 
L 127.351087 549.433181 
L 119.155402 559.655153 
L 112.566181 561.873753 
L 110.195293 564.48695 
L 102.755075 564.806617 
L 101.047791 569.689473 
L 93.213011 583.992811 
L 94.762124 584.689139 
L 93.944516 588.468139 
L 95.667844 587.7899 
L 87.944836 587.345144 
L 93.604334 590.268125 
L 99.782482 591.512828 
L 84.148739 600.524212 
L 94.826856 600.931156 
L 88.861905 603.537666 
L 89.38281 611.16698 
L 90.958128 614.401358 
L 97.020691 617.136761 
L 94.844998 616.179746 
L 92.604394 621.298064 
L 94.1392 624.064979 
L 98.162166 623.697819 
L 100.164132 623.23654 
L 100.359552 624.677148 
L 97.872973 625.712254 
L 101.499969 627.952403 
L 104.816895 628.27103 
L 105.729328 628.907055 
L 106.908453 633.205954 
L 107.892915 633.666991 
L 109.260111 634.698956 
L 113.15649 634.937019 
L 108.425605 636.78346 
L 112.140867 638.349361 
L 115.536891 639.491806 
L 129.732374 645.096588 
L 128.290443 645.018586 
L 138.581503 648.247889 
L 142.871322 649.862203 
L 145.08183 650.048685 
L 150.438426 653.066957 
L 150.940875 653.09894 
L 166.926863 655.744647 
L 168.649405 657.262746 
L 181.298423 657.54023 
L 187.948352 657.036583 
L 197.16327 659.892768 
L 207.862503 662.073609 
L 212.757257 662.564921 
L 218.918743 663.688584 
L 217.061132 662.844918 
L 229.534874 665.514412 
L 243.996677 664.347406 
L 251.917021 665.925072 
L 249.807932 666.392959 
L 269.002144 667.151153 
L 269.790075 667.570983 
L 282.038508 667.542671 
L 285.556674 666.728465 
L 284.699811 667.878126 
L 289.200661 667.688734 
L 295.728017 666.912317 
L 304.035049 667.459734 
L 312.168842 667.101844 
L 317.866446 668.343954 
L 317.927321 669.082964 
L 318.974912 669.77005 
L 327.71344 666.415402 
L 342.203158 666.832653 
L 354.714508 668.178068 
L 368.194627 666.639843 
L 382.458856 665.337623 
L 394.658331 666.169846 
L 418.885214 665.360141 
L 435.237451 663.367355 
L 449.267824 662.983562 
L 469.518542 661.933034 
L 477.366136 659.648897 
L 479.896745 661.358728 
L 479.66371 661.016601 
L 476.906961 661.365543 
L 482.622793 660.167359 
L 485.879073 660.911554 
L 502.514408 658.977521 
L 519.63944 655.719223 
L 530.401562 653.204618 
L 547.834936 652.809182 
L 546.34654 651.988026 
L 549.484677 651.322484 
L 564.897085 648.91544 
L 577.854347 645.831677 
L 590.406677 643.274553 
L 585.765606 645.630325 
L 589.576296 647.495342 
L 610.473576 639.217948 
L 617.291701 638.712504 
L 648.652395 626.337285 
L 652.723274 626.146157 
L 654.21394 622.689727 
L 657.36344 624.921586 
L 656.095665 620.390437 
L 656.300653 622.576549 
L 661.302263 618.842743 
L 669.453833 609.733602 
L 669.250976 605.471667 
L 669.680285 603.168417 
L 672.56065 596.97467 
L 679.419091 595.603909 
L 666.307183 596.550209 
L 670.572147 593.317287 
L 666.189578 591.552548 
L 658.30278 580.495727 
L 656.797748 578.025691 
L 651.736895 578.693302 
L 644.790079 571.511644 
L 634.031323 561.591866 
L 622.81076 557.585923 
L 612.65551 553.793631 
L 611.823783 553.785219 
L 597.647085 550.259045 
L 592.797545 548.934632 
L 580.84276 543.987371 
L 571.064786 540.809265 
L 547.26913 534.261731 
L 538.028848 533.529282 
L 524.641069 528.183692 
L 518.254069 526.49175 
L 513.747373 526.649314 
L 504.360737 525.239414 
L 499.469007 523.227551 
L 502.499223 523.84013 
L 496.053881 521.712715 
L 452.617537 515.909883 
L 437.4279 514.482603 
L 427.447824 511.507787 
L 418.751295 511.130951 
L 421.407843 512.689679 
L 415.173236 509.100252 
L 415.173236 509.100252 
" clip-path="url(#p6051299066)" style="fill: none; stroke: #ff8c00; stroke-opacity: 0.7; stroke-width: 1.5; stroke-linecap: square"/>
   </g>
   <g id="line2d_100">
    <path d="M 557.588365 650.469598 
L 585.521341 645.289782 
L 593.577169 643.550008 
L 593.577169 643.550008 
L 643.862621 628.170297 
L 607.109429 640.303995 
L 655.645135 622.167272 
L 632.343582 632.713251 
L 643.976197 628.120325 
L 667.262421 612.930674 
L 669.399944 610.147345 
L 669.399944 610.147345 
L 666.203411 586.19819 
L 667.339107 587.587219 
L 656.091165 577.059576 
L 666.203411 586.19819 
L 652.898431 574.799128 
L 652.898431 574.799128 
L 633.566993 563.820324 
L 643.457144 568.989105 
L 637.696462 565.890155 
L 615.427978 555.811818 
L 592.915779 547.538765 
L 615.427978 555.811818 
L 575.502181 542.000547 
L 560.775001 537.767771 
L 580.046932 543.385834 
L 575.502181 542.000547 
L 544.817952 533.5745 
L 439.253105 513.674259 
L 544.817952 533.5745 
L 382.079996 507.778157 
L 439.253105 513.674259 
L 382.079996 507.778157 
L 373.307084 507.177667 
L 382.079996 507.778157 
L 356.415813 506.262643 
L 316.732738 505.451111 
L 316.732738 505.451111 
L 268.489746 507.394326 
L 254.577769 508.667711 
L 201.064998 517.469769 
L 248.400759 509.350941 
L 200.502685 517.602214 
L 165.974202 527.913995 
L 178.202671 523.721954 
L 178.202671 523.721954 
L 149.538237 534.750547 
L 139.779101 539.635509 
L 149.042876 534.981939 
L 128.036717 546.601707 
L 128.036717 546.601707 
L 139.779101 539.635509 
L 126.464675 547.645956 
L 120.172617 552.153901 
L 126.464675 547.645956 
L 97.000502 577.140231 
L 95.332861 580.166306 
L 95.332861 580.166306 
L 119.865954 552.388538 
L 94.396723 582.075631 
L 92.243294 587.443461 
L 92.243294 587.443461 
L 90.206358 596.696335 
L 90.206358 596.696335 
L 90.01269 601.222889 
L 92.072385 612.505579 
L 96.85143 621.620698 
L 99.276907 624.753981 
L 96.823444 621.580913 
L 96.823444 621.580913 
L 111.129011 635.215084 
L 111.129011 635.215084 
L 116.857872 638.788652 
L 123.638726 642.324028 
L 146.923078 651.024881 
L 146.923078 651.024881 
L 157.798531 653.941123 
L 163.78888 655.334009 
L 157.798531 653.941123 
L 185.162508 659.360028 
L 168.449941 656.328766 
L 203.798924 661.956081 
L 189.091318 659.968428 
L 219.338735 663.633933 
L 203.798924 661.956081 
L 253.091739 666.129095 
L 238.727498 665.235457 
L 259.876909 666.475516 
L 259.876909 666.475516 
L 273.026545 667.021841 
L 314.047841 667.812147 
L 320.583853 667.825557 
L 314.047841 667.812147 
L 349.503409 667.557072 
L 348.610539 667.573032 
L 362.660672 667.267486 
L 349.712446 667.553267 
L 407.850449 665.521837 
L 364.44693 667.220411 
L 407.850449 665.521837 
L 444.587904 663.252564 
L 444.587904 663.252564 
L 481.468482 660.155782 
L 486.231955 659.69042 
L 481.468482 660.155782 
L 507.708268 657.386041 
L 549.544635 651.760808 
L 588.29474 644.705288 
L 622.522768 635.967338 
L 622.522768 635.967338 
L 660.971192 618.622949 
L 653.778711 623.254231 
L 661.004251 618.598333 
L 661.004251 618.598333 
L 670.799106 607.705222 
L 671.575064 605.854642 
L 671.575064 605.854642 
L 669.11609 590.100571 
L 672.468157 601.584044 
L 672.468157 601.584044 
L 665.100789 584.961101 
L 669.11609 590.100571 
L 664.989205 584.840927 
L 650.125314 572.97532 
L 636.85091 565.457173 
L 650.125314 572.97532 
L 593.884477 547.866586 
L 634.995437 564.523802 
L 566.175573 539.276894 
L 566.175573 539.276894 
L 582.069318 544.015468 
L 582.069318 544.015468 
L 551.719625 535.341663 
L 515.288644 526.734806 
L 501.148041 523.835047 
L 501.148041 523.835047 
L 412.962712 510.544828 
L 407.777246 510.010793 
L 437.175012 513.401466 
L 412.962712 510.544828 
L 387.228338 508.169559 
L 392.393059 508.590546 
L 337.24057 505.626206 
L 333.577352 505.555486 
L 370.614167 507.010397 
L 333.577352 505.555486 
L 299.255065 505.749046 
L 318.498419 505.444736 
L 297.254381 505.811056 
L 289.897171 506.090759 
L 276.346333 506.827806 
L 276.346333 506.827806 
L 264.136683 507.754721 
L 254.664679 508.658739 
L 231.353549 511.648805 
L 232.76754 511.433865 
L 203.543636 516.897611 
L 189.794391 520.320267 
L 201.567916 517.352181 
L 154.245239 532.631503 
L 154.245239 532.631503 
L 168.307521 527.06133 
L 154.245239 532.631503 
L 127.545393 546.92517 
L 123.047152 550.02534 
L 111.070042 559.866961 
L 109.779651 561.110737 
L 111.070042 559.866961 
L 123.047152 550.02534 
L 106.34745 564.660367 
L 93.882202 583.211963 
L 93.882202 583.211963 
L 102.081699 569.698629 
L 92.742452 586.028913 
L 91.695098 589.190299 
L 91.695098 589.190299 
L 90.123955 603.473438 
L 91.406578 610.453719 
L 91.406578 610.453719 
L 94.033515 616.994214 
L 98.023286 623.206138 
L 98.023286 623.206138 
L 98.959883 624.375127 
L 105.193097 630.677634 
L 101.516916 627.22303 
L 103.369845 629.042499 
L 109.27938 633.909438 
L 109.27938 633.909438 
L 117.886286 639.367249 
L 115.16853 637.799697 
L 129.790878 645.054238 
L 117.886286 639.367249 
L 130.17483 645.212255 
L 143.493129 649.982699 
L 168.514201 656.341864 
L 178.572005 658.25561 
L 165.177548 655.637989 
L 165.177548 655.637989 
L 185.025985 659.338179 
L 185.025985 659.338179 
L 197.34142 661.136265 
L 208.282538 662.480826 
L 208.282538 662.480826 
L 217.989255 663.503262 
L 216.922286 663.398062 
L 236.529248 665.077952 
L 235.661438 665.014198 
L 251.400678 666.035422 
L 251.400678 666.035422 
L 286.419283 667.422861 
L 294.993783 667.603953 
L 286.504211 667.424936 
L 318.43888 667.82425 
L 318.43888 667.82425 
L 330.019828 667.795443 
L 318.43888 667.82425 
L 344.090818 667.646432 
L 344.090818 667.646432 
L 398.304121 665.986004 
L 398.304121 665.986004 
L 416.618913 665.050298 
L 454.616728 662.495388 
L 416.618913 665.050298 
L 481.029003 660.197837 
L 522.781851 655.548594 
L 522.781851 655.548594 
L 554.760862 650.932286 
L 549.884162 651.707805 
L 586.484037 645.088119 
L 554.760862 650.932286 
L 563.176231 649.524462 
L 589.391713 644.469697 
L 618.849831 637.075861 
L 612.274891 638.937945 
L 650.153824 625.197081 
L 650.153824 625.197081 
L 618.849831 637.075861 
L 655.17168 622.449018 
L 655.17168 622.449018 
L 657.527532 620.998739 
L 670.371358 608.535166 
L 671.690264 605.51648 
L 660.194413 619.190647 
L 672.289775 603.104616 
L 672.289775 603.104616 
L 672.501075 600.693167 
L 671.943521 596.360068 
L 670.892571 593.391054 
L 671.943521 596.360068 
L 660.904308 580.911813 
L 670.130756 591.833644 
L 645.29413 570.039297 
L 660.904308 580.911813 
L 618.095851 556.899447 
L 645.29413 570.039297 
L 618.095851 556.899447 
L 596.744981 548.84737 
L 618.095851 556.899447 
L 610.793175 553.983672 
L 571.214238 540.729397 
L 596.744981 548.84737 
L 580.173115 543.425248 
L 540.241774 532.440163 
L 540.241774 532.440163 
L 516.984878 527.098261 
L 526.894626 529.290931 
L 497.023219 523.031905 
L 438.473608 513.571533 
L 426.950439 512.122534 
L 457.6711 516.284061 
L 421.84522 511.523601 
L 408.769707 510.110866 
L 408.769707 510.110866 
" clip-path="url(#p6051299066)" style="fill: none; stroke: #000080; stroke-opacity: 0.9; stroke-width: 1.5; stroke-linecap: square"/>
   </g>
   <g id="patch_14">
    <path d="M 54.02 678.04 
L 54.02 496.101108 
" style="fill: none; stroke: #000000; stroke-width: 0.8; stroke-linejoin: miter; stroke-linecap: square"/>
   </g>
   <g id="patch_15">
    <path d="M 709.2 678.04 
L 709.2 496.101108 
" style="fill: none; stroke: #000000; stroke-width: 0.8; stroke-linejoin: miter; stroke-linecap: square"/>
   </g>
   <g id="patch_16">
    <path d="M 54.02 678.04 
L 709.2 678.04 
" style="fill: none; stroke: #000000; stroke-width: 0.8; stroke-linejoin: miter; stroke-linecap: square"/>
   </g>
   <g id="patch_17">
    <path d="M 54.02 496.101108 
L 709.2 496.101108 
" style="fill: none; stroke: #000000; stroke-width: 0.8; stroke-linejoin: miter; stroke-linecap: square"/>
   </g>
   <g id="legend_2">
    <g id="patch_18">
     <path d="M 644.449219 529.721733 
L 702.9 529.721733 
Q 704.7 529.721733 704.7 527.921733 
L 704.7 502.401108 
Q 704.7 500.601108 702.9 500.601108 
L 644.449219 500.601108 
Q 642.649219 500.601108 642.649219 502.401108 
L 642.649219 527.921733 
Q 642.649219 529.721733 644.449219 529.721733 
z
" style="fill: #ffffff; opacity: 0.8; stroke: #cccccc; stroke-linejoin: miter"/>
    </g>
    <g id="line2d_101">
     <path d="M 646.249219 507.889702 
L 655.249219 507.889702 
L 664.249219 507.889702 
" style="fill: none; stroke: #ff8c00; stroke-opacity: 0.7; stroke-width: 1.5; stroke-linecap: square"/>
    </g>
    <g id="text_53">
     <!-- noised -->
     <g transform="translate(671.449219 511.039702) scale(0.09 -0.09)">
      <use xlink:href="#DejaVuSans-6e"/>
      <use xlink:href="#DejaVuSans-6f" transform="translate(63.378906 0)"/>
      <use xlink:href="#DejaVuSans-69" transform="translate(124.560547 0)"/>
      <use xlink:href="#DejaVuSans-73" transform="translate(152.34375 0)"/>
      <use xlink:href="#DejaVuSans-65" transform="translate(204.443359 0)"/>
      <use xlink:href="#DejaVuSans-64" transform="translate(265.966797 0)"/>
     </g>
    </g>
    <g id="line2d_102">
     <path d="M 646.249219 521.100014 
L 655.249219 521.100014 
L 664.249219 521.100014 
" style="fill: none; stroke: #000080; stroke-opacity: 0.9; stroke-width: 1.5; stroke-linecap: square"/>
    </g>
    <g id="text_54">
     <!-- true -->
     <g transform="translate(671.449219 524.250014) scale(0.09 -0.09)">
      <use xlink:href="#DejaVuSans-74"/>
      <use xlink:href="#DejaVuSans-72" transform="translate(39.208984 0)"/>
      <use xlink:href="#DejaVuSans-75" transform="translate(80.322266 0)"/>
      <use xlink:href="#DejaVuSans-65" transform="translate(143.701172 0)"/>
     </g>
    </g>
   </g>
  </g>
  <g id="text_55">
   <!-- TRAIN dataset -->
   <g transform="translate(313.905859 24.277969) scale(0.13 -0.13)">
    <defs>
     <path id="DejaVuSans-54" d="M -19 4666 
L 3928 4666 
L 3928 4134 
L 2272 4134 
L 2272 0 
L 1638 0 
L 1638 4134 
L -19 4134 
L -19 4666 
z
" transform="scale(0.015625)"/>
     <path id="DejaVuSans-52" d="M 2841 2188 
Q 3044 2119 3236 1894 
Q 3428 1669 3622 1275 
L 4263 0 
L 3584 0 
L 2988 1197 
Q 2756 1666 2539 1819 
Q 2322 1972 1947 1972 
L 1259 1972 
L 1259 0 
L 628 0 
L 628 4666 
L 2053 4666 
Q 2853 4666 3247 4331 
Q 3641 3997 3641 3322 
Q 3641 2881 3436 2590 
Q 3231 2300 2841 2188 
z
M 1259 4147 
L 1259 2491 
L 2053 2491 
Q 2509 2491 2742 2702 
Q 2975 2913 2975 3322 
Q 2975 3731 2742 3939 
Q 2509 4147 2053 4147 
L 1259 4147 
z
" transform="scale(0.015625)"/>
     <path id="DejaVuSans-41" d="M 2188 4044 
L 1331 1722 
L 3047 1722 
L 2188 4044 
z
M 1831 4666 
L 2547 4666 
L 4325 0 
L 3669 0 
L 3244 1197 
L 1141 1197 
L 716 0 
L 50 0 
L 1831 4666 
z
" transform="scale(0.015625)"/>
     <path id="DejaVuSans-49" d="M 628 4666 
L 1259 4666 
L 1259 0 
L 628 0 
L 628 4666 
z
" transform="scale(0.015625)"/>
     <path id="DejaVuSans-4e" d="M 628 4666 
L 1478 4666 
L 3547 763 
L 3547 4666 
L 4159 4666 
L 4159 0 
L 3309 0 
L 1241 3903 
L 1241 0 
L 628 0 
L 628 4666 
z
" transform="scale(0.015625)"/>
     <path id="DejaVuSans-20" transform="scale(0.015625)"/>
     <path id="DejaVuSans-61" d="M 2194 1759 
Q 1497 1759 1228 1600 
Q 959 1441 959 1056 
Q 959 750 1161 570 
Q 1363 391 1709 391 
Q 2188 391 2477 730 
Q 2766 1069 2766 1631 
L 2766 1759 
L 2194 1759 
z
M 3341 1997 
L 3341 0 
L 2766 0 
L 2766 531 
Q 2569 213 2275 61 
Q 1981 -91 1556 -91 
Q 1019 -91 701 211 
Q 384 513 384 1019 
Q 384 1609 779 1909 
Q 1175 2209 1959 2209 
L 2766 2209 
L 2766 2266 
Q 2766 2663 2505 2880 
Q 2244 3097 1772 3097 
Q 1472 3097 1187 3025 
Q 903 2953 641 2809 
L 641 3341 
Q 956 3463 1253 3523 
Q 1550 3584 1831 3584 
Q 2591 3584 2966 3190 
Q 3341 2797 3341 1997 
z
" transform="scale(0.015625)"/>
    </defs>
    <use xlink:href="#DejaVuSans-54"/>
    <use xlink:href="#DejaVuSans-52" transform="translate(61.083984 0)"/>
    <use xlink:href="#DejaVuSans-41" transform="translate(126.566406 0)"/>
    <use xlink:href="#DejaVuSans-49" transform="translate(194.974609 0)"/>
    <use xlink:href="#DejaVuSans-4e" transform="translate(224.466797 0)"/>
    <use xlink:href="#DejaVuSans-20" transform="translate(299.271484 0)"/>
    <use xlink:href="#DejaVuSans-64" transform="translate(331.058594 0)"/>
    <use xlink:href="#DejaVuSans-61" transform="translate(394.535156 0)"/>
    <use xlink:href="#DejaVuSans-74" transform="translate(455.814453 0)"/>
    <use xlink:href="#DejaVuSans-61" transform="translate(495.023438 0)"/>
    <use xlink:href="#DejaVuSans-73" transform="translate(556.302734 0)"/>
    <use xlink:href="#DejaVuSans-65" transform="translate(608.402344 0)"/>
    <use xlink:href="#DejaVuSans-74" transform="translate(669.925781 0)"/>
   </g>
  </g>
 </g>
 <defs>
  <clipPath id="pfe150d5992">
   <rect x="54.02" y="70.56" width="655.18" height="181.938892"/>
  </clipPath>
  <clipPath id="pd48acdfe00">
   <rect x="54.02" y="283.330554" width="655.18" height="181.938892"/>
  </clipPath>
  <clipPath id="p6051299066">
   <rect x="54.02" y="496.101108" width="655.18" height="181.938892"/>
  </clipPath>
 </defs>
</svg>
